<?xml version="1.0" encoding="utf-8"?>
<!-- Generator: Adobe Illustrator 22.0.0, SVG Export Plug-In . SVG Version: 6.00 Build 0)  -->
<svg version="1.1" id="Ebene_1" xmlns="http://www.w3.org/2000/svg" xmlns:xlink="http://www.w3.org/1999/xlink" x="0px" y="0px"
	 viewBox="0 0 200 200" style="enable-background:new 0 0 200 200;" xml:space="preserve">
<style type="text/css">
	.st0{fill:#D8AD8B;}
	.st1{fill:#C89F81;}
	.st2{fill:#E4BEA0;}
	.st3{fill:#E6C5A1;}
	.st4{fill:#F5D7B3;}
	.st5{fill:#FFFFFF;}
	.st6{fill:#E5C87B;}
	.st7{fill:#AD7453;}
	.st8{fill:#221F1C;}
</style>
<g id="Ebene_2_1_">
	<g>
		<g>
			<path class="st0" d="M101.1,36.7c-43.6,0-43.9,36.6-41.9,60.6c-3-5.7-11.8-3.9-11.1,5c0.7,8.6,13.2,13.1,13,12.1
				c3.6,19.7,24.1,31.1,40,31.1c0.1,0,0.2,0,0.3,0V36.7C101.3,36.7,101.2,36.7,101.1,36.7z"/>
		</g>
		<path class="st1" d="M50.8,98.5c2.2-3.5,5.5-2,6.3-1.2c0.9,0.8,1.6,1.9,1,4c-0.3,1.1-1.5,1.2-1.2,3c0.3,2,1.2,2.1,1.7,2.5
			s1.1,0.8,1.5,1.6c0.3,0.8,0.4,1.7,0.2,2.5c-0.3,1.4-2.4,0.3-3.8-0.3c-0.9-0.4-3.8-2.8-4.5-3.7C50.2,104.7,49.4,100.8,50.8,98.5z"
			/>
		<g>
			<path class="st2" d="M101.3,36.7c43.6,0,43.9,36.6,42,60.6c3-5.7,11.8-3.9,11.1,5c-0.7,8.6-13.2,13.1-13,12.1
				c-3.6,19.7-24.1,31.1-40,31.1c-0.1,0-0.2,0-0.3,0V36.7C101.1,36.7,101.2,36.7,101.3,36.7z"/>
		</g>
		<path class="st1" d="M151.6,98.5c-2.2-3.5-5.5-2-6.3-1.2c-0.9,0.8-1.6,1.9-1,4c0.3,1.1,1.5,1.2,1.2,3c-0.3,2-1.2,2.1-1.7,2.5
			s-1.1,0.8-1.5,1.6c-0.3,0.8-0.4,1.7-0.2,2.5c0.3,1.4,2.4,0.3,3.8-0.3c0.9-0.4,3.8-2.8,4.5-3.7C152.2,104.7,153,100.8,151.6,98.5z"
			/>
		<g>
			<path class="st3" d="M100.7,47c-14.4,0-24.9,4.2-31.2,12.4c-8.9,11.5-8.5,29.1-5.3,41.7c1,3.9,1.5,14.3,2.2,18.1
				c3.1,17.1,21.9,26.2,34.3,26.2c0.1,0,0.2,0,0.3,0V47C100.9,47,100.8,47,100.7,47z"/>
			<path class="st4" d="M131.9,59.4C125.6,51.2,115.2,47,101,47v98.4c14.1-0.1,31-10.1,34-26.2c0.7-3.8,1.2-14.2,2.2-18.1
				C140.5,88.6,140.8,71,131.9,59.4z"/>
		</g>
		<path class="st5" d="M129.8,155.9c-4.4,5.8-9.2,11.5-14.5,16.5c-7.6,7.3-11.7,16.9-13.8,25.8c0-0.1-0.1-0.2-0.1-0.3
			c-0.3-1.3-0.7-2.6-1.1-4l0,0c-2.3-7.6-6.2-15.3-12.6-21.5c-5.5-5.3-10.6-11.3-15.2-17.4c2-2.4,4.1-4.5,5.9-5.9s3.1-2.6,4.2-3.5
			l0,0c2.1,0.6,4.3,1.2,6.4,1.6c4.5,0.9,8.9,1.4,12.9,1.3c3.5-0.1,7-0.5,10.4-1.2c2.2-0.4,4.4-0.9,6.5-1.6l0,0c1,0.9,2.3,2,4.1,3.4
			C125.1,150.7,127.5,153.2,129.8,155.9z"/>
		<path class="st6" d="M143.3,199.1c-0.2,0.1-0.3,0.3-0.6,0.4l0,0c-0.1,0.1-0.3,0.1-0.4,0.2H59.8c-0.7-0.3-1-0.4-1-0.4
			c0-18.1,5-28.8,10.5-35c6.9-7.8,14.7-8.8,14.7-8.8s0,0,0.1,0c1.7,4.5,0.4,3.6,1.7,7.5c0.5,1.5,1.6,3,3.1,4.3
			c1.9,4.5,4.7,9.5,8,13.5c2.2,2.7,3.4,6.1,4,9.4c0.6-3.2,1.8-6.7,4-9.4c3.3-4,6-8.9,7.9-13.3c1.7-1.1,3.2-2.3,4.2-3.1
			c0.6-0.5,1.3,4.6,2,3.9c2.3-2.5,5.1-6.1,7.5-9.5c2.1,1.3,4.3,3.1,6.5,5.5c1.9,2.2,3.7,4.9,5.4,8.3
			C141.2,178.9,143.3,187.4,143.3,199.1z"/>
		<path class="st7" d="M101.4,199c0,0.4,0,0.7,0,0.7l-0.6-0.3l-0.6-0.3l-27.4-15.3l9.8-12.8c0,0-4.2-4.4-6.7-6.4
			c-1.1-0.9-4-0.7-6.6-0.3c-3,0.5-5.8,1.3-6,1.4c0.4-0.6,4.8-6.8,9.4-12c2-2.3,4.1-4.5,5.9-5.9s3.1-2.6,4.2-3.5l0,0
			c1-0.9,1.7-1.6,2.4-2.2c1.4,0.6,2.8,1.1,4.2,1.5c-0.1,0.7-0.1,1.5-0.2,2.2c-0.1,1.2-0.2,2.4-0.4,3.4c-0.5,3.4-3,7-2.5,9.9
			c0.3,2.1,1.2,5,2.5,8.1c1.9,4.5,4.7,9.5,8,13.5c2.2,2.7,3.4,6.1,4,9.4c0.5,2.4,0.6,4.7,0.7,6.5C101.5,197.6,101.5,198.5,101.4,199
			z"/>
		<path class="st7" d="M119,170.9l9.8,12.8L101.4,199l-0.6,0.3l-0.6,0.3c0,0,0-0.3,0-0.7c-0.1-1.1-0.1-3.5,0.2-6.4l0,0
			c0.1-0.8,0.2-1.6,0.4-2.5c0.6-3.2,1.8-6.7,4-9.4c3.3-4,6-8.9,7.9-13.3c1.4-3.2,2.3-6.1,2.6-8.3c0.5-2.9-2-6.5-2.5-9.9
			c-0.1-1-0.2-2.1-0.3-3.2c-0.1-0.7-0.1-1.5-0.2-2.2c1.5-0.4,2.9-0.9,4.4-1.5c0.7,0.6,1.4,1.3,2.3,2.1l0,0c1,0.9,2.3,2,4.1,3.4
			c2,1.6,4.4,4.1,6.7,6.8c4.3,5,8.3,10.6,8.6,11.1c-0.2-0.1-2.8-0.8-5.6-1.3s-5.9-0.8-7.1,0.2C123.3,166.5,119,170.9,119,170.9z"/>
		<path class="st8" d="M119.3,129.9c-0.3-0.9-0.7-1.7-1.1-2.5c-1.9-7.6-9-13.4-17.7-13.8l0,0c-0.1,0-0.3,0-0.4,0s-0.3,0-0.4,0l0,0
			C91,114,83.8,119.8,82,127.4c-0.4,0.7-0.8,1.6-1.1,2.5c-1.4,4.8-2,8.5,1.6,19.9l0,0c0,0.1,16.3,27.5,35.4,0l0,0
			C121.3,138.4,120.7,134.7,119.3,129.9z M97.2,125.3c0.9-0.2,1.8-0.2,2.8-0.3c0.9,0,1.9,0.1,2.8,0.3c5.1,0.8,7.5,3.5,10.4,7.3
			c-0.9,0.3,0.2,0.6-0.8,0.7c-3,0.3-9.6-0.8-11.9-1.2V132h-0.1l0,0c0,0-0.1,0-0.3,0.1c-0.2,0-0.3-0.1-0.3-0.1l0,0h-0.1v0.1
			c-2.3,0.4-8.9,1.5-11.9,1.2c-1-0.1,0.1-0.3-0.8-0.7C89.7,128.8,92.1,126.2,97.2,125.3z"/>
		<path class="st8" d="M143.1,39.1c-4.5-4.2-10.1-5.7-10.1-5.7s-12.5-6.3-22-10.7c-9.5-4.5-25-0.9-33,1.2S60.4,37.4,57.5,43.7
			c-3,6.3-10.4,19.8-12.7,29.7c-2.4,9.8,5.6,19.4,10.6,21.4c3.2,1.3,3.5,9,3.5,9l3.5,1.6c0,0-2.2-5.3-1.9-10.7
			c0.2-3.6-0.4-14.4-0.4-14.4s15.3-3,26.5-6.1c-3.8,4.7-6.9,7.8-6.9,7.8c6.6-2.2,11.8-6,16-10.2C90,79.9,83.5,86.5,83.5,86.5
			c8.9-3.1,15.4-8.9,20.1-14.8c-6,10.3-15.4,19.8-15.4,19.8c21.2-7.2,28.7-30,29.7-33.3c0.1-0.1,0.1-0.1,0.2-0.2
			c2.7,0.6,7.2,2.2,12.7,6.3c5.6,4.2,12.5,10,12.5,22.5c0,4.2-1.9,16.4-1.9,16.4l1.9-1.3c0,0,0-4.7,5.3-7.7
			c4.3-2.4,5.3-10.4,5.3-13.7C153.9,58.3,147.6,43.3,143.1,39.1z"/>
	</g>
</g>
</svg>
