<?xml version="1.0" encoding="utf-8"?>
<!-- Generator: Adobe Illustrator 22.0.0, SVG Export Plug-In . SVG Version: 6.00 Build 0)  -->
<svg version="1.1" id="Ebene_1" xmlns="http://www.w3.org/2000/svg" xmlns:xlink="http://www.w3.org/1999/xlink" x="0px" y="0px"
	 viewBox="0 0 200 200" style="enable-background:new 0 0 200 200;" xml:space="preserve">
<style type="text/css">
	.st0{fill:#8D2026;}
	.st1{fill:#E6C5A1;}
	.st2{fill:#F5D7B3;}
	.st3{opacity:0.7;fill:#C89F81;enable-background:new    ;}
	.st4{fill:#D8AD8B;}
	.st5{fill:#C89F81;}
	.st6{fill:#E4BEA0;}
	.st7{fill:#411B17;}
	.st8{fill:#77160E;}
	.st9{fill:#A01A1B;}
	.st10{fill:#FAFAFB;}
	.st11{fill:#2E2A27;}
	.st12{fill:#F9F4DE;}
	.st13{fill:#EDEEEE;}
</style>
<g id="Ebene_2_1_">
	<g>
		<path class="st0" d="M117,100.8c-6.5,0-12.4,3.6-17,9.6c-4.8-7.7-11.5-12.5-19-12.5c-14.5,0-26.2,17.8-26.2,39.8
			s11.7,39.8,26.2,39.8c6.5,0,12.4-3.6,17-9.6c4.8,7.7,11.5,12.5,19,12.5c14.5,0,26.2-17.8,26.2-39.8S131.5,100.8,117,100.8z"/>
		<g>
			<path class="st1" d="M99.9,123.2v76.3H58.4c-0.7-0.3-1-0.4-1-0.4c0-40.9,25.4-44,25.4-44H83c0.2,0,0.4-0.1,0.6-0.1
				c2.1-0.6,3.5-3.7,4.5-8.1c0.1-0.3,0.1-0.7,0.2-1c0.1-0.4,0.2-0.9,0.2-1.3c0.2-1.4,0.4-2.9,0.6-4.4c0.1-0.9,0.2-1.9,0.3-2.8
				c0.4-4.7,0.5-9.8,0.5-14.6C89.8,122.6,95.4,123.2,99.9,123.2z"/>
			<path class="st2" d="M142.5,199.1c0,0-0.4,0.1-1,0.4H99.9v-76.3h0.1c4.5,0,10.1-0.6,10.1-0.6c0,4.8,0.1,9.8,0.5,14.5
				c0.1,0.9,0.2,1.9,0.3,2.8c0.2,1.6,0.4,3.1,0.6,4.5l0,0c0,0.3,0.1,0.6,0.1,0.9c0.1,0.3,0.1,0.6,0.2,0.9c0.9,4.3,2.1,7.4,4,8.5
				c0.1,0.1,0.3,0.1,0.4,0.2c0.3,0.1,0.6,0.2,0.9,0.2C117.1,155.1,142.5,158.1,142.5,199.1z"/>
		</g>
		<path class="st3" d="M111.4,144.4L111.4,144.4c-1,1.7-4.5,6.3-11.5,6.3c0,0,0,0-0.1,0c-6.6,0-10.4-4.8-11.4-6.2
			c0.2-1.4,0.4-2.9,0.6-4.4c0.1-0.9,0.2-1.9,0.3-2.8c3.2,0.8,6.7,1.3,10.5,1.4h0.1c3.8-0.1,7.4-0.6,10.7-1.5
			c0.1,0.9,0.2,1.9,0.3,2.8C111,141.5,111.2,143,111.4,144.4z"/>
		<g>
			<path class="st4" d="M99.8,41.2c-43.3-0.1-43.5,34.7-41.6,57.4c-3-5.3-11.8-3.4-11,5.2c0.7,8.2,13.1,11.9,12.9,11
				c3.5,18.5,23.9,28.8,39.7,30.2c0.1,0,0.2,0,0.3,0c0-34.6,0-69.2,0-103.7C100,41.2,99.9,41.2,99.8,41.2z"/>
		</g>
		<path class="st5" d="M49.3,100.2c2.2-3.3,5.5-1.9,6.3-1.1c0.9,0.8,1.6,1.8,1,3.8c-0.3,1.1-1.5,1.2-1.2,2.8c0.3,1.9,1.2,2,1.8,2.4
			c0.5,0.4,1.2,0.7,1.5,1.5s0.4,1.6,0.2,2.4c-0.3,1.3-2.4,0.3-3.8-0.3c-0.9-0.4-3.8-2.7-4.5-3.5C48.7,106.2,47.9,102.3,49.3,100.2z"
			/>
		<g>
			<path class="st6" d="M100,41.2c43.3-0.1,43.5,34.7,41.6,57.4c3-5.3,11.8-3.4,11,5.2c-0.7,8.2-13.1,11.9-12.9,11
				c-3.5,18.5-24,28.8-39.7,30.2c-0.1,0-0.2,0-0.3,0c0-34.6,0-69.2,0-103.7C99.8,41.2,99.9,41.2,100,41.2z"/>
		</g>
		<path class="st5" d="M150.8,100.2c-2.2-3.3-5.5-1.9-6.3-1.1c-0.9,0.8-1.6,1.8-1,3.8c0.3,1.1,1.5,1.2,1.2,2.8
			c-0.3,1.9-1.2,2-1.8,2.4c-0.5,0.4-1.2,0.7-1.5,1.5s-0.4,1.6-0.2,2.4c0.3,1.3,2.4,0.3,3.8-0.3c0.9-0.4,3.8-2.7,4.5-3.5
			C151.4,106.2,152.3,102.3,150.8,100.2z"/>
		<g>
			<path class="st1" d="M99.6,51c-14.5,0-25,4-31.5,11.9c-8.9,11-8.6,27.8-5.3,39.8c1,3.7,1.5,13.6,2.2,17.3
				c3.1,16.3,22.1,25,34.5,25c0.1,0,0.2,0,0.3,0V51.1C99.8,51.1,99.7,51,99.6,51z"/>
			<path class="st2" d="M131,62.9c-6.4-7.8-16.8-11.8-31-11.9v94c14.2-0.1,31.3-9.7,34.2-25c0.7-3.6,1.2-13.6,2.2-17.3
				C139.6,90.7,139.9,73.9,131,62.9z"/>
		</g>
		<path class="st7" d="M107.2,130.2c0,0-3.3,3.5-7.3,3.5s-7.1-3.4-7.1-3.4s3.1-0.5,7.1-0.5C103.9,129.8,107.2,130.2,107.2,130.2z"/>
		<path class="st8" d="M102,128.6c-1.1,0-2,0.7-2.1,1.6c0-0.9-0.9-1.6-2.1-1.6c-1.1,0-5.2,1.6-5.2,1.6s4,0.4,5.1,0.4
			s2.1,0.4,2.2-0.4c0,0.8,0.8,0.5,2,0.5c1.1,0,5.3-0.6,5.3-0.6S103.1,128.6,102,128.6z"/>
		<path class="st9" d="M153.3,93.1c-3.8-66.3-48.4-66.7-49.1-66.7c-0.6,0-5.3-0.3-7,0C27.7,36.7,46.8,151.5,48.6,161.8
			c4,22.7,20.7,36.5,20.7,36.5s-7.4-9.5-2-20.4c0.2-0.5,0.4-1.1,0.4-1.7c4.7,4.8,10.9,8.5,10.9,8.5s-11.8-19.5-13.9-53.6
			c-1.1-18,1.2-31.1,5.2-40.8H72l0.6-5.5c0,0,0,0,0-0.1l0.6,5.5h2.2L76.7,79c0.2-0.3,0.4-0.5,0.7-0.8l1.4,12.2h12.1l0.6-5.7l0.6,5.7
			h4.5l0.4-3.8l0.4,3.8h15.9l1.2-11l1.2,11h4l0.5-4.4l0.5,4.4h10.5l1.1-9.5l1.1,9.5h0.7c1.3,7.5,2.9,17.1,2.6,20.1
			c-1.1,9.7-3.7,20.7-4.1,21.5c-0.4,0.8-3.1,16.6-3.2,19.1c-0.5,17.4-7.9,28.9-7.9,28.9s4.6-3.1,8.3-10.9l0,0
			c0.8,5.5,3.2,13.6,3.7,16.4c1.1,5.8-3.7,14.2-3.7,14.2s3.3-2.4,6-8.4c1.1-2.5,1.9-4.8,2.4-6.8c0,0.8,0.1,1.6,0.3,2.4
			c1.1,6.1,1.1,9.4,1.1,9.4S157.2,161.3,153.3,93.1z"/>
		<path class="st10" d="M142.6,199.1c0,0-0.4,0.1-1,0.4H58.5c-0.7-0.3-1-0.4-1-0.4c0-9.6,1.4-17,3.5-22.9c9.3-6.4,28.6-6.3,39,4
			c0,0,16.1-13.2,32.4-6.3c3.1,1.3,5.6,3.1,7.7,5.2C141.6,184.6,142.6,191.1,142.6,199.1z"/>
		<path class="st11" d="M143.1,199.1c0,0-0.4,0.1-1,0.4H58.4c-0.7-0.3-1-0.4-1-0.4c0-41.5,25.6-44.6,25.6-44.6h0.2
			c0.2,0,1.1,0.2,1.3,0.2c2.1-0.6-2.3-1-3.4,7.2c-0.9,6.9,3.9,13.1-0.6,15.4c1.4,1.6,12.7,11.4,16.6,11.2h3.1c1.4,0,2.8,0,2.8,0
			c4,0.1,15.7-9.9,17-11.6c-4.5-2.2,0.8-8.6-0.6-15.4c-1.5-6.9-3-6.9-2.9-6.9c0.3,0.1,0.8-0.1,1.1-0.1
			C117.5,154.5,143.1,157.6,143.1,199.1z"/>
		<path class="st11" d="M116.5,154.3c-1,1.8-3.4,3.6-8.5,4.1c-3,0.3-5.7,0.5-8,0.5c-10.1,0.1-14.4-2.5-16.1-4.7c1.8-0.7,3.1-3.3,4-7
			c0.1-0.3,0.2-0.6,0.2-1c0-0.2,0.1-0.3,0.1-0.5c0.5,0.9,1.8,2.4,5.8,2.9c0,0,0,0,0.1,0c2.2,0.3,4.2,0.4,5.9,0.4
			c3.4,0,5.7-0.5,7.4-1.1c0,0,0,0,0.1,0c3.3-1.2,4.1-3,4.1-3s0.1,0.1,0.2,0.1c0,0.2,0.1,0.3,0.1,0.5c0.9,4.3,2.2,7.4,4,8.5
			c0.1,0.1,0.3,0.1,0.4,0.2C116.3,154.3,116.4,154.3,116.5,154.3z"/>
		<path class="st12" d="M98.8,155.6c0,0,1,6.1-3.1,10.4c-4.2,4.5-4.2,4.9-4.2,4.9s2.1-1.7,3.2-0.9s1.3,2.2,1.3,2.2s3.6-4.2,3.6-9.7
			C99.7,159.7,98.8,155.6,98.8,155.6z"/>
		<path class="st12" d="M101,156.8c0,0-1,6.1,3.1,10.4c4.2,4.5,4.2,4.9,4.2,4.9s-2.1-1.7-3.2-0.9s-1.3,2.1-1.3,2.1s-3.6-4.2-3.6-9.7
			C100.2,160.9,101,156.8,101,156.8z"/>
		<path class="st12" d="M101.7,157.6c0,1.1-0.9,2-2,2s-2-0.9-2-2s0.9-2,2-2C100.8,155.6,101.7,156.5,101.7,157.6z"/>
		<path class="st12" d="M89.8,157.6c0,0-1.2-5,0-5.7s9.9,4.3,9.9,5.7s-8.7,6.4-9.9,5.7S89.8,157.6,89.8,157.6z"/>
		<path class="st12" d="M109.6,157.6c0,0,1.2-5,0-5.7s-9.9,4.3-9.9,5.7s8.7,6.4,9.9,5.7S109.6,157.6,109.6,157.6z"/>
		<path class="st13" d="M58.1,189.2L58.1,189.2v0.1C58.1,189.3,58.1,189.3,58.1,189.2C58.1,189.3,58.1,189.2,58.1,189.2z"/>
		<path class="st13" d="M141.8,189.5C141.8,189.6,141.8,189.6,141.8,189.5C141.8,189.6,141.8,189.5,141.8,189.5L141.8,189.5
			L141.8,189.5z"/>
	</g>
</g>
</svg>
