<?xml version="1.0" encoding="utf-8"?>
<!-- Generator: Adobe Illustrator 22.0.0, SVG Export Plug-In . SVG Version: 6.00 Build 0)  -->
<svg version="1.1" id="Ebene_1" xmlns="http://www.w3.org/2000/svg" xmlns:xlink="http://www.w3.org/1999/xlink" x="0px" y="0px"
	 viewBox="0 0 200 200" style="enable-background:new 0 0 200 200;" xml:space="preserve">
<style type="text/css">
	.st0{fill:#E6C5A1;}
	.st1{fill:#F5D7B3;}
	.st2{clip-path:url(#SVGID_2_);fill:#C89F81;}
	.st3{fill:#D8AD8B;}
	.st4{fill:#C89F81;}
	.st5{fill:#E4BEA0;}
	.st6{fill:#1D1D1B;}
	.st7{fill:#AE1C26;}
	.st8{fill:#12100B;}
	.st9{fill:#161410;}
	.st10{fill:#403C3A;}
	.st11{fill:#726E6D;}
</style>
<g id="Ebene_2_1_">
	<g>
		<path class="st0" d="M99.4,119v80.7H55.5c-0.7-0.3-1.1-0.5-1.1-0.5c0-27.7,11-39,18.9-43.5c4-2.3,7.2-2.9,7.8-2.9
			c0.1,0,0.1,0,0.1,0c2.7,0,4.4-3.5,5.5-8.7c0.2-0.8,0.3-1.6,0.5-2.5c0.2-1.5,0.5-3.1,0.6-4.7c0.1-1,0.2-2,0.3-3
			c0.4-4.9,0.5-10.3,0.5-15.4C88.7,118.4,94.6,119,99.4,119"/>
		<path class="st1" d="M144.5,199.2c0,0-0.4,0.2-1.1,0.5h-44V119h0.1c4.8,0,10.7-0.6,10.7-0.6c0,5.1,0.1,10.4,0.5,15.3
			c0.1,1,0.2,2,0.3,2.9c0.2,1.7,0.4,3.3,0.6,4.8l0,0c0.1,0.7,0.2,1.3,0.3,1.9c1.1,5.5,2.9,9.2,5.6,9.3h0.1c0,0,3.4,0.4,7.7,2.8
			C133.2,160,144.5,171.2,144.5,199.2"/>
		<g>
			<g>
				<defs>
					<rect id="SVGID_1_" x="87.3" y="133.7" width="24.3" height="14.4"/>
				</defs>
				<clipPath id="SVGID_2_">
					<use xlink:href="#SVGID_1_"  style="overflow:visible;"/>
				</clipPath>
				<path class="st2" d="M111.6,141.5L111.6,141.5c-1.1,1.8-4.8,6.6-12.1,6.6h-0.1c-7,0-11-5.1-12.1-6.6c0.2-1.5,0.5-3,0.6-4.7
					c0.1-1,0.2-2,0.3-3c3.4,0.9,7.1,1.4,11.1,1.5h0.1c4.1-0.1,7.8-0.6,11.3-1.6c0.1,1,0.2,2,0.3,2.9
					C111.1,138.4,111.3,140,111.6,141.5"/>
			</g>
		</g>
		<path class="st3" d="M99.5,26.5c-46.5,0-46.7,38.9-44.7,64.4c-3.2-6-12.6-4.2-11.8,5.3c0.7,9.2,14,13.9,13.9,12.8
			c3.8,20.9,25.7,33.1,42.6,33.1c0.1,0,0.2,0,0.3,0V26.5C99.7,26.5,99.6,26.5,99.5,26.5"/>
		<path class="st4" d="M46,92.1c2.3-3.7,5.8-2.1,6.7-1.3c0.9,0.9,1.7,2.1,1.1,4.2c-0.3,1.2-1.6,1.3-1.3,3.2c0.3,2.1,1.3,2.2,1.9,2.7
			c0.5,0.5,1.2,0.8,1.6,1.7c0.3,0.9,0.4,1.8,0.2,2.6c-0.3,1.5-2.5,0.3-4-0.4c-1-0.4-4-3-4.8-3.9C45.3,98.8,44.4,94.6,46,92.1"/>
		<path class="st5" d="M99.7,26.5c46.5,0,46.7,38.9,44.7,64.4c3.2-6,12.6-4.2,11.9,5.3c-0.8,9.2-14.1,13.9-13.9,12.8
			c-3.8,20.9-25.7,33.1-42.6,33.1c-0.1,0-0.2,0-0.3,0V26.5C99.5,26.5,99.6,26.5,99.7,26.5"/>
		<path class="st4" d="M153.2,92.1c-2.3-3.7-5.8-2.1-6.7-1.3c-0.9,0.9-1.7,2.1-1.1,4.2c0.3,1.2,1.6,1.3,1.3,3.2
			c-0.3,2.1-1.3,2.2-1.9,2.7c-0.5,0.5-1.2,0.8-1.5,1.7c-0.4,0.9-0.4,1.8-0.2,2.6c0.3,1.5,2.5,0.3,4-0.4c1-0.4,4-3,4.8-3.9
			C153.9,98.8,154.8,94.6,153.2,92.1"/>
		<path class="st0" d="M99.1,37.4c-15.3,0-26.5,4.4-33.2,13.2c-9.5,12.2-9.1,30.9-5.6,44.4c1,4.1,1.6,15.2,2.3,19.2
			c3.3,18.1,23.3,27.8,36.5,27.8c0.1,0,0.2,0,0.4,0V37.5C99.3,37.5,99.2,37.4,99.1,37.4"/>
		<path class="st1" d="M132.3,50.7c-6.7-8.7-17.8-13.1-32.8-13.2V142c15-0.2,33.1-10.7,36.1-27.8c0.7-4.1,1.3-15.1,2.4-19.2
			C141.4,81.6,141.7,62.9,132.3,50.7"/>
		<path class="st6" d="M145.7,89c-1,0.9-2.1,2.7-2.8,4.6c-1.5,3.8-2,3.2-2,3.2s2.3-15,2.3-19.2c0-4.1-13.4-22.5-20.9-25
			c-7.5-2.5-14.4,2.7-22.5,2.7h-0.6c-7.9-0.1-14.7-5.1-22.1-2.7c-7.5,2.5-20.9,20.8-20.9,25s2.3,19.2,2.3,19.2s-0.6,0.7-2-3.2
			c-0.9-2.2-2.5-4-3.6-5c-2-26-0.5-63.8,46.4-63.8h0.2C146.8,24.8,147.8,63,145.7,89"/>
		<path class="st6" d="M173.5,75.7c0-3.5-2.8-6.3-6.3-6.3c-0.3,0-0.5,0-0.8,0.1c4.2-1.8,7.1-5.9,7.1-10.8c0-4.2-2.2-7.8-5.4-9.9
			c0.4-1.2,0.7-2.6,0.7-4c0-5.7-3.8-10.3-8.5-10.3c-0.7,0-1.4,0.1-2,0.3c-0.3-0.6-0.7-1.1-1.1-1.6c0.3-1.3,0.5-2.6,0.5-4.1
			c0-7.6-4.7-13.7-10.5-13.7c-1.5,0-2.9,0.4-4.2,1.2c-0.9-6.8-6-12.1-12.2-12.1c-2.6,0-5,0.9-7,2.5c-2.1-1.5-4.9-2.5-8-2.5
			c-2.9,0-5.6,0.9-7.7,2.3c-1.9-3.1-5-5.5-8.8-6.4c-3.8,1-6.9,3.3-8.8,6.4c-2.1-1.4-4.7-2.3-7.7-2.3c-3.1,0-5.9,1-8,2.5
			c-2-1.6-4.4-2.5-7-2.5c-6.2,0-11.3,5.3-12.2,12.1c-1.3-0.7-2.7-1.2-4.2-1.2c-5.8,0-10.5,6.1-10.5,13.7c0,1.4,0.2,2.8,0.5,4.1
			c-0.4,0.5-0.7,1-1.1,1.6c-0.6-0.2-1.3-0.3-2-0.3c-4.7,0-8.5,4.6-8.5,10.3c0,1.4,0.2,2.8,0.7,4c-3.2,2.1-5.4,5.7-5.4,9.9
			c0,4.9,2.9,9,7.1,10.8c-0.3,0-0.5-0.1-0.8-0.1c-3.5,0-6.3,2.8-6.3,6.3c0,2.6,1.6,4.9,3.9,5.8c-2.4,1.4-3.9,3.8-3.9,6.6
			c0,2.9,1.8,5.5,4.4,6.8c-1.4,1-2.3,2.6-2.3,4.3c0,3.1,2.8,5.7,6.3,5.7c0.3,0,0.5,0,0.8-0.1c-0.5,1-0.8,2-0.8,3.2
			c0,4.4,4.2,8,9.4,8c1,0,2-0.2,3-0.5c1.5,3,5.2,5.1,9.5,5.1c1.9,0,3.6-0.4,5.1-1.1c-1.8-3.2-3.1-6.8-3.8-10.6
			c0.3,1.1-13-3.6-13.7-12.7c-0.8-9.5,8.7-11.4,11.8-5.3c-2-25.5-1.8-64.4,44.6-64.4c46.3,0.1,46.8,39.6,44.7,65
			c3.2-6.7,12.5-4.8,11.7,4.7c-0.8,9.2-14.1,13.9-13.9,12.8c-0.7,3.9-2,7.4-3.8,10.6c1.5,0.7,3.2,1.1,5.1,1.1c4.4,0,8.1-2.1,9.6-5.1
			c0.9,0.3,1.9,0.5,3,0.5c5.2,0,9.3-3.6,9.3-8c0-1.1-0.3-2.2-0.8-3.2c0.3,0,0.5,0.1,0.8,0.1c3.5,0,6.3-2.5,6.3-5.7
			c0-1.8-0.9-3.3-2.3-4.3c2.7-1.4,4.5-3.9,4.5-6.8c0-2.7-1.6-5.1-3.9-6.6C171.9,80.5,173.5,78.3,173.5,75.7"/>
		<path class="st6" d="M129.4,127.5c-3.3,2.2-10,4.2-14.2,4.2s-6.2-0.3-8.6-1.3c-2.4-0.9-7.1-6-7.1-6l-0.1,0.1l-0.1-0.1
			c0,0-4.6,5-7.1,6c-2.4,0.9-4.3,1.3-8.6,1.3c-4.2,0-11-2-14.2-4.2c-5.1-3.5-11.5-13.7-11.5-13.7s2.9,12.6,16.1,20.8
			c6.1,3.8,13.7,6.6,20.5,7.5c1.3,0.2,2.9,0.3,4.6,0.4l0,0c0.1,0,0.1,0,0.2,0h0.1l0,0c1.8-0.1,3.4-0.2,4.7-0.4
			c6.8-0.9,14.5-3.8,20.5-7.5c13.3-8.3,16.1-20.8,16.1-20.8S134.5,124,129.4,127.5"/>
		<path class="st7" d="M134.5,199.7H64.3c0.2-2.8,0.5-6.8,0.7-9c1.3-10.5,5.2-26.9,8.3-35c0.1-0.3,0.2-0.6,0.4-0.9l7.5-2.4v0.4
			c0.1,3,0.6,22.6,1.1,28c0.3,3.8,9.3,5.6,17.1,5.9c7.8-0.3,16.8-2.1,17.1-5.9c0.5-5.4,1-25.2,1-28c0-0.2,0-0.3,0-0.3l7.4,2.4
			c0.1,0.2,0.2,0.5,0.3,0.8c3.1,8.1,7.1,24.6,8.4,35.2C134,192.9,134.3,196.9,134.5,199.7"/>
		<polygon class="st6" points="99.5,188 101.2,191.4 105,191.9 102.2,194.6 102.9,198.3 99.5,196.5 96.2,198.3 96.8,194.6 
			94.1,191.9 97.9,191.4 		"/>
		<path class="st8" d="M98.9,108.2c-9.9-0.1-19.9-2.3-25,3.2c-4.2,5.5-4.8,19.4,0,25.1c2.3-6.9,1.7-14.6,8.2-17.2
			c5.7-2.3,13.5,0.3,16.9-5.7c3.8,8.6,15.3,2.3,21,10.2c2.7,3.8,2.6,6.9,4.6,13.8c5.4-4.8,5.1-18.3,1.6-23.5
			C121.1,106.3,110.2,108.3,98.9,108.2z"/>
		<path class="st9" d="M144.6,77c-0.3-0.8-5.1-1.8-9.4-1.3c-4.3,0.5-12.1,0.9-20.8,3.2c-8.7,2.3-13.6,2.5-13.6,2.5l0,0
			c-0.7,0-1.4,0-2,0l0,0c0,0-4.9-0.2-13.6-2.5s-16.5-2.7-20.8-3.2S55.3,76.2,55,77c-0.3,0.8,0.6,1.8,0.7,2.7c0.1,0.8,0.6,3,0.6,4.2
			s1,1.5,2.1,2.1c0,0,9.7-0.5,12-0.3s20.7,3.8,21.6,4.1c0.9,0.3,2.6-0.1,2.9,0s0.9,0.1,2-0.8c0.6-0.5,5.2-0.6,5.9,0
			c1.1,0.8,1.7,0.8,2,0.8c0.3-0.1,2,0.3,2.9,0s19.3-3.8,21.6-4.1c2.3-0.2,12,0.3,12,0.3c1.1-0.7,2.1-0.9,2.1-2.1s0.5-3.4,0.6-4.2
			C144,78.8,144.9,77.8,144.6,77"/>
		<path class="st10" d="M95.7,89.6c0,0-3,8.9-4,10.5c-1,1.7-3.2,3.4-12.9,1.9c-1.4-0.2-2.7-0.4-3.9-0.7c-5.5-1-8.9-2.3-11.2-3.7
			c-1.6-0.9-2.6-1.9-3.3-2.8c-3.8-5-3.4-13.7-3.1-14.4c1.5-2.6,14.1-1.5,22.5,0.1c1.6,0.3,3,0.6,4.2,0.9c3.4,0.9,5.6,1.9,7,2.8
			c1.7,1.1,2.3,2,2.4,2.5c0.3,0.9,0.3,1.8,0.7,2.4C94.5,89.9,95.7,89.6,95.7,89.6"/>
		<path class="st10" d="M139.1,94.9c-2,2.5-6,5.4-18.1,7.2c-0.1,0-0.2,0-0.2,0c-9.4,1.4-11.8-0.1-12.9-1.8c0,0-0.1-0.1-0.1-0.2
			c-1-1.7-4-10.5-4-10.5s1.3,0.3,1.6-0.4c0.4-0.6,0.3-1.5,0.6-2.4c0.3-0.9,2-3.5,9.4-5.4c2.9-0.8,7.6-1.6,12.1-2.1
			c6.2-0.7,12.3-0.8,14.1,0.6c0.2,0.1,0.3,0.3,0.4,0.4C142.6,81.1,142.9,89.9,139.1,94.9"/>
		<path class="st11" d="M91.1,84.3L75,101.4c-5.5-1-8.9-2.3-11.2-3.7l16.1-17.1c1.6,0.3,3,0.6,4.2,0.9
			C87.5,82.4,89.7,83.4,91.1,84.3"/>
		<path class="st11" d="M141.8,80l-20.7,22c-0.1,0-0.2,0-0.2,0c-9.4,1.4-11.8-0.1-12.9-1.8l19.7-20.9
			C133.9,78.7,139.9,78.6,141.8,80"/>
	</g>
</g>
</svg>
