<?xml version="1.0" encoding="utf-8"?>
<!-- Generator: Adobe Illustrator 22.0.0, SVG Export Plug-In . SVG Version: 6.00 Build 0)  -->
<svg version="1.1" id="Ebene_1" xmlns="http://www.w3.org/2000/svg" xmlns:xlink="http://www.w3.org/1999/xlink" x="0px" y="0px"
	 viewBox="0 0 200 200" style="enable-background:new 0 0 200 200;" xml:space="preserve">
<style type="text/css">
	.st0{fill:#514C4B;}
	.st1{fill:#835528;}
	.st2{fill:#9E6532;}
	.st3{fill:#603F20;}
	.st4{fill:#3A2819;}
	.st5{fill:#D9898F;}
	.st6{fill:#FFFFFF;}
	.st7{fill:#FBFCF8;}
</style>
<g id="Ebene_2_1_">
	<g>
		<path class="st0" d="M88.3,62.3c0,0-0.6,15.4-3.4,20.3C82,87.4,83.5,91,65.5,95.7C54.4,98.6,36.1,96.3,29.9,80
			c-1.7-4.3-6.4-14.1,12.2-15.3C60.7,63.5,88.3,62.3,88.3,62.3"/>
		<path class="st1" d="M114.8,119.1v80.5H71.1c-0.7-0.3-1.1-0.5-1.1-0.5c0-43.2,26.8-46.4,26.8-46.4c2.7,0,4.4-3.4,5.5-8.7
			c0.2-0.8,0.3-1.6,0.5-2.5c0.2-1.5,0.5-3,0.6-4.7c0.1-1,0.2-1.9,0.3-3c0.4-4.9,0.5-10.3,0.5-15.4
			C104.2,118.6,110.1,119.1,114.8,119.1"/>
		<path class="st2" d="M159.8,199.2c0,0-0.4,0.2-1,0.5h-44v-80.5h0.1c4.8,0,10.7-0.6,10.7-0.6c0,5.1,0.1,10.4,0.5,15.3
			c0.1,1,0.2,2,0.3,2.9c0.2,1.7,0.4,3.3,0.6,4.8l0,0c0.1,0.7,0.2,1.3,0.3,1.9c1.1,5.6,2.9,9.3,5.7,9.3
			C133,152.8,159.8,156,159.8,199.2"/>
		<path class="st3" d="M127,141.5L127,141.5c-1.1,1.8-4.8,6.6-12.1,6.6h-0.1c-7,0-11-5.1-12.1-6.6c0.2-1.5,0.5-3,0.6-4.7
			c0.1-1,0.2-1.9,0.3-3c3.4,0.9,7.1,1.4,11.1,1.4h0.1c4-0.1,7.8-0.6,11.3-1.6c0.1,1,0.2,2,0.3,2.9C126.6,138.5,126.8,140,127,141.5"
			/>
		<path class="st3" d="M114.2,26.8c-46.4,0-46.6,38.8-44.6,64.2c-3.2-6-12.6-4.2-11.8,5.3c0.8,9.1,14,13.8,13.8,12.8
			c3.8,20.9,25.6,33,42.5,33c0.1,0,0.2,0,0.4,0V26.8C114.4,26.8,114.3,26.8,114.2,26.8"/>
		<path class="st4" d="M60.8,92.3c2.3-3.7,5.8-2.1,6.7-1.3c0.9,0.9,1.7,2,1.1,4.2c-0.3,1.2-1.6,1.3-1.3,3.2c0.3,2.1,1.3,2.2,1.9,2.7
			c0.5,0.5,1.2,0.8,1.6,1.7c0.3,0.9,0.4,1.8,0.2,2.6c-0.3,1.5-2.5,0.3-4-0.3c-1-0.5-4-3-4.8-3.9C60.1,99,59.2,94.8,60.8,92.3"/>
		<path class="st3" d="M114.4,26.8c46.4,0,46.6,38.8,44.6,64.2c3.2-6,12.6-4.2,11.8,5.3c-0.7,9.1-14,13.8-13.8,12.8
			c-3.8,20.9-25.6,33-42.5,33c-0.1,0-0.2,0-0.4,0V26.8C114.2,26.8,114.3,26.8,114.4,26.8"/>
		<path class="st4" d="M167.9,92.3c-2.3-3.7-5.8-2.1-6.7-1.3c-0.9,0.9-1.6,2-1.1,4.2c0.3,1.2,1.6,1.3,1.3,3.2
			c-0.3,2.1-1.3,2.2-1.9,2.7c-0.5,0.5-1.2,0.8-1.6,1.7c-0.3,0.9-0.4,1.8-0.2,2.6c0.3,1.5,2.5,0.3,4-0.3c1-0.5,4-3,4.8-3.9
			C168.5,99,169.4,94.8,167.9,92.3"/>
		<path class="st1" d="M114.6,37.7c-15.3,0-26.4,4.4-33.2,13.2c-9.4,12.2-9.1,30.9-5.6,44.3c1.1,4.1,1.6,15.1,2.3,19.2
			c3.3,18.1,23.3,27.8,36.4,27.8c0.1,0,0.2,0,0.3,0V37.7C114.8,37.7,114.7,37.7,114.6,37.7"/>
		<path class="st2" d="M147.7,50.9c-6.7-8.7-17.8-13.1-32.8-13.2v104.4c15-0.2,33-10.7,36.1-27.7c0.7-4.1,1.3-15.1,2.4-19.2
			C156.8,81.8,157.2,63.2,147.7,50.9"/>
		<path class="st5" d="M159.9,199.2c0,0-0.4,0.2-1.1,0.5H71c-0.7-0.3-1.1-0.5-1.1-0.5c0-32.9,15.6-42.6,23-45.4
			c4.8,5.3,14.4,12.6,21.8,13h0.1l0,0l0,0c0,0,0.1,0,0.2,0c7.4-0.4,17-7.7,21.8-13C144.2,156.6,159.9,166.2,159.9,199.2"/>
		<path class="st6" d="M88.8,155.8c5.7,6.3,17.1,15,25.8,15.4h0.2l0,0l0,0c0,0,0.1,0,0.2,0c8.8-0.4,20.1-9.1,25.8-15.4
			c-1.5-0.9-2.9-1.5-4.1-1.9c-4.8,5.3-14.4,12.7-21.8,13c-0.1,0-0.1,0-0.2,0l0,0l0,0h-0.2c-7.4-0.4-16.9-7.7-21.8-13
			C91.7,154.3,90.3,154.9,88.8,155.8"/>
		<path class="st7" d="M70.1,59.9c0,0,1.6-26.6,10.1-29.3s25.2-8.5,38.5-5.4c14,3.2,38.5,7.3,41.3,30.6c1.4,11.4-1,35.2-1,35.2
			s-0.2-11.7-9.1-19c-8.9-7.3-19-15.7-36.5-14.6C96,58.7,70.1,59.9,70.1,59.9"/>
		<path class="st7" d="M70.3,57.7c-4.9,2.4-5.2,2.8-9.3,3.4c-8.9,1.4-18,3.2-24.1,3c-6.1-0.2-8.5,0.2-8.9,5.9c-0.4,5.7,0,2.4,0,2.4
			s-0.4-3.2,5.6-4.4c6.1-1.2,21.5,6.6,42.1,5s48-15,48-15s-11.9-3.9-20.8-4.2C94,53.4,70.3,57.7,70.3,57.7"/>
	</g>
</g>
</svg>
