<?xml version="1.0" encoding="utf-8"?>
<!-- Generator: Adobe Illustrator 22.0.0, SVG Export Plug-In . SVG Version: 6.00 Build 0)  -->
<svg version="1.1" id="Ebene_1" xmlns="http://www.w3.org/2000/svg" xmlns:xlink="http://www.w3.org/1999/xlink" x="0px" y="0px"
	 viewBox="0 0 200 200" style="enable-background:new 0 0 200 200;" xml:space="preserve">
<style type="text/css">
	.st0{fill:#E6C5A1;}
	.st1{fill:#F5D7B3;}
	.st2{clip-path:url(#SVGID_2_);fill:#C89F81;}
	.st3{fill:#D8AD8B;}
	.st4{fill:#C89F81;}
	.st5{fill:#E4BEA0;}
	.st6{fill:#CB666C;}
	.st7{fill:#D96F71;}
	.st8{fill:#FCFBFD;}
	.st9{fill:#D9898F;}
	.st10{fill:#263140;}
</style>
<g id="Ebene_2_1_">
	<g>
		<path class="st0" d="M100,118.1v81.6H55.8c-0.7-0.3-1.1-0.5-1.1-0.5c0-20.6,6-32.2,12.3-38.8c7.2-7.4,14.8-8.3,14.8-8.3H82
			c0.2,0,0.4-0.1,0.6-0.1c2.2-0.6,3.8-3.9,4.8-8.6c0.2-0.8,0.3-1.6,0.5-2.5c0.3-1.5,0.5-3.1,0.6-4.7c0.1-1,0.2-2,0.3-3
			c0.4-5,0.5-10.4,0.5-15.6c0,0,5.4,0.5,10,0.6L100,118.1L100,118.1z"/>
		<path class="st1" d="M144.8,199.2c0,0-0.4,0.1-1.1,0.5H99.3v-81.6h0.7c4.7-0.1,10.2-0.6,10.2-0.6c0,5.1,0.1,10.5,0.5,15.5
			c0.1,1,0.2,2,0.3,3c0.2,1.7,0.4,3.3,0.6,4.9l0,0c0.1,0.7,0.2,1.3,0.3,1.9c0.9,4.6,2.3,7.9,4.3,9.1c0.2,0.1,0.3,0.1,0.5,0.2
			c0.3,0.1,0.6,0.2,1,0.2c0,0,6.9,0.8,13.7,7.3c1.4,1.4,2.9,3,4.2,4.9C140.7,171.3,144.8,182.2,144.8,199.2"/>
		<g>
			<g>
				<defs>
					<rect id="SVGID_1_" x="87.1" y="133" width="24.5" height="14.5"/>
				</defs>
				<clipPath id="SVGID_2_">
					<use xlink:href="#SVGID_1_"  style="overflow:visible;"/>
				</clipPath>
				<path class="st2" d="M111.6,140.8L111.6,140.8c-1.1,1.8-4.8,6.7-12.3,6.7h-0.1c-7,0-11.1-5.2-12.2-6.7c0.2-1.5,0.5-3.1,0.6-4.7
					c0.1-1,0.2-2,0.3-3c3.4,0.9,7.2,1.4,11.2,1.5h0.1c4.1-0.1,7.9-0.6,11.4-1.6c0.1,1,0.2,2,0.3,3
					C111.2,137.7,111.3,139.3,111.6,140.8"/>
			</g>
		</g>
		<path class="st3" d="M99.2,30.4C53,30.3,52.7,67.5,54.8,91.8c-3.2-5.7-12.5-3.6-11.8,5.5C43.7,106,57,110,56.8,109
			c3.8,19.8,25.5,30.7,42.4,32.3c0.1,0,0.2,0,0.3,0V30.5C99.5,30.5,99.4,30.4,99.2,30.4"/>
		<path class="st4" d="M45.4,93.5c2.3-3.5,5.9-2,6.8-1.2c0.9,0.8,1.7,2,1.1,4.1c-0.3,1.2-1.6,1.2-1.3,3c0.3,2,1.3,2.1,1.9,2.6
			c0.5,0.4,1.2,0.8,1.6,1.6c0.3,0.8,0.4,1.7,0.2,2.5c-0.4,1.4-2.6,0.3-4-0.4c-1-0.4-4.1-2.9-4.8-3.7C44.8,99.9,43.8,95.8,45.4,93.5"
			/>
		<path class="st5" d="M99.5,30.4c46.2-0.1,46.5,37.1,44.4,61.4c3.2-5.7,12.5-3.6,11.8,5.5c-0.7,8.7-14,12.7-13.8,11.7
			c-3.8,19.8-25.5,30.7-42.4,32.3c-0.1,0-0.2,0-0.4,0V30.5C99.2,30.5,99.4,30.4,99.5,30.4"/>
		<path class="st4" d="M153.7,93.5c-2.3-3.5-5.9-2-6.8-1.2c-0.9,0.8-1.7,2-1.1,4.1c0.3,1.2,1.6,1.2,1.3,3c-0.3,2-1.3,2.1-1.9,2.6
			c-0.6,0.4-1.2,0.8-1.6,1.6c-0.3,0.8-0.4,1.7-0.2,2.5c0.3,1.4,2.6,0.3,4-0.4c1-0.4,4.1-2.9,4.8-3.7
			C154.3,99.9,155.2,95.8,153.7,93.5"/>
		<path class="st0" d="M99,41c-15.4,0-26.7,4.3-33.6,12.7c-9.5,11.8-9.2,29.7-5.7,42.6c1.1,3.9,1.6,14.6,2.4,18.5
			c3.3,17.4,23.5,26.7,36.8,26.7c0.1,0,0.2,0,0.4,0V41C99.2,41,99.1,41,99,41"/>
		<path class="st1" d="M132.5,53.7c-6.8-8.4-17.9-12.6-33.1-12.7v100.4c15.2-0.2,33.4-10.3,36.5-26.7c0.7-3.9,1.3-14.5,2.4-18.5
			C141.7,83.4,142.1,65.5,132.5,53.7"/>
		<path class="st6" d="M107.1,125.7c0,0-3.5,3.7-7.8,3.7s-7.6-3.7-7.6-3.7s3.3-0.6,7.6-0.6C103.6,125.2,107.1,125.7,107.1,125.7"/>
		<path class="st7" d="M101.5,123.9c-1.2,0-2.2,0.7-2.2,1.7c0-1-1-1.7-2.2-1.7s-5.6,1.7-5.6,1.7s4.3,0.4,5.5,0.4s2.3,0.5,2.3-0.4
			c0,0.9,0.9,0.6,2.1,0.6s5.7-0.6,5.7-0.6S102.8,123.9,101.5,123.9"/>
		<path class="st8" d="M144.8,199.2c0,0-0.4,0.1-1.1,0.5h-88c-0.7-0.3-1.1-0.5-1.1-0.5c0-20.6,6-33.7,13.3-39.8
			c0.1,0.3,0,1.9,0.2,2.8c0,0,0.4,3.9,1.1,5.1c4.2,6.8,20.5,13.7,24.7,14.1c0.6,0.1,1.2,0.1,1.9,0.2c1,0.1,2,0.1,3.2,0.2h0.2
			c0.2,0,0.5,0,0.7,0c0.8-0.1,1.5-0.1,2.2-0.2c0.7-0.1,1.3-0.1,1.9-0.2c4.2-0.4,20.6-7.4,24.7-14.1c0.7-1.2,1.1-3.4,1.5-5l-0.1-0.7
			c0.2-0.6-0.6-2.7-0.4-3.7c1.4,1.4,4.2,3.4,5.8,5.9C140.9,171.7,144.8,182.2,144.8,199.2"/>
		<path class="st9" d="M96.1,199.7h-4.9c0.2-3,0.4-7.8,0.4-10.5c0-2.6,0.6-5.7-4.5-9.3c-5-3.6-18.2-3.4-19.5-12
			c-0.3-2-0.3-3.8-0.1-5.3l0,0c0.2-2.4,0.8-3.9,0.8-3.9s2.5-2,3.4-2.6c1.2-0.7,4.9-2.5,4.9-2.5c0,4-3.3,12.9,0.8,15.9
			c4,3,12.7,5.5,15,6.7s3.1,2.8,3.5,5c0,0.1,0.1,0.3,0.1,0.6C96.2,184.7,96.1,194.6,96.1,199.7"/>
		<path class="st9" d="M130.6,167.8c-1.3,8.7-14.4,8.4-19.4,12s-4.5,6.8-4.5,9.3c0,2.7,0.2,7.5,0.4,10.5h-4.9c0-5.1-0.1-15,0.1-18
			c0-0.3,0-0.5,0.1-0.6c0.4-2.2,1.2-3.8,3.5-5s11-3.7,15-6.7s0.8-12.1,0.8-16.1c0,0,3.8,1.1,4.9,1.8c2.1,1.3,3.6,3.2,3.6,3.2
			s0.5,1.8,0.7,4.1l0,0C130.9,163.9,130.9,165.8,130.6,167.8"/>
		<path class="st10" d="M54.2,58.1c0.6-1.7,1.2-3.2,1.7-4.8c0-0.2,0-0.4,0-0.6c0-2.1,0.9-3.9,2.4-5.7c-1.1-1.5-1-3.6,0.4-4.9
			c-0.6-0.1-1.3-0.4-1.8-0.9C55.7,40,55.8,38,57,36.8l1-1c-0.4-0.2-0.7-0.5-1-0.8c-1.2-1.2-1.4-2.9-0.5-3.7l0.5-0.5
			c-0.3-0.1-0.6-0.4-0.9-0.7c-0.8-0.9-1-2.1-0.4-2.7l7.6-7.2c0.6-0.6,1.8-0.4,2.7,0.5c0.3,0.3,0.5,0.6,0.6,1l0.4-0.3
			c0.9-0.8,2.5-0.5,3.7,0.7c0.3,0.3,0.6,0.7,0.7,1.1l0.5-0.5c1.2-1.2,3.2-1.1,4.4,0.1c0.5,0.5,0.8,1.2,0.8,1.8
			c1.5-1.2,3.7-1.1,5,0.4c0.3,0.4,0.6,0.8,0.8,1.2c2.7-1.7,5.3-2.5,8.9-2.4c0,0,0,0,0.1,0.1c3.2-0.7,20.3-4.2,30.4-0.3
			c11.2,4.2,20.4,11.5,26.9,31s1.2,35.5-0.1,42.3c-4,21.6-29.4,43-29.4,43s11.1-13.5,13.2-19.2c1.7-4.5,4.2-12.1,4.2-23.4
			c0-9.5-4.5-13.1-6-14c0.2,0.8,0.6,2.7,1.1,7.2c1,9.7-4.3,17.1-4.3,17.1s6.7-12.5-4-21.9c-3.4-3-6.2-6.1-8.5-8.9l0,0
			c2.7,7.4-3.5,24.6-3.5,24.6s0.8-20.5-4.7-23.7C93.5,70,91.4,66.8,89.4,60.5c-0.3-0.9-0.4-1.7-0.5-2.4L76.5,76.3
			c-0.6,0.8-1.5,2.1-2.6,3.9c-3.2,5.1-7.7,13.4-7.7,20.6c0,11.3,1.7,15.4,1.7,15.4s-5.8-0.1-13.7-15.7
			C51.1,94.2,47.7,77.6,54.2,58.1z"/>
	</g>
</g>
</svg>
