<?xml version="1.0" encoding="utf-8"?>
<!-- Generator: Adobe Illustrator 22.0.0, SVG Export Plug-In . SVG Version: 6.00 Build 0)  -->
<svg version="1.1" id="Ebene_1" xmlns="http://www.w3.org/2000/svg" xmlns:xlink="http://www.w3.org/1999/xlink" x="0px" y="0px"
	 viewBox="0 0 200 200" style="enable-background:new 0 0 200 200;" xml:space="preserve">
<style type="text/css">
	.st0{fill:#E6C5A1;}
	.st1{fill:#F5D7B3;}
	.st2{opacity:0.7;fill:#C89F81;enable-background:new    ;}
	.st3{fill:#D8AD8B;}
	.st4{fill:#C89F81;}
	.st5{fill:#E4BEA0;}
	.st6{fill:#696665;}
	.st7{fill:#503827;}
	.st8{fill:#975029;}
	.st9{fill:#422D1A;}
</style>
<g id="Ebene_2_1_">
	<g>
		<g>
			<path class="st0" d="M99.1,120.6v79.1H56.2c-0.7-0.3-1-0.5-1-0.5c0-7.8,0.9-14.3,2.4-19.7c0.3-1.1,0.6-2.1,0.9-3.1
				c3.8-11.3,10.3-17.1,15.4-20c0,0,0.1,0,0.1-0.1h0.1c4.2-2.4,7.5-2.7,7.5-2.7c2.6,0,4.3-3.4,5.4-8.5c0.2-0.8,0.3-1.6,0.4-2.5
				c0.2-1.5,0.5-3,0.6-4.6c0.1-1,0.2-1.9,0.3-2.9c0.4-4.9,0.5-10.1,0.5-15.2C88.7,120,94.5,120.6,99.1,120.6z"/>
			<path class="st1" d="M143.3,199.2c0,0-0.4,0.2-1,0.5H99.1v-79.1h0.1c4.7,0,10.5-0.6,10.5-0.6c0,5,0.1,10.2,0.5,15
				c0.1,1,0.2,1.9,0.3,2.9c0.2,1.6,0.4,3.2,0.6,4.7l0,0c0.1,0.7,0.2,1.3,0.3,1.9c1.1,5.5,2.9,9.1,5.6,9.1c0,0,4.3,0.5,9.5,4
				C134,162.6,143.3,174,143.3,199.2z"/>
		</g>
		<path class="st2" d="M111.1,142.6L111.1,142.6c-1.1,1.7-4.7,6.5-11.9,6.5c0,0,0,0-0.1,0c-6.8,0-10.8-5-11.8-6.5
			c0.2-1.5,0.5-3,0.6-4.6c0.1-1,0.2-1.9,0.3-2.9c3.4,0.8,7,1.4,10.8,1.4h0.1c4-0.1,7.6-0.6,11.1-1.5c0.1,1,0.2,1.9,0.3,2.9
			C110.7,139.5,110.8,141.1,111.1,142.6z"/>
		<g>
			<path class="st3" d="M99.2,29.8c-45.5,0-45.7,38.1-43.7,63.1c-3.1-5.9-12.3-4.1-11.6,5.2c0.7,9,13.8,13.6,13.6,12.6
				c3.7,20.6,25.1,32.4,41.7,32.4c0.1,0,0.2,0,0.3,0V29.8C99.5,29.8,99.4,29.8,99.2,29.8z"/>
		</g>
		<path class="st4" d="M46.8,94.2c2.3-3.6,5.7-2,6.6-1.2c0.9,0.9,1.6,2,1.1,4.1c-0.3,1.2-1.6,1.3-1.3,3.1c0.3,2,1.3,2.2,1.8,2.6
			c0.5,0.5,1.2,0.8,1.5,1.7c0.3,0.9,0.4,1.8,0.2,2.6c-0.3,1.5-2.5,0.3-3.9-0.4c-0.9-0.4-3.9-3-4.7-3.8
			C46.2,100.8,45.3,96.6,46.8,94.2z"/>
		<g>
			<path class="st5" d="M99.5,29.8c45.5,0,45.7,38.1,43.7,63.1c3.1-5.9,12.3-4.1,11.6,5.2c-0.7,9-13.8,13.6-13.6,12.6
				c-3.7,20.6-25.1,32.4-41.7,32.4c-0.1,0-0.2,0-0.3,0V29.8C99.2,29.8,99.4,29.8,99.5,29.8z"/>
		</g>
		<path class="st4" d="M151.9,94.2c-2.2-3.6-5.7-2-6.6-1.2c-0.9,0.9-1.6,2-1.1,4.1c0.3,1.2,1.6,1.3,1.3,3.1c-0.3,2-1.3,2.2-1.8,2.6
			c-0.5,0.5-1.2,0.8-1.5,1.7c-0.3,0.9-0.4,1.8-0.2,2.6c0.3,1.5,2.5,0.3,3.9-0.4c1-0.4,3.9-3,4.7-3.8
			C152.5,100.8,153.4,96.6,151.9,94.2z"/>
		<g>
			<path class="st0" d="M98.8,40.5c-15,0-25.9,4.4-32.5,13c-9.2,12-8.9,30.3-5.5,43.5c1,4,1.6,14.9,2.3,18.9
				c3.2,17.8,22.8,27.3,35.7,27.3c0.1,0,0.2,0,0.3,0V40.6C99.1,40.6,99,40.5,98.8,40.5z"/>
			<path class="st1" d="M131.3,53.5c-6.6-8.5-17.4-12.9-32.1-13v102.6c14.7-0.2,32.4-10.5,35.4-27.3c0.7-4,1.2-14.8,2.3-18.9
				C140.3,83.9,140.6,65.6,131.3,53.5z"/>
		</g>
		<path class="st6" d="M143.3,109.2c0,0.5-0.4,0.9-0.9,0.9s-0.9-0.4-0.9-0.9s0.4-0.9,0.9-0.9C142.8,108.2,143.3,108.7,143.3,109.2z"
			/>
		<path class="st6" d="M145.4,108.3c0,0.3-0.2,0.5-0.5,0.5s-0.5-0.2-0.5-0.5s0.2-0.5,0.5-0.5C145.1,107.8,145.4,108,145.4,108.3z"/>
		<path class="st6" d="M147.2,107.3c0,0.3-0.2,0.5-0.5,0.5s-0.5-0.2-0.5-0.5s0.2-0.5,0.5-0.5C147,106.7,147.2,107,147.2,107.3z"/>
		<path class="st7" d="M71.7,163.5c3.4,1.4,15.7,7.8,27.4,7.4c24.4-0.7,28.4-9.7,28.4-9.7s1,17.8-3.7,20.6s-16.5,10-24.6,9.3
			c-8.1-0.8-20.5-5.5-21.3-8.3C77.2,179.9,71.7,163.5,71.7,163.5z"/>
		<path class="st8" d="M141.1,179.5c-0.3-1.1-0.6-2.1-0.9-3.1c-3.9-11.3-10.4-17.1-15.5-20c0,0-0.1,0-0.1-0.1h-0.1
			c-0.4,1.1-5,11.8-13.1,18.5c-7.8,6.3-11.9,8.4-12.3,8.6c-0.3-0.1-4.5-2.2-12.3-8.6c-8.1-6.6-12.7-17.4-13.1-18.5c0,0,0,0-0.1,0
			l-0.1,0.1c-5.1,2.9-11.6,8.7-15.5,20c-0.3,1-0.6,2-0.9,3.1c-1.5,5.4-2.4,11.9-2.4,19.7c0,0,0.4,0.2,1.1,0.5h43.4h43.4
			c0.7-0.3,1.1-0.5,1.1-0.5C143.5,191.4,142.6,184.9,141.1,179.5z"/>
		<path class="st9" d="M55.1,102.7c-2.7-9.7-5.3-26.1-5.3-33.6s1.4-17.9,4.4-22.5c3.9-6.1,4.2-4.4,4.2-4.4s-3.9-16.7,20.5-20.4
			c4.1-0.6,9.6-0.3,9.6-0.3l-3.3,3.4c0,0,12.8-4.5,29.8-1.8c12.4,1.9,20.8,8.1,27.8,18.2c4.7,6.7,6.1,16.7,6.1,16.7l-9-12.3
			c0,0,11.6,12.7,9,32.9c-3.8,29.2-17,34.6-17,34.6s9.1-17.5,3.1-28.8c-10.1-19-28.2-19.6-28.2-19.6s16.9,1.5,21.5,20
			c0.3,1.3-0.8-5.1-8.5-8.1c-5.3-2.1-12.8-1.3-21.3-5.3C90.7,67.8,77,57.7,77,57.7s18.2,6.9,23.4,11.5c9.4,8.3,10.5,19.6,10.5,19.6
			S105.5,80,92.5,75c-7.1-2.7-20-7.5-20-7.5s9.5-0.6,16.2,5.2c5.4,4.7,3.9,14.8,2.5,16.6c0,0,0.4-7.6-15.9-12.4
			c-9.4-2.8-10.9-8.2-10.9-8.2s0.1,5.4-1.2,8.8c-1.5,4-5.6,6.6-5.9,10.2c-0.6,6.7,3,19.2,3,19.2L55.1,102.7z"/>
	</g>
</g>
</svg>
