<?xml version="1.0" encoding="utf-8"?>
<!-- Generator: Adobe Illustrator 22.0.0, SVG Export Plug-In . SVG Version: 6.00 Build 0)  -->
<svg version="1.1" id="Ebene_1" xmlns="http://www.w3.org/2000/svg" xmlns:xlink="http://www.w3.org/1999/xlink" x="0px" y="0px"
	 viewBox="0 0 200 200" style="enable-background:new 0 0 200 200;" xml:space="preserve">
<style type="text/css">
	.st0{fill:#E6C5A1;}
	.st1{fill:#F5D7B3;}
	.st2{opacity:0.7;fill:#C89F81;enable-background:new    ;}
	.st3{fill:#D8AD8B;}
	.st4{fill:#C89F81;}
	.st5{fill:#E4BEA0;}
	.st6{fill:#DECA93;}
	.st7{fill:#446E3C;}
	.st8{fill:#3E6536;}
	.st9{fill:#324F2A;}
	.st10{fill:#481C2B;}
	.st11{fill:#CA666C;}
	.st12{fill:#D96F71;}
</style>
<g id="Ebene_2_1_">
	<g>
		<g>
			<path class="st0" d="M99.1,123.2v76.5H57.7c-0.7-0.3-1-0.4-1-0.4c0.1-0.8,0.1-1.5,0.1-2.2c0.7-29.9,15.3-38.5,22-41
				c2-0.7,3.3-0.9,3.3-0.9c0.3,0,0.6-0.1,0.8-0.1c0.7-0.2,1.4-0.8,1.9-1.6c0,0,0,0,0.1-0.1c1-1.5,1.8-3.7,2.4-6.5
				c0.2-0.8,0.3-1.5,0.4-2.4c0.2-1.4,0.4-2.9,0.6-4.4c0.1-0.9,0.2-1.9,0.3-2.8c0.4-4.7,0.5-9.8,0.5-14.6
				C89,122.7,94.6,123.2,99.1,123.2z"/>
			<path class="st1" d="M141.8,199.3c0,0-0.4,0.1-1,0.4H99.1v-76.5h0.1c4.5,0,10.1-0.6,10.1-0.6c0,4.8,0.1,9.9,0.5,14.5
				c0.1,0.9,0.2,1.9,0.3,2.8c0.2,1.6,0.3,3.1,0.6,4.5l0,0c0.1,0.6,0.2,1.2,0.3,1.8c0.3,1.8,0.8,3.4,1.3,4.7c0.8,1.9,1.7,3.3,2.9,3.8
				c0.3,0.2,0.8,0.3,1.2,0.3C116.4,155.2,141.8,158.2,141.8,199.3z"/>
		</g>
		<path class="st2" d="M110.7,144.5L110.7,144.5c-1,1.7-4.5,6.3-11.5,6.3c0,0,0,0-0.1,0c-6.6,0-10.4-4.8-11.4-6.2
			c0.2-1.4,0.4-2.9,0.6-4.4c0.1-0.9,0.2-1.9,0.3-2.8c3.2,0.8,6.7,1.3,10.5,1.4h0.1c3.8-0.1,7.4-0.6,10.7-1.5
			c0.1,0.9,0.2,1.9,0.3,2.8C110.3,141.5,110.4,143.1,110.7,144.5z"/>
		<g>
			<path class="st3" d="M99.2,35.5c-43.9,0-44.2,36.9-42.2,61c-3-5.7-11.9-4-11.2,5.1c0.7,8.7,13.3,13.2,13.1,12.2
				c3.6,19.9,24.3,31.3,40.3,31.3c0.1,0,0.2,0,0.3,0V35.5C99.5,35.5,99.4,35.5,99.2,35.5z"/>
		</g>
		<path class="st4" d="M48.6,97.7c2.2-3.5,5.5-2,6.3-1.2c0.9,0.8,1.6,1.9,1,4c-0.3,1.1-1.5,1.2-1.2,3c0.3,2,1.2,2.1,1.8,2.6
			c0.5,0.4,1.2,0.8,1.5,1.6c0.3,0.8,0.4,1.7,0.2,2.5c-0.3,1.4-2.4,0.3-3.8-0.3c-0.9-0.4-3.8-2.9-4.5-3.7
			C48,104.1,47.2,100.1,48.6,97.7z"/>
		<g>
			<path class="st5" d="M99.5,35.5c43.9,0,44.2,36.9,42.2,61c3-5.7,11.9-4,11.2,5.1c-0.7,8.7-13.3,13.2-13.1,12.2
				c-3.6,19.9-24.3,31.3-40.3,31.3c-0.1,0-0.2,0-0.3,0V35.5C99.2,35.5,99.4,35.5,99.5,35.5z"/>
		</g>
		<path class="st4" d="M150.1,97.7c-2.2-3.5-5.5-2-6.3-1.2c-0.9,0.8-1.6,1.9-1,4c0.3,1.1,1.5,1.2,1.2,3c-0.3,2-1.2,2.1-1.8,2.6
			c-0.5,0.4-1.2,0.8-1.5,1.6c-0.3,0.8-0.4,1.7-0.2,2.5c0.3,1.4,2.4,0.3,3.8-0.3c0.9-0.4,3.8-2.9,4.5-3.7
			C150.7,104.1,151.5,100.1,150.1,97.7z"/>
		<g>
			<path class="st0" d="M98.9,45.9c-14.5,0-25,4.2-31.5,12.5c-8.9,11.6-8.6,29.3-5.3,42c1,3.9,1.5,14.4,2.2,18.2
				c3.1,17.2,22.1,26.4,34.5,26.4c0.1,0,0.2,0,0.3,0V45.9C99.1,45.9,99,45.9,98.9,45.9z"/>
			<path class="st1" d="M130.2,58.4c-6.4-8.3-16.8-12.5-31-12.5V145c14.2-0.2,31.3-10.2,34.2-26.3c0.7-3.8,1.2-14.3,2.2-18.2
				C138.9,87.8,139.2,70.1,130.2,58.4z"/>
		</g>
		<path class="st6" d="M114.1,199.7h26.8c0.7-0.3,1.1-0.4,1.1-0.4c-0.1-0.8-0.1-1.5-0.1-2.2c0.1-6.5,2-10-0.4-16.5
			c-2.7-7.2-0.7-7-5.2-14.7c-3.2-5.4-11-8.4-16.4-9.8c-3.3-0.9-5.6-1.2-5.6-1.2S113.3,181.4,114.1,199.7z"/>
		<path class="st6" d="M84.4,199.7H57.7c-0.7-0.3-1-0.4-1-0.4c0.1-0.8,0.1-1.5,0.1-2.2c-0.1-6.5-2-10,0.4-16.5
			c2.7-7.2,0.7-7,5.2-14.7c3.2-5.4,11-8.4,16.4-9.8c3.3-0.9,5.6-1.2,5.6-1.2S85.3,181.4,84.4,199.7z"/>
		<g>
			<path class="st7" d="M90.6,149.7c-0.3,0.1-4.7,2.2-4.7,2.2c-0.7,0.5-8.9,4.3-9.5,4.9c-3.2,2.7-0.4,8.1-2.6,11.1
				c-9.8,12.6-13.8,19.6-13,31.8h38V158L90.6,149.7z"/>
		</g>
		<g>
			<path class="st8" d="M106.8,149.7c0.3,0.1,4.7,2.2,4.7,2.2c0.6,0.5,8.8,3.9,9.5,4.5c3.2,2.7,0.4,8.4,2.7,11.4
				c9.7,12.7,13.7,19.7,12.9,31.9h-38V158L106.8,149.7z"/>
		</g>
		<path class="st9" d="M112.5,149c-1.3-6-1.9-5.5-1.9-5.5s-0.2-0.2,0.1,1.5c0.3,1.6-8.2,3.7-10.8,4.1l0,0l0,0c-0.1,0-0.3,0-0.4,0
			s-0.2,0-0.3,0h-0.1l0,0c-2.8-0.3-11.8-2.5-11.5-4.1c0.3-1.8,0.1-1.5,0.1-1.5s-0.6-0.5-1.8,5.5c-0.6,2.7-1.2,3.8-1.2,3.8
			s3,1.9,5.9,2.9c6.1,2,8.2,10.9,8.2,10.9s0-0.1,0-0.2c0,0.1,0,0.2,0,0.2s2.1-8.9,8.7-10.9c3.1-1,6.3-2.9,6.3-2.9
			S113.1,151.7,112.5,149z"/>
		<path class="st10" d="M143.9,66.4c-0.8-5.5-2-11.4-4-15.8c-3.2-7-8.9-11.1-17.3-15.1c0-0.2,0-0.3,0-0.5c0-1.8-0.3-3.5-0.7-5.2h7.5
			h0.7c0.2,1.1,1.1,1.9,2.2,1.9c1.2,0,2.2-1,2.2-2.2s-1-2.2-2.2-2.2c-1.1,0-2,0.8-2.2,1.9h-8.4C118.9,19.9,109.6,13,98.5,13
			s-20.4,6.9-23.2,16.2H55.6l0,0h-0.7c-0.2-1.1-1.1-1.9-2.2-1.9c-1.2,0-2.2,1-2.2,2.2s1,2.2,2.2,2.2c1.1,0,2-0.8,2.2-1.9h0.7h19.6
			c-0.3,1.1-0.5,2.2-0.6,3.3c-16.3,4.4-22.5,23-23.8,31.5c-0.1,0.6-0.2,1.2-0.3,1.8c-1.7,12.8-0.1,18.1,1.4,20.9
			c0.7,1.4,1.3,2.2,1.5,3c0.8,3,1.6,4,3.1,7.2c1,0.9,2.2,2.1,3,4.2c1.4,3.6,1.9,3,1.9,3S59.5,92,59.3,87.3c0-0.3,0-0.5,0-0.7
			c0-2.3,1-13.7,8.6-20.2c0.4-0.3,0.7-0.6,1.1-0.9c6.4-4.8,17.2-2.7,18.4-2.7c0.2,0,2.7,1.9,6.3,3.7c3.4,1.7,7.9,3.4,12.2,3.2
			c27.1-1.4,32.8,13.2,33.4,16.2c0,0.5-0.1,1-0.1,1.5c-0.3,3.8-0.7,8.1-1,11.1c-0.5,3.5-0.9,6.4-0.9,6.4s0.6,0.6,1.9-3
			c0.7-1.8,1.7-2.9,2.5-3.7c0.1-2,2-7.1,2.3-7.7c0.2-0.5,0.5-1.6,0.6-3c0.3-2.2,0.5-5.1,0.5-6.9C145.1,78.8,144.8,73,143.9,66.4z"/>
		<path class="st11" d="M110.2,124.2c0,0-4.9,5.2-10.9,5.2s-10.6-5.1-10.6-5.1s4.6-0.8,10.6-0.8
			C105.3,123.5,110.2,124.2,110.2,124.2z"/>
		<path class="st12" d="M102.4,121.8c-1.7,0-3.1,1.1-3.1,2.4c0-1.3-1.4-2.4-3.1-2.4s-7.8,2.4-7.8,2.4s6,0.6,7.7,0.6s3.2,0.7,3.2-0.6
			c0,1.3,1.3,0.8,2.9,0.8c1.7,0,8-0.8,8-0.8S104.1,121.8,102.4,121.8z"/>
	</g>
</g>
</svg>
