<?xml version="1.0" encoding="utf-8"?>
<!-- Generator: Adobe Illustrator 22.0.0, SVG Export Plug-In . SVG Version: 6.00 Build 0)  -->
<svg version="1.1" id="Ebene_1" xmlns="http://www.w3.org/2000/svg" xmlns:xlink="http://www.w3.org/1999/xlink" x="0px" y="0px"
	 viewBox="0 0 200 200" style="enable-background:new 0 0 200 200;" xml:space="preserve">
<style type="text/css">
	.st0{fill:#E6C5A1;}
	.st1{fill:#F5D7B3;}
	.st2{opacity:0.7;fill:#C89F81;enable-background:new    ;}
	.st3{fill:#D8AD8B;}
	.st4{fill:#C89F81;}
	.st5{fill:#E4BEA0;}
	.st6{fill:#481C2B;}
	.st7{fill:#E5C87B;}
	.st8{fill:#AD7453;}
	.st9{fill:#FAFAFB;}
	.st10{fill:#FFFFFF;}
	.st11{fill:#F0D896;}
</style>
<g id="Ebene_2_1_">
	<g>
		<g>
			<path class="st0" d="M99.2,129.7v70H56.9c-0.7-0.3-1-0.4-1-0.4c0-37.5,25.9-40.3,25.9-40.3s0,0,0.1,0c2.6-0.1,4.2-3,5.3-7.5
				c0.2-0.7,0.3-1.4,0.4-2.2c0.2-1.3,0.4-2.6,0.6-4.1c0.1-0.8,0.2-1.7,0.3-2.6c0.4-4.3,0.5-9,0.5-13.4
				C88.9,129.2,94.6,129.7,99.2,129.7z"/>
			<path class="st1" d="M142.6,199.1v0.2c0,0-0.2,0.1-0.6,0.2l0,0c-0.1,0.1-0.3,0.1-0.4,0.2H99.2v-70h0.1c4.6,0,10.3-0.5,10.3-0.5
				c0,4.4,0.1,9,0.5,13.3c0.1,0.9,0.2,1.7,0.3,2.5c0.2,1.5,0.4,2.9,0.6,4.2l0,0c0.1,0.6,0.2,1.1,0.3,1.6c1.1,4.8,2.8,8.1,5.5,8.1
				c0,0,3.8,0.4,8.5,3C132.8,166.2,142.5,176.1,142.6,199.1z"/>
		</g>
		<path class="st2" d="M109.6,149.2L109.6,149.2c-0.9,1.5-4.2,5.8-10.5,5.8c0,0,0,0-0.1,0c-6,0-9.6-4.4-10.5-5.7
			c0.2-1.3,0.4-2.6,0.5-4.1c0.1-0.8,0.2-1.7,0.2-2.6c3,0.7,6.2,1.2,9.6,1.3H99c3.5-0.1,6.8-0.5,9.8-1.4c0.1,0.9,0.2,1.7,0.2,2.5
			C109.2,146.5,109.4,147.9,109.6,149.2z"/>
		<g>
			<path class="st3" d="M99.1,49.4c-40.2,0-40.5,33.7-38.7,55.8c-2.8-5.2-10.9-3.6-10.2,4.6c0.6,7.9,12.2,12,12,11.1
				c3.3,18.2,22.2,28.7,36.9,28.7c0.1,0,0.2,0,0.3,0V49.4C99.3,49.4,99.2,49.4,99.1,49.4z"/>
		</g>
		<path class="st4" d="M52.8,106.4c2-3.2,5.1-1.8,5.8-1.1c0.8,0.8,1.4,1.8,0.9,3.7c-0.3,1.1-1.4,1.1-1.1,2.8
			c0.3,1.8,1.1,1.9,1.6,2.3s1.1,0.7,1.4,1.5c0.3,0.8,0.3,1.6,0.2,2.3c-0.3,1.3-2.2,0.3-3.5-0.3c-0.8-0.4-3.5-2.6-4.2-3.4
			C52.2,112.2,51.4,108.5,52.8,106.4z"/>
		<g>
			<path class="st5" d="M99.3,49.4c40.2,0,40.5,33.7,38.7,55.8c2.8-5.2,10.9-3.6,10.2,4.6c-0.6,7.9-12.2,12-12,11.1
				c-3.3,18.2-22.2,28.7-36.9,28.7c-0.1,0-0.2,0-0.3,0V49.4C99.1,49.4,99.2,49.4,99.3,49.4z"/>
		</g>
		<path class="st4" d="M145.7,106.4c-2-3.2-5.1-1.8-5.8-1.1c-0.8,0.8-1.4,1.8-0.9,3.7c0.3,1.1,1.4,1.1,1.1,2.8
			c-0.3,1.8-1.1,1.9-1.6,2.3s-1.1,0.7-1.4,1.5c-0.3,0.8-0.3,1.6-0.2,2.3c0.3,1.3,2.2,0.3,3.5-0.3c0.8-0.4,3.5-2.6,4.2-3.4
			C146.2,112.2,147,108.5,145.7,106.4z"/>
		<g>
			<path class="st0" d="M98.8,58.9c-13.2,0-22.9,3.8-28.8,11.5c-8.2,10.6-7.9,26.8-4.8,38.5c0.9,3.6,1.4,13.1,2,16.7
				c2.9,15.7,20.2,24.1,31.6,24.1c0.1,0,0.2,0,0.3,0V59C99,59,98.9,58.9,98.8,58.9z"/>
			<path class="st1" d="M127.5,70.4C121.7,62.9,112.1,59,99.1,59v90.7c13-0.1,28.6-9.3,31.3-24.1c0.6-3.5,1.1-13.1,2-16.7
				C135.4,97.3,135.7,81.1,127.5,70.4z"/>
		</g>
		<path class="st6" d="M128.8,159.3c-4.5,5.4-9.4,10.6-14.8,15.2c-7.8,6.8-12,15.6-14.1,23.8c0-0.1-0.1-0.2-0.1-0.3
			c-0.3-1.2-0.7-2.4-1.1-3.7l0,0c-2.4-7-6.4-14.1-12.9-19.8c-5.7-4.9-10.9-10.4-15.5-16.1c2.1-2.2,4.2-4.1,6-5.4
			c1.9-1.3,3.2-2.4,4.3-3.3l0,0c2.2,0.6,4.4,1.1,6.6,1.4c4.6,0.9,9.1,1.3,13.2,1.2c3.6-0.1,7.1-0.4,10.7-1.1
			c2.3-0.4,4.5-0.9,6.7-1.5l0,0c1.1,0.9,2.4,1.9,4.2,3.1C123.9,154.5,126.4,156.9,128.8,159.3z"/>
		<path class="st7" d="M142.6,199.1c-0.2,0.1-0.4,0.2-0.6,0.4l0,0c-0.1,0.1-0.3,0.1-0.4,0.2H56.9c-0.7-0.3-1-0.4-1-0.4
			c0-16.7,5.1-26.5,10.8-32.3c7.1-7.2,15.1-8.1,15.1-8.1s0,0,0.1,0c1.8,4.2,0.4,3.4,1.7,6.9c0.5,1.4,1.7,2.7,3.2,3.9
			c2,4.1,4.8,8.7,8.2,12.4c2.3,2.5,3.5,5.7,4.1,8.6c0.6-3,1.8-6.2,4.1-8.6c3.3-3.7,6.2-8.2,8.1-12.2c1.8-1,3.3-2.1,4.3-2.8
			c0.7-0.5,1.3,4.3,2,3.6c2.4-2.3,5.2-5.6,7.7-8.7c2.1,1.2,4.4,2.8,6.6,5.1c2,2,3.9,4.5,5.5,7.7
			C140.4,180.5,142.6,188.4,142.6,199.1z"/>
		<path class="st8" d="M99.7,199.1c0,0.4,0,0.6,0,0.6l-0.6-0.3l-0.7-0.3L70.3,185l10.1-11.8c0,0-4.3-4.1-6.8-5.9
			c-1.2-0.9-4.1-0.7-6.8-0.2c-3,0.5-6,1.2-6.2,1.3c0.4-0.5,4.9-6.2,9.7-11c2.1-2.2,4.2-4.1,6-5.4c1.9-1.3,3.2-2.4,4.3-3.3l0,0
			c1-0.8,1.7-1.4,2.5-2c1.4,0.5,2.9,1,4.3,1.4c-0.1,0.7-0.1,1.4-0.2,2.1c-0.1,1.1-0.2,2.2-0.4,3.1c-0.5,3.2-3,6.5-2.6,9.2
			c0.3,2,1.2,4.6,2.6,7.5c2,4.1,4.8,8.7,8.2,12.4c2.3,2.5,3.5,5.7,4.1,8.6c0.5,2.2,0.7,4.4,0.7,6C99.7,197.8,99.7,198.5,99.7,199.1z
			"/>
		<path class="st8" d="M117.7,173.2l10.1,11.8l-28.1,14.1l-0.7,0.3l-0.6,0.3c0,0,0-0.2,0-0.6c-0.1-1-0.1-3.3,0.2-5.9l0,0
			c0.1-0.7,0.2-1.5,0.4-2.3c0.6-3,1.8-6.2,4.1-8.6c3.3-3.7,6.2-8.2,8.1-12.2c1.4-2.9,2.3-5.7,2.7-7.7c0.5-2.7-2.1-6-2.6-9.2
			c-0.1-0.9-0.2-1.9-0.4-3c-0.1-0.7-0.1-1.4-0.2-2c1.5-0.4,3-0.9,4.5-1.4c0.7,0.5,1.4,1.2,2.4,2l0,0c1.1,0.9,2.4,1.9,4.2,3.1
			c2,1.4,4.5,3.8,6.9,6.2c4.4,4.6,8.5,9.7,8.8,10.2c-0.2,0-2.8-0.8-5.7-1.2c-2.9-0.5-6.1-0.7-7.3,0.2
			C122,169.1,117.7,173.2,117.7,173.2z"/>
		<path class="st9" d="M115.9,135.4c-0.2-0.8-0.6-1.6-1-2.3c-1.7-7-8.3-12.3-16.3-12.7l0,0c-0.1,0-0.3,0-0.4,0s-0.3,0-0.4,0l0,0
			c-8,0.4-14.6,5.7-16.3,12.7c-0.4,0.7-0.8,1.4-1,2.3c-1.3,4.4-1.9,7.8,1.5,18.3l0,0c0,0.1,15.1,25.4,32.6,0l0,0
			C117.7,143.2,117.2,139.8,115.9,135.4z M95.5,131.1c0.8-0.1,1.7-0.2,2.6-0.2s1.7,0.1,2.6,0.2c4.7,0.8,6.9,3.2,9.5,6.7
			c-0.8,0.3,0.1,0.5-0.8,0.6c-2.7,0.3-8.9-0.7-10.9-1.1v-0.1h-0.1l0,0c0,0-0.1,0-0.3,0.1c-0.2,0-0.3-0.1-0.3-0.1l0,0h-0.1v0.1
			c-2.1,0.4-8.2,1.4-10.9,1.1c-0.9-0.1,0.1-0.3-0.8-0.6C88.7,134.4,90.9,131.9,95.5,131.1z"/>
		<path class="st10" d="M137.9,51.7c-4.1-3.8-9.3-5.2-9.3-5.2s-11.5-5.8-20.3-9.9s-23-0.8-30.4,1.1C70.5,39.6,61.7,50.2,59,55.9
			c-2.7,5.8-9.6,18.3-11.7,27.3C45,92.3,52.4,101.1,57,103c3,1.2,3.2,8.3,3.2,8.3l3.3,1.4c0,0-2-4.9-1.7-9.9
			c0.2-3.3-0.3-13.2-0.3-13.2s14.1-2.8,24.4-5.6c-3.5,4.3-6.4,7.2-6.4,7.2c6.1-2.1,10.9-5.5,14.7-9.4C89,89.3,83,95.4,83,95.4
			c8.2-2.8,14.2-8.2,18.5-13.7c-5.6,9.5-14.2,18.2-14.2,18.2c19.5-6.7,26.4-27.7,27.3-30.7c0.1,0,0.1-0.1,0.2-0.1
			c2.5,0.6,6.6,2.1,11.7,5.8c5.2,3.9,11.6,9.2,11.6,20.7c0,3.9-1.7,15.1-1.7,15.1l1.7-1.2c0,0,0-4.4,4.9-7.1
			c3.9-2.2,4.9-9.6,4.9-12.6C147.8,69.4,142,55.5,137.9,51.7z"/>
		<path class="st7" d="M99.8,76.2c-43.7,0-79.2-8.9-79.2-20c0-0.4,0.1-0.8,0.2-1.3c-2.5,5.2-1.3,12.7,12.7,22.6
			c0,0,21.2,17.2,94.4,14.4c0,0,52.9-2.6,51.2-35.1C177.6,67.6,142.7,76.2,99.8,76.2z"/>
		<path class="st8" d="M99.8,76.2c42.9,0,77.8-8.6,79.2-19.3c0-0.7-0.1-1.5-0.2-2.2c0-0.1-0.1-0.2-0.1-0.3c-0.8,10.5-35,19-77.1,19
			C59,73.3,24.5,64.6,24.5,54c0-2.6,2.1-5.1,5.9-7.4c-0.7,0.3-1.3,0.6-2,1c-2.3,1.3-5.9,3.7-7.7,7.4c-0.1,0.4-0.2,0.8-0.2,1.3
			C20.6,67.2,56,76.2,99.8,76.2z"/>
		<path class="st11" d="M80.6,35.4C57.9,37,39.4,41.1,30.5,46.5l0,0l0,0c0,0,0,0-0.1,0c-3.8,2.3-5.9,4.8-5.9,7.4
			c0,7.7,18,14.4,44,17.5c-0.1-0.2-0.3-0.4-0.5-0.6C68.1,70.8,72.9,52.4,80.6,35.4z"/>
		<path class="st11" d="M178.7,54c0-8.7-22.8-16-54.1-18.5c2.4,9,4.6,20.7,6.1,36.2c0,0-0.2,0.1-0.6,0.3c28.1-2.8,48-9.6,48.6-17.6
			c0-0.1-0.1-0.2-0.1-0.4H178.7z"/>
		<path class="st7" d="M124.6,35.5c-9.2-34.1-22.8-28-22.8-28c-8.2,3.4-15.5,15.3-21.2,27.9c-7.7,17.1-12.5,35.5-12.5,35.5
			c0.1,0.2,0.3,0.4,0.5,0.6c10,1.2,21.2,1.9,33.1,1.9c10.1,0,19.7-0.5,28.5-1.4c0.4-0.2,0.6-0.3,0.6-0.3
			C129.1,56.3,127,44.5,124.6,35.5z"/>
	</g>
</g>
</svg>
