<?xml version="1.0" encoding="utf-8"?>
<!-- Generator: Adobe Illustrator 22.0.0, SVG Export Plug-In . SVG Version: 6.00 Build 0)  -->
<svg version="1.1" id="Ebene_1" xmlns="http://www.w3.org/2000/svg" xmlns:xlink="http://www.w3.org/1999/xlink" x="0px" y="0px"
	 viewBox="0 0 200 200" style="enable-background:new 0 0 200 200;" xml:space="preserve">
<style type="text/css">
	.st0{fill:#5E1715;}
	.st1{fill:#E6C5A1;}
	.st2{fill:#F5D7B3;}
	.st3{opacity:0.7;fill:#C89F81;enable-background:new    ;}
	.st4{fill:#D8AD8B;}
	.st5{fill:#C89F81;}
	.st6{fill:#E4BEA0;}
	.st7{fill:#CA666C;}
	.st8{fill:#D96F71;}
	.st9{fill:none;stroke:#F6CD00;stroke-width:0.25;stroke-miterlimit:10;}
	.st10{fill:#9C1915;}
	.st11{fill:#644E53;}
</style>
<g id="Ebene_2_1_">
	<g>
		<path class="st0" d="M153.1,86.7c0,0,3,27.2-2.3,39.2c-5.3,12.1-14,26.2-22.7,30.4c-8.7,4.3-33,5.1-47.8,12.4
			c-14.8,7.3-23.8,10.5-23.2,16.8s5.5,8.9,5.5,8.9s-17.9-6.1-17.9-18.7c0-12.6,6.8-18.2,10.9-24.3c12.5-18.7,3-44.1,3-44.1
			s13.2-47.7,14.5-47.6c1.3,0.1,44.5-15.9,49.8-12.4C128.3,51,153.1,86.7,153.1,86.7z"/>
		<g>
			<path class="st1" d="M108.1,123.2v76.5H66.7c-0.7-0.3-1-0.4-1-0.4c0-6.8,0.7-12.6,1.9-17.5c5.8-24.5,23.5-26.6,23.5-26.6h0.2
				c0.2,0,0.4-0.1,0.6-0.1c2.1-0.6,3.5-3.7,4.5-8.1c0.2-0.8,0.3-1.5,0.4-2.4c0.2-1.4,0.4-2.9,0.6-4.4c0.1-0.9,0.2-1.9,0.3-2.8
				c0.4-4.7,0.5-9.8,0.5-14.6C98,122.7,103.6,123.2,108.1,123.2z"/>
			<path class="st2" d="M150.8,199.3c0,0-0.4,0.2-1,0.4h-41.7v-76.5h0.1c4.5,0,10.1-0.6,10.1-0.6c0,4.8,0.1,9.9,0.5,14.5
				c0.1,0.9,0.2,1.9,0.3,2.8c0.2,1.6,0.3,3.1,0.6,4.6l0,0c0.1,0.6,0.2,1.2,0.3,1.8c0.9,4.3,2.1,7.4,4,8.5c0.1,0.1,0.3,0.1,0.4,0.2
				c0.3,0.1,0.6,0.2,0.9,0.2c0,0,0.3,0,0.8,0.1c2.7,0.6,11.6,3.3,17.8,14.1C147.9,175.9,150.8,185.4,150.8,199.3z"/>
		</g>
		<path class="st3" d="M119.7,144.5L119.7,144.5c-1,1.7-4.5,6.3-11.5,6.3c0,0,0,0-0.1,0c-6.6,0-10.5-4.8-11.4-6.2
			c0.2-1.4,0.4-2.9,0.6-4.4c0.1-0.9,0.2-1.9,0.3-2.8c3.2,0.8,6.7,1.3,10.5,1.4h0.1c3.8-0.1,7.4-0.6,10.7-1.5
			c0.1,0.9,0.2,1.9,0.3,2.8C119.3,141.6,119.4,143.1,119.7,144.5z"/>
		<g>
			<path class="st4" d="M108.1,41.1C64.8,41,64.5,75.8,66.5,98.6c-3-5.3-11.7-3.4-11,5.2c0.7,8.2,13.1,11.9,12.9,11
				c3.5,18.5,24,28.8,39.7,30.3c0.1,0,0.2,0,0.3,0c0-34.7,0-69.3,0-104C108.3,41.1,108.2,41.1,108.1,41.1z"/>
		</g>
		<path class="st5" d="M57.6,100.2c2.2-3.3,5.5-1.9,6.3-1.2c0.9,0.8,1.6,1.8,1,3.8c-0.3,1.1-1.5,1.2-1.2,2.9c0.3,1.9,1.2,2,1.8,2.4
			c0.5,0.4,1.2,0.7,1.5,1.5s0.4,1.6,0.2,2.4c-0.3,1.3-2.4,0.3-3.8-0.3c-0.9-0.4-3.8-2.7-4.5-3.5C57,106.2,56.2,102.3,57.6,100.2z"/>
		<g>
			<path class="st6" d="M108.3,41.1c43.3-0.1,43.5,34.8,41.6,57.5c3-5.3,11.8-3.4,11,5.2c-0.7,8.2-13.1,11.9-12.9,11
				c-3.5,18.5-24,28.8-39.7,30.3c-0.1,0-0.2,0-0.3,0c0-34.7,0-69.3,0-104C108.1,41.1,108.2,41.1,108.3,41.1z"/>
		</g>
		<path class="st5" d="M159.1,100.2c-2.2-3.3-5.5-1.9-6.4-1.2c-0.9,0.8-1.6,1.8-1,3.8c0.3,1.1,1.5,1.2,1.2,2.9
			c-0.3,1.9-1.2,2-1.8,2.4c-0.5,0.4-1.2,0.7-1.5,1.5s-0.4,1.6-0.2,2.4c0.3,1.3,2.4,0.3,3.8-0.3c0.9-0.4,3.8-2.7,4.5-3.5
			C159.7,106.2,160.5,102.3,159.1,100.2z"/>
		<g>
			<path class="st1" d="M107.9,50.9c-14.5,0-25,4-31.5,11.9c-8.9,11-8.6,27.8-5.3,39.9c1,3.7,1.5,13.6,2.2,17.3
				c3.1,16.3,22.1,25,34.5,25c0.1,0,0.2,0,0.3,0V50.9C108.1,50.9,108,50.9,107.9,50.9z"/>
			<path class="st2" d="M139.2,62.8c-6.4-7.8-16.8-11.8-31-11.9V145c14.2-0.2,31.3-9.7,34.2-25c0.7-3.7,1.2-13.6,2.2-17.3
				C147.9,90.7,148.2,73.9,139.2,62.8z"/>
		</g>
		<path class="st7" d="M115.5,130.3c0,0-3.3,3.5-7.3,3.5s-7.1-3.4-7.1-3.4s3.1-0.5,7.1-0.5C112.2,129.8,115.5,130.3,115.5,130.3z"/>
		<path class="st8" d="M110.2,128.7c-1.1,0-2,0.7-2.1,1.6c0-0.9-0.9-1.6-2.1-1.6c-1.1,0-5.2,1.6-5.2,1.6s4,0.4,5.1,0.4
			s2.1,0.4,2.2-0.4c0,0.9,0.8,0.5,2,0.5c1.1,0,5.3-0.6,5.3-0.6S111.4,128.7,110.2,128.7z"/>
		<path class="st9" d="M69.7,117.1c0,1.7-1.4,3-3,3c-1.7,0-3-1.4-3-3c0-1.7,1.4-3,3-3C68.3,114,69.7,115.4,69.7,117.1z"/>
		<path class="st9" d="M150.8,117.1c0,1.7-1.4,3-3,3c-1.7,0-3-1.4-3-3c0-1.7,1.4-3,3-3C149.4,114,150.8,115.4,150.8,117.1z"/>
		<path class="st10" d="M63.2,94.7c0,0,0.3,1.1,0.9,3c0.5,1.9,1.2,4.7,1.7,8c0.3,1.7,0.5,3.5,0.6,5.5s0.2,4,0.1,6.2
			s-0.3,4.4-0.7,6.7c-0.1,1.1-0.4,2.3-0.7,3.4l-0.5,1.7l-0.1,0.4v0.1l-0.1,0.3l-0.1,0.2L64,131l-1.2,3.1c-0.4,1-1.1,2.1-1.7,3.2
			c-1.1,2.2-2.6,3.9-3.9,5.7c-1.5,1.6-2.9,3.2-4.4,4.5s-2.9,2.5-4.4,3.4c-1.4,1-2.7,1.8-3.9,2.5s-2.3,1.3-3.1,1.7
			c-1.8,0.9-2.8,1.3-2.8,1.3s0.8-0.8,2.1-2.2c1.4-1.4,3.4-3.4,5.6-5.8c1.2-1.2,2.3-2.6,3.5-3.9c1.2-1.4,2.2-3,3.5-4.6
			c1-1.7,2.2-3.4,2.9-5.2c0.4-0.9,0.9-1.7,1.3-2.7l1.2-3.1l0.3-0.8l0.1-0.2v-0.1c-0.1,0.3,0,0.1,0,0.1v-0.1l0.1-0.4l0.4-1.5
			c0.3-1,0.6-2,0.8-3s0.5-2,0.7-3s0.3-2,0.5-3c0.3-2,0.5-3.9,0.7-5.8c0.1-1.9,0.3-3.6,0.4-5.3c0.2-3.3,0.4-6.1,0.5-8.1
			C63,95.8,63.2,94.7,63.2,94.7z"/>
		<path class="st10" d="M65,117.1c0,0,0.4,1.1,1,3.1c0.2,1,0.8,2.2,0.8,3.7c0.1,1.5,0.4,3.3,0.2,5.2c-0.2,1.8-0.2,4-0.9,6
			c-0.3,1.1-0.6,2.1-0.9,3.2c-0.4,1.1-0.9,2.1-1.4,3.2c-0.9,2.2-2.2,4.2-3.4,6.3c-1.3,2-2.7,4-4.2,5.8s-3,3.7-4.5,5.3
			c-1.5,1.7-2.8,3.3-4.1,4.8c-2.5,3.1-4.3,6-4.7,8.8c-0.3,1.4-0.2,2.8-0.1,4c0.1,0.6,0.3,1.2,0.4,1.8c0.2,0.6,0.3,1.1,0.5,1.5
			c0.3,1,0.7,1.7,0.9,2.2s0.3,0.8,0.3,0.8s-0.2-0.2-0.7-0.5c-0.4-0.4-1.2-0.8-1.9-1.6c-0.4-0.4-0.8-0.8-1.3-1.3
			c-0.4-0.5-0.8-1.1-1.3-1.8c-0.4-0.7-0.8-1.5-1.1-2.3c-0.3-0.9-0.6-1.8-0.7-2.9c-0.3-2.1-0.1-4.4,0.5-6.7c0.6-2.2,1.6-4.4,2.8-6.5
			c1.2-2,2.5-4,3.9-5.8c1.4-1.9,2.8-3.6,4.2-5.4c1.4-1.7,2.7-3.5,4.1-5.2c1.2-1.8,2.6-3.4,3.6-5.1c0.5-0.8,1.1-1.7,1.6-2.5
			s0.9-1.7,1.3-2.5c0.5-0.8,0.9-1.6,1.2-2.4c0.3-0.8,0.7-1.6,1-2.3c0.6-1.5,0.9-2.9,1.4-4.2c0.5-1.3,0.6-2.6,0.8-3.6
			C64.7,118.2,65,117.1,65,117.1z"/>
		<path class="st11" d="M154.2,180c0,0-12-23.8-28.8-24.8c-0.4,0,12.5,18.9-4.7,23.3c-4.2,1.1-8.5,1.5-12.4,1.3l0,0l0,0
			c-3.9,0.1-8.1-0.2-12.4-1.3c-17.2-4.4-4.3-23.4-4.7-23.3c-16.8,1-28.8,24.8-28.8,24.8l5.3,1.8l7.5,2.5c0,0-2.6,6.8-2.8,15.4h35.9
			h35.9c-0.1-8.5-2.8-15.4-2.8-15.4l7.5-2.5L154.2,180z"/>
		<path class="st10" d="M151.7,99.1c0,0,0.1,0.3,0.4,0.7c0.3,0.5,0.7,1.1,1,2.1c0.4,1,0.7,2.2,0.8,3.7s0.1,3.2-0.3,4.9
			c-0.6,3.6-2.4,7.4-4.6,11.1c-1.1,1.9-2.3,3.7-3.5,5.5s-2.4,3.7-3.6,5.5c-1.2,1.9-2.3,3.7-3.5,5.5c-1,1.9-2.3,3.6-3.1,5.4
			c-0.5,0.9-0.9,1.8-1.4,2.6c-0.4,0.9-0.8,1.7-1.2,2.6c-0.8,1.7-1.2,3.3-1.8,4.9c-0.6,1.5-0.7,3-1.1,4.3c-0.4,1.3-0.5,2.5-0.6,3.4
			c-0.3,1.9-0.5,3.1-0.5,3.1s-0.3-1.1-0.7-3.1c-0.2-1-0.5-2.2-0.4-3.6c0-1.4-0.2-3,0.1-4.8c0.3-1.7,0.3-3.7,1-5.6c0.3-1,0.6-2,0.8-3
			c0.3-1,0.8-2,1.2-3c1.6-4.1,3.9-8.1,6.4-11.9c1.2-1.8,2.5-3.8,3.8-5.6c1.3-1.7,2.6-3.4,3.9-5.1c2.4-3.3,4.5-6.4,5.7-9.3
			c0.6-1.4,1-2.8,1.3-4.1c0.2-1.3,0.3-2.4,0.3-3.3s-0.1-1.7-0.2-2.3C151.7,99.4,151.7,99.1,151.7,99.1z"/>
		<path class="st0" d="M62.1,69.1C62,60.6,65.7,57.9,68,53.7c2.3-4.1,7.5-9.1,9.9-11.1c2.3-2,4.8-4.6,4.8-4.6s3.9-3,9.3-4.2
			s7,0.2,12,2.1c0.6,0.3,1.2,0.5,1.7,0.7c3.1-2.9,3.1-3.1,6.5-4.5c6.5-2.5,10.2,1.2,10.2,1.2l-3.8,0.6c0,0,6.1-0.8,11.1,2.5
			c5,3.4,6.8,6.1,6.8,6.1s-7.2-1.6-2.6,0c4.7,1.6,8.8,4.2,12.5,7.6c3.8,3.3,7.7,8.1,9.5,13s-0.9-2.6-4.5-5.3
			c-3.6-2.8-6.5-3.7-6.5-3.7s4.9,4.9,9.2,14.8C157,75,159.6,83,158.8,96c-1.4,20.9-11.3,28.5-11.3,28.5s2.3-2.4,3.2-5.7
			c0.9-3.2,0.5-7.3,0.4-6.8c-0.2,1-9.9,15.4-9.9,15.4s7.8-11.2,4.9-25.7c-1.1-5.2-3.9-8.4-5.2-10c-0.4-0.5-0.7-1-1-1.5
			c-4.7,6-13.7,8.6-13.7,8.6s5.8-6.2,6.5-10.7s0.4-13.9-4.6-19.3c-0.7-0.7-1.5-1.5-2.3-2.2c2.3,5.2,2.2,10.1-0.1,15.1
			c-1.1,2.5-3.1,4.4-5,5.8c-5.1,4.4-12.8,7.1-21.5,7.1c-4.2,0-8.1-0.6-11.7-1.8l0,0l0,0c-0.6-0.2-1.2-0.4-1.8-0.6
			c-6.2-2-25.6-6.1-16.3,24l0.1,0.4l0,0c1.3,6.7,5.2,15.1,5.2,15.1s-4.8-8.6-8.8-15.7c-3.9-7.1-4.4-13.7-4.1-22.7
			c0.1-1.8,0.2-3.5,0.4-5c-0.4,0.6-0.9,1.1-1.3,1.5c-3.2,2.8-5.8,2.7-5.8,2.7S62.4,88.3,62.1,69.1z"/>
	</g>
</g>
</svg>
