<?xml version="1.0" encoding="utf-8"?>
<!-- Generator: Adobe Illustrator 22.0.0, SVG Export Plug-In . SVG Version: 6.00 Build 0)  -->
<svg version="1.1" id="Ebene_1" xmlns="http://www.w3.org/2000/svg" xmlns:xlink="http://www.w3.org/1999/xlink" x="0px" y="0px"
	 viewBox="0 0 200 200" style="enable-background:new 0 0 200 200;" xml:space="preserve">
<style type="text/css">
	.st0{fill:#611B1A;}
	.st1{fill:#E39720;}
	.st2{fill:#E6C5A1;}
	.st3{fill:#F5D7B3;}
	.st4{opacity:0.7;fill:#C89F81;enable-background:new    ;}
	.st5{fill:#D8AD8B;}
	.st6{fill:#C89F81;}
	.st7{fill:#E4BEA0;}
	.st8{fill:#CA666C;}
	.st9{fill:#D96F71;}
	.st10{fill:#111111;}
	.st11{fill:none;}
	.st12{fill:#070707;}
	.st13{fill:#F7AE2B;}
	.st14{fill:#A01A1B;}
	.st15{fill:#C15A64;}
</style>
<g id="Ebene_2_1_">
	<g>
		<path class="st0" d="M178.4,92.4c0,12.5-38.1,41.8-79.1,41.8c-40.9,0-79.1-25.3-79.1-37.8C20.3,83.9,57,79,98,79
			S178.4,79.9,178.4,92.4z"/>
		<path class="st1" d="M104.5,101.3c-1.7,5.9-3.7,12.6-7.5,19.3c-3.8,6.7-15.2,15.3-15.6,24.5c-0.9,19.8,27.1,29.1,38.3,32.5
			c11.3,3.4,15,3.7,16.3,8.6c1.2,4.9,0.2,13,0.2,13s9.5-5.2,12.2-9.2c5.7-8.6-0.5-14.4-0.5-14.4s-2.3,2,0.4,6.5
			c2.8,4.5,2.8,8.6,1.7,9.7c-1,1.2-4.5,4.9-4.5,4.9s17.4-4.9,14-19.1c-0.6-2.4-2.2-0.6,0,0c4.8,1.5,3.9,9.5,3.9,9.5
			s11.8-15.3-12.1-24c-2.3-0.8-14.6-3.9-15.9-14.1c-0.7-5.7,3.4-6.1,4.2-13.1c1-8.9-11.8-7.1-16.7-15.5c-0.9-1.6,3.7-2.5,0-6.9
			c-4.5-5.3-6.1-4.8-12.5-8C104.1,102.5,104.5,101.3,104.5,101.3z"/>
		<g>
			<path class="st2" d="M99.8,123.3v76.4H58.4c-0.7-0.3-1-0.4-1-0.4c0-11.4,1.9-19.8,4.8-26.1c4.6-10.3,11.7-14.8,16.2-16.6
				c2.6-1.1,4.4-1.3,4.4-1.3H83c0.2,0,0.4-0.1,0.6-0.1c2.1-0.6,3.5-3.7,4.5-8.1c0.2-0.8,0.3-1.5,0.4-2.4c0.2-1.4,0.4-2.9,0.6-4.4
				c0.1-0.9,0.2-1.8,0.3-2.8c0.4-4.7,0.5-9.8,0.5-14.6C89.7,122.8,95.3,123.3,99.8,123.3z"/>
			<path class="st3" d="M142.4,199.3c0,0-0.4,0.1-1,0.4H99.8v-76.4h0.1c4.5,0,10.1-0.6,10.1-0.6c0,4.8,0.1,9.8,0.5,14.5
				c0.1,0.9,0.2,1.9,0.3,2.8c0.2,1.6,0.3,3.1,0.6,4.5v0.1c0.1,0.6,0.2,1.2,0.3,1.8c0.9,4.3,2.1,7.4,4,8.5c0.1,0.1,0.3,0.1,0.4,0.2
				c0.3,0.1,0.6,0.2,0.9,0.2c0,0,12.8,1.5,20.2,17.1C140.3,178.7,142.4,187.4,142.4,199.3z"/>
		</g>
		<path class="st4" d="M111.3,144.6L111.3,144.6c-1,1.7-4.5,6.3-11.5,6.3c0,0,0,0-0.1,0c-6.6,0-10.4-4.8-11.4-6.2
			c0.2-1.4,0.4-2.9,0.6-4.4c0.1-0.9,0.2-1.9,0.3-2.8c3.2,0.8,6.7,1.3,10.5,1.4h0.1c3.8-0.1,7.4-0.6,10.7-1.5
			c0.1,0.9,0.2,1.9,0.3,2.8C110.9,141.6,111.1,143.2,111.3,144.6z"/>
		<g>
			<path class="st5" d="M99.8,41.3C56.5,41.2,56.3,76,58.2,98.7c-3-5.3-11.7-3.4-11,5.2c0.7,8.2,13.1,11.9,12.9,11
				c3.5,18.5,23.9,28.8,39.7,30.2c0.1,0,0.2,0,0.3,0c0-34.6,0-69.2,0-103.8C100,41.3,99.9,41.3,99.8,41.3z"/>
		</g>
		<path class="st6" d="M49.4,100.3c2.2-3.3,5.5-1.9,6.3-1.1c0.9,0.8,1.6,1.8,1,3.8c-0.3,1.1-1.5,1.2-1.2,2.8c0.3,1.9,1.2,2,1.8,2.4
			c0.5,0.4,1.2,0.8,1.5,1.5c0.3,0.8,0.4,1.6,0.2,2.4c-0.3,1.4-2.4,0.3-3.8-0.3c-0.9-0.4-3.8-2.7-4.5-3.5
			C48.8,106.3,47.9,102.5,49.4,100.3z"/>
		<g>
			<path class="st7" d="M100,41.3c43.2-0.1,43.5,34.7,41.6,57.4c3-5.3,11.7-3.4,11,5.2c-0.7,8.2-13.1,11.9-12.9,11
				c-3.5,18.5-23.9,28.8-39.7,30.2c-0.1,0-0.2,0-0.3,0c0-34.6,0-69.2,0-103.8C99.8,41.3,99.9,41.3,100,41.3z"/>
		</g>
		<path class="st6" d="M150.7,100.3c-2.2-3.3-5.5-1.9-6.3-1.1c-0.9,0.8-1.6,1.8-1,3.8c0.3,1.1,1.5,1.2,1.2,2.8
			c-0.3,1.9-1.2,2-1.8,2.4c-0.5,0.4-1.2,0.8-1.5,1.5c-0.3,0.8-0.4,1.6-0.2,2.4c0.3,1.4,2.4,0.3,3.8-0.3c0.9-0.4,3.8-2.7,4.5-3.5
			C151.3,106.3,152.1,102.5,150.7,100.3z"/>
		<g>
			<path class="st2" d="M99.5,51.1c-14.4,0-25,4-31.4,11.9c-8.9,11-8.6,27.8-5.3,39.9c1,3.7,1.5,13.6,2.2,17.3
				c3.1,16.3,22,25,34.5,25c0.1,0,0.2,0,0.3,0v-94C99.8,51.1,99.6,51.1,99.5,51.1z"/>
			<path class="st3" d="M130.9,63c-6.3-7.8-16.8-11.8-31-11.9v94c14.2-0.1,31.2-9.7,34.1-25c0.7-3.6,1.2-13.6,2.2-17.3
				C139.5,90.8,139.8,74.1,130.9,63z"/>
		</g>
		<path class="st8" d="M107.1,130.4c0,0-3.3,3.5-7.3,3.5s-7.1-3.4-7.1-3.4s3.1-0.5,7.1-0.5C103.9,129.9,107.1,130.4,107.1,130.4z"/>
		<path class="st9" d="M101.9,128.8c-1.1,0-2,0.7-2.1,1.6c0-0.9-0.9-1.6-2.1-1.6c-1.1,0-5.2,1.6-5.2,1.6s4,0.4,5.1,0.4
			s2.1,0.4,2.2-0.4c0,0.9,0.8,0.5,2,0.5c1.1,0,5.3-0.5,5.3-0.5S103.1,128.8,101.9,128.8z"/>
		<path class="st10" d="M93.9,103.4c0,5.2-7.7,10.4-16.7,10.6c-0.2,0-0.4,0-0.6,0c-0.8,0-1.5,0-2.2,0c-10.9-0.5-12.5-5-12.5-10
			c0-5.3-3.2-9.6,15.7-9.6c2.9,0,5.2,0.1,7.2,0.3c2.6,0.2,4.5,0.6,5.9,1.1C94.9,97.2,93.9,100,93.9,103.4z"/>
		<path class="st10" d="M138.8,104c0,5.3-1.7,10-14.6,10c-0.6,0-1.1,0-1.6-0.1c-1,0-1.9-0.2-2.8-0.4c-7.3-1.3-12.9-5.8-12.9-10.2
			c0-5.3-2.3-9.1,16.2-9.1c2.8,0,5.1,0.1,6.9,0.3c5.1,0.5,7.3,1.5,8.2,2.9C139.5,99.3,138.8,101.5,138.8,104z"/>
		<g>
			<path class="st11" d="M82.7,95.3c-2.8-0.3-6.8-0.4-11.4,0c-5.6,0.5-9.6,0.9-9.1,7c0.8,8.7,5.7,10.1,7.4,10.5
				c3.8,0.8,19.7,2.1,23-8.6c0.7-2.4,0.6-4.2-0.1-5.9C91.9,96.6,85.5,95.6,82.7,95.3z"/>
			<path class="st12" d="M97.3,96c-1.1-0.2-3.8-0.8-6.5-1.4c-2.4-0.5-4.9-0.8-6.2-0.9c-3.3-0.3-11.6-0.6-16.8-0.2
				c-6.1,0.4-10.8,0.9-11.1,1.3c-0.2,0.2-0.5,3.5,0,3.9s2.2,1.1,2.6,2.2c0.4,1.2,2.1,9.5,5.9,11.8c6.3,3.8,27.3,3.9,30.9-9.8
				c0.5-1.9,1.2-3,2.3-3.3c0.5-0.1,1.3-0.2,2-0.2v-3.2C99.5,96.3,98.5,96.2,97.3,96z M92.9,104.1c-3.3,10.8-19.1,9.5-23,8.6
				c-1.7-0.4-6.6-1.8-7.4-10.5c-0.6-6.1,3.4-6.4,9.1-7c4.6-0.4,8.7-0.2,11.4,0c2.8,0.2,9.2,1.2,9.8,2.9
				C93.4,99.9,93.6,101.8,92.9,104.1z"/>
		</g>
		<g>
			<path class="st11" d="M117.8,95.3c2.8-0.3,6.8-0.4,11.4,0c5.6,0.5,9.6,0.9,9.1,7c-0.8,8.7-5.7,10.1-7.4,10.5
				c-3.8,0.8-19.7,2.1-23-8.6c-0.7-2.4-0.5-4.2,0.1-5.9C108.6,96.6,115,95.6,117.8,95.3z"/>
			<path class="st12" d="M100.1,96.2v3.2c0.8,0,1.5,0.1,2,0.2c1.1,0.3,1.8,1.4,2.3,3.3c3.6,13.7,24.7,13.5,30.9,9.8
				c3.8-2.3,5.5-10.7,5.9-11.8c0.4-1.2,2.2-1.9,2.6-2.2c0.5-0.4,0.1-3.6,0-3.9c-0.2-0.4-4.9-0.9-11.1-1.3
				c-5.2-0.3-13.5-0.1-16.8,0.2c-1.3,0.1-3.8,0.5-6.2,0.9c-2.7,0.5-5.4,1.2-6.5,1.4S101.1,96.3,100.1,96.2z M107.8,98.2
				c0.6-1.7,7.1-2.6,9.8-2.9c2.8-0.3,6.8-0.4,11.4,0c5.6,0.5,9.6,0.9,9.1,7c-0.8,8.7-5.7,10.1-7.4,10.5c-3.8,0.8-19.7,2.1-23-8.6
				C107,101.8,107.2,99.9,107.8,98.2z"/>
		</g>
		<g>
			<g>
				<path class="st13" d="M146.7,65.2c-0.6-1.8-1.2-3.5-1.7-5.1c0-0.2,0-0.5,0-0.7c0-6.8-5.5-15.6-14.3-24.1s-14.3-6.8-21.5-6.5
					c0,0,0,0.1-0.1,0.1c-3.2-0.7-20.3-4.4-30.5-0.3c-11.3,4.5-20.5,12.3-27,33.1s-1.2,37.9,0.1,45.1c4,23,23.2,37.6,23.2,37.6
					s-4.8-6.2-7-12.3c-1.7-4.8-4.2-12.9-4.2-25c0-12,10.9-26.9,10.9-26.9s-5.1,9.3-6,19.6c-1,10.3,4.3,18.2,4.3,18.2
					s-6.7-13.4,4-23.3c3.4-3.2,6.3-6.5,8.6-9.5l0,0c-2.7,7.9,2.7,14.5,2.7,14.5s-0.2-10,5.4-13.4c13.6-8.4,15.8-11.8,17.7-18.6
					c0.3-0.9,0.4-1.8,0.5-2.6l12.5,19.5c0.6,0.8,1.5,2.3,2.6,4.1c3.2,5.4,7.7,14.2,7.7,21.9c0,12-2.5,20.2-4.2,25
					c-2.2,6.1-7,12.3-7,12.3s19.2-14.6,23.2-37.6C147.9,103,153.2,86,146.7,65.2z"/>
			</g>
		</g>
		<path class="st14" d="M152.5,54.2H49.1c0,0-0.2-2.3,0-3.1c3.7-14.4,17.5-31.7,50.3-31.7c31.7,0,48.6,16.9,53.1,31.7
			C152.7,51.9,152.5,54.2,152.5,54.2z"/>
		<path class="st15" d="M152.5,72.8H49.1V54.2c0,0,17.5-12.9,50.3-12.9c31.7,0,53.1,12.9,53.1,12.9V72.8z"/>
		<path class="st14" d="M98,79c-28.8,0.9-77,14.6-77,14.6s29.8-37.1,76.1-37.2c41.1-0.1,81.4,33.4,81.4,33.4S116.9,78.4,98,79z"/>
		<path class="st14" d="M131.9,159.7c-5.6-2.7-12.2-4.4-11.8-3.6c3.6,5.1,2.3,9.4,1.7,16.7c0,0.2,0,0.4-0.1,0.6
			c-2.2-1.6-5-2.5-7.9-2.5c-6.4,0-11.8,4.4-13.4,10.3c-0.2,0-0.4,0-0.6,0c-0.1,0-0.2,0-0.3,0c-1.6-5.9-7-10.3-13.4-10.3
			c-3.1,0-5.9,1-8.2,2.7c0-0.3-0.1-0.6-0.1-0.9c-0.6-7.3-1.9-11.6,1.7-16.7c0.4-0.8-6.3,0.9-11.8,3.6c-5.6,2.7-10.1,6.3-10.1,6.3
			s4.2,1.4,5.9,6.5c0.9,2.6,1.4,7.2,1.7,11.5c0.6,8.7,5,12.7,4.7,15.6h30h30c-0.3-2.9,4.1-6.9,4.7-15.6c0.3-4.3,0.8-9,1.7-11.5
			c1.7-5.2,5.9-6.5,5.9-6.5S137.5,162.4,131.9,159.7z"/>
	</g>
</g>
</svg>
