<?xml version="1.0" encoding="utf-8"?>
<!-- Generator: Adobe Illustrator 22.0.0, SVG Export Plug-In . SVG Version: 6.00 Build 0)  -->
<svg version="1.1" id="Ebene_1" xmlns="http://www.w3.org/2000/svg" xmlns:xlink="http://www.w3.org/1999/xlink" x="0px" y="0px"
	 viewBox="0 0 200 200" style="enable-background:new 0 0 200 200;" xml:space="preserve">
<style type="text/css">
	.st0{fill:#E6C5A1;}
	.st1{fill:#F5D7B3;}
	.st2{opacity:0.7;fill:#C89F81;enable-background:new    ;}
	.st3{fill:#D8AD8B;}
	.st4{fill:#C89F81;}
	.st5{fill:#E4BEA0;}
	.st6{fill:#CA666C;}
	.st7{fill:#D96F71;}
	.st8{fill:#F9F4DE;}
	.st9{fill:#CF4323;}
	.st10{fill:#191714;}
	.st11{fill:#FFFFFF;}
</style>
<g id="Ebene_2_1_">
	<g>
		<g>
			<path class="st0" d="M98.9,121.5v78.2H56.4c-0.7-0.3-1-0.4-1-0.4c0-11.6,2-20.3,4.9-26.7c4.8-10.6,12-15.1,16.6-17
				c2.7-1.1,4.5-1.3,4.5-1.3h0.2c0.2,0,0.4-0.1,0.6-0.1c2.1-0.6,3.6-3.8,4.6-8.3c0.2-0.8,0.3-1.6,0.4-2.4c0.2-1.4,0.4-2.9,0.6-4.6
				c0.1-0.9,0.2-1.9,0.3-2.9c0.4-4.8,0.5-10.1,0.5-15C88.6,120.9,94.3,121.5,98.9,121.5z"/>
			<path class="st1" d="M142.6,199.2c0,0-0.4,0.1-1,0.4H98.9v-78.2H99c4.6,0,10.4-0.6,10.4-0.6c0,4.9,0.1,10.1,0.5,14.9
				c0.1,1,0.2,1.9,0.3,2.8c0.2,1.6,0.4,3.2,0.6,4.6v0.1c0.1,0.7,0.2,1.3,0.3,1.8c0.9,4.4,2.2,7.6,4.1,8.7c0.1,0.1,0.3,0.1,0.4,0.2
				c0.3,0.1,0.6,0.2,1,0.2c0,0,13.2,1.6,20.8,17.5C140.5,178.2,142.6,187.1,142.6,199.2z"/>
		</g>
		<path class="st2" d="M110.8,143.2L110.8,143.2c-1,1.7-4.6,6.4-11.8,6.4c0,0,0,0-0.1,0c-6.8,0-10.7-4.9-11.7-6.4
			c0.2-1.4,0.4-3,0.6-4.5c0.1-1,0.2-1.9,0.3-2.9c3.3,0.8,6.9,1.3,10.7,1.4h0.1c3.9-0.1,7.6-0.6,11-1.5c0.1,1,0.2,1.9,0.3,2.8
			C110.3,140.2,110.5,141.8,110.8,143.2z"/>
		<g>
			<path class="st3" d="M98.9,37.4C54.5,37.3,54.3,73,56.2,96.2c-3-5.5-12-3.4-11.3,5.3c0.7,8.4,13.4,12.2,13.3,11.2
				c3.6,18.9,24.5,29.5,40.7,31c0.1,0,0.2,0,0.3,0c0-35.5,0-70.9,0-106.4C99.1,37.4,99,37.4,98.9,37.4z"/>
		</g>
		<path class="st4" d="M47.1,97.9c2.2-3.4,5.7-1.9,6.5-1.2c0.9,0.8,1.6,1.9,1.1,3.9c-0.3,1.1-1.6,1.2-1.2,2.9c0.3,1.9,1.3,2,1.8,2.5
			c0.5,0.4,1.2,0.8,1.5,1.6c0.3,0.8,0.4,1.7,0.2,2.4c-0.3,1.4-2.5,0.3-3.9-0.3c-0.9-0.4-3.9-2.8-4.7-3.6
			C46.5,104,45.7,100.1,47.1,97.9z"/>
		<g>
			<path class="st5" d="M99.1,37.4c44.4-0.1,44.6,35.6,42.7,58.8c3-5.5,12-3.4,11.3,5.3c-0.7,8.4-13.4,12.2-13.2,11.2
				c-3.6,18.9-24.6,29.5-40.7,31c-0.1,0-0.2,0-0.3,0c0-35.5,0-70.9,0-106.4C98.9,37.4,99,37.4,99.1,37.4z"/>
		</g>
		<path class="st4" d="M151.2,97.9c-2.2-3.4-5.7-1.9-6.5-1.2c-0.9,0.8-1.6,1.9-1.1,3.9c0.3,1.1,1.6,1.2,1.3,2.9
			c-0.3,1.9-1.3,2-1.8,2.5c-0.5,0.4-1.2,0.8-1.5,1.6c-0.3,0.8-0.4,1.7-0.2,2.4c0.3,1.4,2.5,0.3,3.9-0.3c0.9-0.4,3.9-2.8,4.7-3.6
			C151.8,104,152.7,100.1,151.2,97.9z"/>
		<g>
			<path class="st0" d="M98.7,47.5c-14.8,0-25.7,4.1-32.2,12.1c-9.2,11.3-8.8,28.5-5.4,40.8c1,3.8,1.6,13.9,2.3,17.7
				c3.2,16.7,22.6,25.6,35.4,25.6c0.1,0,0.2,0,0.3,0V47.5C98.9,47.5,98.8,47.5,98.7,47.5z"/>
			<path class="st1" d="M130.8,59.7c-6.5-8-17.2-12.1-31.8-12.2v96.3c14.6-0.2,32-9.9,35-25.6c0.7-3.7,1.2-13.9,2.3-17.7
				C139.7,88.2,140,71,130.8,59.7z"/>
		</g>
		<path class="st6" d="M106.5,128.7c0,0-3.3,3.6-7.5,3.6s-7.3-3.5-7.3-3.5s3.2-0.5,7.3-0.5S106.5,128.7,106.5,128.7z"/>
		<path class="st7" d="M101.1,127c-1.2,0-2.1,0.7-2.1,1.6c0-0.9-1-1.6-2.1-1.6c-1.2,0-5.4,1.7-5.4,1.7s4.1,0.4,5.3,0.4
			c1.2,0,2.2,0.5,2.2-0.4c0,0.9,0.9,0.5,2,0.5c1.2,0,5.5-0.6,5.5-0.6S102.3,127,101.1,127z"/>
		<path class="st8" d="M131.9,158.7c-5.7-2.7-12.5-4.5-12.2-3.7c3.7,5.2,2.3,9.6,1.7,17.1c-1,11.6-8.5,8.8-22.6,8.7
			c-14.1,0.1-21.6,3-22.6-8.7c-0.6-7.5-2-11.9,1.7-17.1c0.4-0.8-6.4,0.9-12.2,3.7c-5.7,2.7-10.4,6.5-10.4,6.5s4.3,1.4,6,6.7
			c0.9,2.6,1.4,7.4,1.7,11.8c0.6,8.9,5.1,13,4.8,16h30.8h30.8c-0.3-3,4.2-7,4.8-16c0.3-4.4,0.8-9.2,1.7-11.8
			c1.8-5.3,6.1-6.7,6.1-6.7S137.6,161.5,131.9,158.7z"/>
		<path class="st9" d="M88.8,52.5C85.2,58.6,82,63,82.2,69.9c0.2,6.9,3.2,9.6,3.2,9.6S77.2,78.2,75,68.4c-0.9-4,0-8.8,0-8.8
			s-0.2,6.8,1.8,17.4c2,10.7-1.8,17.7-1.8,17.7s-0.4-4.2-1.7-7.5c-2-5.3-4.4-10.7-4.5-17.1c0-3.5,2.1-8.3,2.1-8.3s0.4,14.3,0.5,28
			c0,7.1-0.1,14-0.5,18.7c-1,13.4-2.7,22.6-8.1,25.9c0,0,2.2-1.5,2.4-7.4c0.3-10.4-2.8-25.2-2.8-25.2S66,110,66.3,113
			c0.9,10.8-11.5,15.9-11.5,15.9s6-6.8,5.2-15.7c-1-11.5,0-15,0-13.8s1,8.8-2.7,17c-3.3,7.1-8.8,10.8-8.8,10.8s5.6-6.2,2.9-24.6
			c-0.7-4.9,3.1-16.9,3.1-16.9s0.7,6.4-0.4,8.1c-4.4,6.8-7.9,7.5-7.9,7.5s3.8-2.4,3.4-19.7c-0.2-9.8,4.3-18.9,4.3-18.9
			s-0.1,0.5-2.6,4.1c-3.1,4.5-3.1,9.5-3.1,9.5s-0.1-25.3,8.6-35c8.7-9.6,11.8-9.2,18.6-10.6s6.5-2,8-2s5.1-3.3,8.7-5.5
			c4.5-2.6,10.1-4,14.5-4s12.5,5.4,19.6,8.5c12,5.2,23.9,0,23.9,0s-12.8,10.8-29.5,2.6c-7.1-3.5,10.7,1.2,18.3,6.7
			s7.5,14.8,7.5,14.8s0.2-4.4-8.5-9.5c-8.4-4.9,2.3-1.9,5,9.3c1.1,4.6,0.1,7.7,3.1,15.3c3,7.7,8,9,8,9s-11.1,0.3-13-5.2
			s-1.3-9.1-1.3-9.1s5.9,11.9,7.9,22.3c2.8,14.4-4.8,23.7-5.2,24.3c-0.2,0.3,1.7-3.8,1.2-7.5c-0.6-3.8-3.6-7.3-3.6-7.3
			s-12.1-8.5-11.5-10.9C129,80.1,88.8,52.5,88.8,52.5"/>
		<path class="st10" d="M112.6,147c0,0-8.3,1.7-13.4,1.9c-5.2,0.2-10.4-1.7-13.2-2.6c0,0-3.1,5.8-2.1,6.6c2.3,1.7,6.4,2.5,10.8,2.7
			l0,0c0,2.4,2,4.4,4.4,4.4s4.4-2,4.4-4.4c0-0.1,0-0.2,0-0.3c4.7-0.5,8.6-1.3,9.8-2C116.4,151.3,112.6,147,112.6,147z"/>
		<path class="st11" d="M101.4,156c0,1.3-1.1,2.4-2.4,2.4s-2.4-1.1-2.4-2.4c0-1.3,1.1-2.4,2.4-2.4S101.4,154.7,101.4,156z"/>
	</g>
</g>
</svg>
