<?xml version="1.0" encoding="utf-8"?>
<!-- Generator: Adobe Illustrator 22.0.0, SVG Export Plug-In . SVG Version: 6.00 Build 0)  -->
<svg version="1.1" id="Ebene_1" xmlns="http://www.w3.org/2000/svg" xmlns:xlink="http://www.w3.org/1999/xlink" x="0px" y="0px"
	 viewBox="0 0 200 200" style="enable-background:new 0 0 200 200;" xml:space="preserve">
<style type="text/css">
	.st0{fill:#FFEC00;}
	.st1{fill:#E6C5A1;}
	.st2{fill:#F5D7B3;}
	.st3{clip-path:url(#SVGID_2_);fill:#C89F81;}
	.st4{fill:#D8AD8B;}
	.st5{fill:#C89F81;}
	.st6{fill:#E4BEA0;}
	.st7{fill:#BD1622;}
	.st8{fill:#E84E1B;}
	.st9{fill:none;}
	.st10{fill:#F9F4DE;}
	.st11{fill:#544F4E;}
	.st12{fill:#FFFFFF;}
	.st13{fill:#1D1D1B;}
	.st14{fill:#44413F;}
	.st15{fill:#321A15;}
	.st16{fill:#C87215;}
</style>
<g id="Ebene_2_1_">
	<g>
		<path class="st0" d="M139,117.6c0,17-17.1,30.8-38.2,30.8s-38.2-13.8-38.2-30.8s17.1-30.8,38.2-30.8
			C121.9,86.8,139,100.6,139,117.6z"/>
		<path class="st1" d="M100.1,119.5v80.2H56.5c-0.7-0.3-1.1-0.4-1.1-0.4c0-26.8,10.4-38.2,18.2-43c4.7-2.8,8.5-3.3,8.5-3.3
			c2.7,0,4.4-3.4,5.5-8.6c0.2-0.8,0.3-1.6,0.4-2.5c0.2-1.5,0.5-3,0.6-4.6c0.1-1,0.2-2,0.3-3c0.4-4.9,0.5-10.3,0.5-15.4
			C89.5,118.9,95.4,119.5,100.1,119.5"/>
		<path class="st2" d="M145,199.3c0,0-0.4,0.1-1,0.4h-43.8v-80.2h0.1c4.7,0,10.6-0.6,10.6-0.6c0,5,0.1,10.3,0.5,15.2
			c0.1,1,0.2,2,0.3,2.9c0.2,1.7,0.4,3.3,0.6,4.8l0,0c0.1,0.7,0.2,1.3,0.3,1.9c1.1,5.5,2.9,9.3,5.7,9.3c0,0,4.9,0.6,10.6,4.7
			C136.3,163.1,145,174.7,145,199.3"/>
		<g>
			<g>
				<defs>
					<rect id="SVGID_1_" x="88.1" y="134.1" width="24.2" height="14.3"/>
				</defs>
				<clipPath id="SVGID_2_">
					<use xlink:href="#SVGID_1_"  style="overflow:visible;"/>
				</clipPath>
				<path class="st3" d="M112.3,141.8L112.3,141.8c-1.1,1.7-4.8,6.6-12.1,6.6h-0.1c-6.9,0-11-5.1-12-6.6c0.2-1.5,0.4-3,0.6-4.7
					c0.1-1,0.2-2,0.3-3c3.4,0.9,7.1,1.4,11,1.5h0.1c4-0.1,7.8-0.6,11.2-1.6c0.1,1,0.2,2,0.3,2.9C111.8,138.7,112,140.3,112.3,141.8"
					/>
			</g>
		</g>
		<path class="st4" d="M100.1,33.2c-45.5-0.1-45.8,36.5-43.8,60.4C53.2,88,44,90.1,44.7,99c0.7,8.6,13.8,12.5,13.6,11.5
			c3.7,19.4,25.2,30.2,41.8,31.8c0.1,0,0.2,0,0.3,0V33.2C100.3,33.2,100.2,33.2,100.1,33.2"/>
		<path class="st5" d="M47,95.2c2.3-3.5,5.8-2,6.7-1.2s1.6,1.9,1.1,4c-0.3,1.2-1.6,1.2-1.3,3c0.3,2,1.3,2.1,1.9,2.6
			c0.5,0.4,1.2,0.8,1.6,1.6c0.3,0.8,0.4,1.7,0.2,2.5c-0.3,1.4-2.5,0.3-4-0.3c-1-0.4-4-2.8-4.8-3.7C46.4,101.5,45.5,97.5,47,95.2"/>
		<path class="st6" d="M100.3,33.2c45.5-0.1,45.8,36.5,43.8,60.4c3.1-5.6,12.4-3.5,11.6,5.4c-0.7,8.6-13.8,12.5-13.6,11.5
			c-3.7,19.4-25.2,30.2-41.8,31.8c-0.1,0-0.2,0-0.3,0V33.2C100.1,33.2,100.2,33.2,100.3,33.2"/>
		<path class="st5" d="M153.7,95.2c-2.3-3.5-5.8-2-6.7-1.2s-1.6,1.9-1.1,4c0.3,1.2,1.6,1.2,1.3,3c-0.3,2-1.3,2.1-1.8,2.6
			c-0.6,0.4-1.2,0.8-1.6,1.6c-0.3,0.8-0.4,1.7-0.2,2.5c0.3,1.4,2.5,0.3,4-0.3c1-0.4,4-2.8,4.8-3.7
			C154.3,101.5,155.2,97.5,153.7,95.2"/>
		<path class="st1" d="M99.9,43.6c-15.2,0-26.3,4.2-33.1,12.5c-9.4,11.6-9,29.2-5.6,41.9c1,3.9,1.6,14.3,2.3,18.1
			c3.3,17.1,23.2,26.3,36.3,26.3c0.1,0,0.2,0,0.3,0V43.6C100.1,43.6,100,43.6,99.9,43.6"/>
		<path class="st2" d="M132.8,56.1c-6.7-8.2-17.7-12.4-32.7-12.5v98.7c15-0.2,32.9-10.2,36-26.3c0.7-3.8,1.3-14.3,2.3-18.1
			C141.9,85.3,142.3,67.7,132.8,56.1"/>
		<path class="st7" d="M107.8,127.2c0,0-3.4,3.7-7.7,3.7c-4.2,0-7.5-3.6-7.5-3.6s3.2-0.5,7.5-0.5
			C104.4,126.7,107.8,127.2,107.8,127.2"/>
		<path class="st8" d="M102.3,125.5c-1.2,0-2.1,0.8-2.2,1.7c0-0.9-1-1.7-2.2-1.7s-5.5,1.7-5.5,1.7s4.2,0.4,5.4,0.4
			c1.2,0,2.2,0.5,2.3-0.4c0,0.9,0.9,0.6,2.1,0.6s5.6-0.6,5.6-0.6S103.5,125.5,102.3,125.5"/>
		<line class="st9" x1="92.5" y1="185.4" x2="111.8" y2="179.3"/>
		<line class="st9" x1="107.7" y1="185.4" x2="88.4" y2="179.3"/>
		<line class="st9" x1="87.9" y1="179.3" x2="119.8" y2="169.1"/>
		<line class="st9" x1="112.3" y1="179.3" x2="80.3" y2="169.1"/>
		<line class="st9" x1="81.4" y1="170.8" x2="126.9" y2="156.9"/>
		<line class="st9" x1="119.2" y1="170.8" x2="73.7" y2="156.9"/>
		<path class="st10" d="M126.8,156.3c0,0.1-0.1,0.2-0.1,0.3l-26.3,8l-26.5-8.1v0.1c0-0.1-0.1-0.2-0.1-0.3
			c-7.8,4.8-18.2,16.1-18.2,43c0,0,0.4,0.1,1.1,0.4H100h0.1H144c0.7-0.3,1.1-0.4,1.1-0.4C145.1,172.4,134.6,161.1,126.8,156.3z
			 M126.2,157.5c-1.7,3.9-4,7.8-6.9,11.4l-2.5,0.8l-15.2-4.6L126.2,157.5z M100.1,182.6l-9.1-2.9c-0.3-0.3-0.5-0.5-0.8-0.8l9.8-3.1
			l9.9,3.1c-0.3,0.3-0.5,0.5-0.8,0.8L100.1,182.6z M107.9,180.9c-1.3,1.2-2.4,2.2-3.4,3l-3.1-1L107.9,180.9z M98.8,183l-3.1,1
			c-1-0.9-2.1-1.9-3.4-3.1L98.8,183z M82.6,170.8l0.9-0.3l15.3,4.9l-9.2,2.9C87.5,176.2,85.1,173.7,82.6,170.8z M82,170.2
			c0-0.1-0.1-0.1-0.1-0.2l0.3,0.1L82,170.2z M84.8,170.1l15.5-4.7l15.3,4.7l-15.5,4.9L84.8,170.1z M110.6,178.4l-9.2-2.9l15.5-4.9
			l0.9,0.3C115.2,173.6,112.8,176.2,110.6,178.4z M118.1,170.1l0.3-0.1c0,0.1-0.1,0.1-0.1,0.2L118.1,170.1z M99,165l-15.5,4.7
			l-2.5-0.8c-2.9-3.6-5.2-7.5-6.9-11.5L99,165z M100,187.5c-0.2-0.2-1.6-1.2-3.7-3l3.7-1.2l3.7,1.2
			C101.6,186.4,100.3,187.4,100,187.5z"/>
		<line class="st9" x1="143.5" y1="110.5" x2="143.5" y2="119.1"/>
		<rect x="143.2" y="110.5" class="st11" width="0.8" height="8.6"/>
		<path class="st12" d="M146.6,120.7c0-1.6-1.4-2.8-3.1-2.8c-1.7,0-3.1,1.3-3.1,2.8c0,1.1,0.7,2.1,1.8,2.5c-0.3,0.3-0.5,0.7-0.5,1.1
			c0,0.9,0.8,1.6,1.8,1.6s1.8-0.7,1.8-1.6c0-0.4-0.2-0.8-0.5-1.1C145.9,122.8,146.6,121.9,146.6,120.7"/>
		<path class="st13" d="M142.9,120.6c0,0.4-0.4,0.8-0.8,0.8s-0.8-0.3-0.8-0.8c0-0.4,0.4-0.8,0.8-0.8S142.9,120.2,142.9,120.6"/>
		<path class="st13" d="M145.8,120.6c0,0.4-0.4,0.8-0.8,0.8s-0.8-0.3-0.8-0.8c0-0.4,0.4-0.8,0.8-0.8S145.8,120.2,145.8,120.6"/>
		<polygon class="st13" points="143.5,122.9 142.7,122.9 143.1,122.1 143.5,121.4 144,122.1 144.4,122.9 		"/>
		<rect x="142.7" y="123.7" class="st13" width="1.7" height="0.8"/>
		<path class="st14" d="M145.2,110c0,0.9-0.8,1.7-1.7,1.7s-1.7-0.8-1.7-1.7c0-0.9,0.7-1.7,1.7-1.7S145.2,109.1,145.2,110"/>
		<path class="st15" d="M44,64.2c0,0,0,0.7,0.2,1.8C44.1,65.3,44.1,64.7,44,64.2C44,64.1,44,64.2,44,64.2z"/>
		<path class="st15" d="M61.4,68.8L61.4,68.8L61.4,68.8z"/>
		<path class="st0" d="M151.3,54.1c-5.1-22.5-39.6-25.8-39.6-25.8s-6.7-4.8-16.1-4.7c-8.8,0.1-23.1,2.1-35.1,18.2
			C12.7,105.9,66.4,142,66.4,142l11.4,7.1c0,0-8.4-17.6-8.5-27.8c-0.5-33.9,20.4-53.5,33.4-62.4l0,0l0,0c5.9-4,10.2-5.9,10.2-5.9
			s-1,15.4,8,21.8c9,6.5,14.2,12.8,16.2,20.6s3.2,11.8,1.5,23s-8.5,29.5-8.5,29.5l9.8-7.3c0,0,12.9-11.6,17.8-45.9
			C159.8,79,155.4,71.9,151.3,54.1z"/>
		<path class="st16" d="M77.7,149c0,0-32.9-57.2,35-96.1c0,0-35.5,1.9-50.2,34.8C62.5,87.8,44,125.9,77.7,149z"/>
	</g>
</g>
</svg>
