<?xml version="1.0" encoding="utf-8"?>
<!-- Generator: Adobe Illustrator 22.0.0, SVG Export Plug-In . SVG Version: 6.00 Build 0)  -->
<svg version="1.1" id="Ebene_1" xmlns="http://www.w3.org/2000/svg" xmlns:xlink="http://www.w3.org/1999/xlink" x="0px" y="0px"
	 viewBox="0 0 200 200" style="enable-background:new 0 0 200 200;" xml:space="preserve">
<style type="text/css">
	.st0{fill:#ECECEC;}
	.st1{fill:#E6C5A1;}
	.st2{fill:#F5D7B3;}
	.st3{opacity:0.7;fill:#C89F81;enable-background:new    ;}
	.st4{fill:#D8AD8B;}
	.st5{fill:#C89F81;}
	.st6{fill:#E4BEA0;}
	.st7{fill:#4F2D2C;}
	.st8{fill:#221F1C;}
	.st9{fill:#1D1D1B;}
	.st10{fill:#A3A09F;}
	.st11{fill:#D9898F;}
	.st12{fill:#CA666C;}
	.st13{fill:#D96F71;}
</style>
<g id="Ebene_2_1_">
	<g>
		<polygon class="st0" points="68.9,160.7 67.2,161.9 65.8,158.2 64.4,154.5 67.5,157 70.6,159.4 		"/>
		<polygon class="st0" points="72.6,157.5 70.6,158.1 70.4,154.2 70.3,150.2 72.4,153.5 74.6,156.8 		"/>
		<polygon class="st0" points="77.6,155.1 75.5,155.2 76.4,151.4 77.3,147.5 78.5,151.3 79.7,155.1 		"/>
		<polygon class="st0" points="128.8,160.1 130.5,161.4 131.9,157.7 133.3,153.9 130.2,156.4 127.1,158.9 		"/>
		<polygon class="st0" points="125.1,157 127.1,157.6 127.3,153.6 127.5,149.7 125.3,153 123.1,156.3 		"/>
		<polygon class="st0" points="120.2,154.6 122.3,154.7 121.4,150.8 120.5,146.9 119.2,150.7 118,154.5 		"/>
		<g>
			<path class="st1" d="M99.1,119.8v79.9H55.7c-0.7-0.3-1.1-0.5-1.1-0.5c0-42.9,26.6-46.1,26.6-46.1c2,0,3.4-1.9,4.5-5
				c0.4-1.1,0.7-2.3,1-3.6c0.2-0.8,0.3-1.6,0.5-2.5c0.2-1.5,0.5-3,0.6-4.6c0.1-1,0.2-2,0.3-3c0.4-4.9,0.5-10.2,0.5-15.3
				C88.5,119.2,94.4,119.8,99.1,119.8z"/>
			<path class="st2" d="M143.8,199.2c0,0-0.4,0.1-1,0.5H99.1v-79.9h0.1c4.7,0,10.6-0.6,10.6-0.6c0,5,0.1,10.3,0.5,15.2
				c0.1,1,0.2,1.9,0.3,2.9c0.2,1.7,0.4,3.3,0.6,4.7l0,0c0.1,0.7,0.2,1.3,0.3,1.9c0.5,2.7,1.2,4.9,2.1,6.5c0.9,1.7,2.1,2.7,3.5,2.7
				C117.2,153.2,143.8,156.4,143.8,199.2z"/>
		</g>
		<path class="st3" d="M111.2,142L111.2,142c-1.1,1.7-4.8,6.6-12,6.6c0,0,0,0-0.1,0c-6.9,0-10.9-5.1-12-6.5c0.2-1.5,0.5-3,0.6-4.6
			c0.1-1,0.2-1.9,0.3-2.9c3.4,0.8,7,1.4,11,1.4h0.1c4-0.1,7.7-0.6,11.2-1.6c0.1,1,0.2,2,0.3,2.9C110.8,139,111,140.6,111.2,142z"/>
		<g>
			<path class="st4" d="M99.2,28.2c-46,0-46.3,38.5-44.2,63.7c-3.1-6-12.5-4.1-11.7,5.3C44,106.3,57.2,111,57,109.9
				c3.8,20.7,25.4,32.7,42.2,32.7c0.1,0,0.2,0,0.4,0V28.2C99.5,28.2,99.4,28.2,99.2,28.2z"/>
		</g>
		<path class="st5" d="M46.2,93.2c2.3-3.6,5.8-2.1,6.6-1.3c0.9,0.9,1.6,2,1.1,4.2c-0.3,1.2-1.6,1.3-1.3,3.1c0.3,2.1,1.3,2.2,1.8,2.7
			s1.2,0.8,1.6,1.7c0.3,0.9,0.4,1.8,0.2,2.6c-0.3,1.5-2.5,0.3-4-0.4c-0.9-0.4-4-3-4.8-3.9C45.6,99.8,44.7,95.6,46.2,93.2z"/>
		<g>
			<path class="st6" d="M99.5,28.2c46,0,46.3,38.5,44.2,63.7c3.2-6,12.5-4.1,11.7,5.3c-0.7,9.1-13.9,13.8-13.7,12.7
				c-3.8,20.7-25.4,32.7-42.2,32.7c-0.1,0-0.2,0-0.3,0V28.2C99.2,28.2,99.4,28.2,99.5,28.2z"/>
		</g>
		<path class="st5" d="M152.5,93.2c-2.3-3.6-5.8-2.1-6.6-1.3c-0.9,0.9-1.6,2-1.1,4.2c0.3,1.2,1.6,1.3,1.3,3.1
			c-0.3,2.1-1.3,2.2-1.8,2.7s-1.2,0.8-1.6,1.7c-0.3,0.9-0.4,1.8-0.2,2.6c0.3,1.5,2.5,0.3,4-0.4c1-0.4,4-3,4.8-3.9
			C153.1,99.8,154,95.6,152.5,93.2z"/>
		<g>
			<path class="st1" d="M98.8,39c-15.1,0-26.2,4.4-32.9,13.1c-9.4,12.1-9,30.6-5.5,43.9c1,4.1,1.6,15,2.3,19
				c3.3,18,23.1,27.5,36.1,27.5c0.1,0,0.2,0,0.4,0V39C99.1,39,99,39,98.8,39z"/>
			<path class="st2" d="M131.7,52.1c-6.7-8.6-17.6-13-32.5-13.1v103.5c14.9-0.2,32.7-10.6,35.8-27.5c0.7-4,1.3-15,2.3-19
				C140.8,82.8,141.1,64.3,131.7,52.1z"/>
		</g>
		<path class="st7" d="M143.8,199.2c0,0-0.4,0.2-1,0.5H55.7c-0.7-0.3-1.1-0.5-1.1-0.5c0-43.1,26.6-46.3,26.6-46.3c2,0,3.4-1.9,4.5-5
			l13.4,1.1l14.6,1.2c0.9,1.7,2.1,2.8,3.5,2.8C117.2,152.9,143.8,156.1,143.8,199.2z"/>
		<path class="st8" d="M114.8,151.2c0,0-1.7-7.3-2.9-7.3c-1.2,0-13.3,5.6-13.3,5.6l3.8,8.1L114.8,151.2z"/>
		<path class="st8" d="M82.5,151.2c0,0,1.7-7.3,2.9-7.3c1.2,0,13.3,5.6,13.3,5.6l-3.8,8.1L82.5,151.2z"/>
		<polygon class="st8" points="83.5,167.7 83.5,199.7 81.5,199.7 81.5,168.8 		"/>
		<rect x="107.6" y="170.9" class="st9" width="20.8" height="1.8"/>
		<g>
			
				<rect x="79.4" y="159.8" transform="matrix(0.882 -0.4712 0.4712 0.882 -63.9916 64.8134)" class="st8" width="36.1" height="0.8"/>
		</g>
		<rect x="55.3" y="107.9" class="st10" width="1.2" height="11.6"/>
		<rect x="52.2" y="111.3" class="st10" width="7.3" height="1.2"/>
		<path class="st9" d="M127.8,171.8c-1,0-1.9,5.1-1.9,5.1c0,1,0.8,1.9,1.9,1.9c1,0,1.9-0.8,1.9-1.9
			C129.7,176.8,128.9,171.8,127.8,171.8z M127.8,178c-0.7,0-1.3-0.6-1.3-1.3c0,0,0.6-3.6,1.3-3.6c0.7,0,1.3,3.6,1.3,3.6
			C129.2,177.4,128.6,178,127.8,178z"/>
		<path class="st11" d="M150.7,50.8c-8.7-16-21.3-25.5-30.4-27.8c-6-1.5-13.5-2.5-18.1-3c0-0.2-0.9-0.4-2.3-0.2
			c-1-0.1-1.7,0.1-1.7,0.2c-4.5,0.5-12.1,1.5-18.1,3C71,25.2,58.4,34.7,49.7,50.7c-8.8,16-1.5,45.7,3,59.7
			c4.6,14.1,18.3,33.1,18.3,33.1s-10.3-26.6-7.6-38.4c2.7-11.8,7.6-17.9,13.7-27s8.4-14.5,9.5-19c0.9-3.8-2.4,11.9-2.4,11.9
			s8.1-1,16-11.6c7.9,10.6,16,11.7,16,11.7s-3.3-15.7-2.4-11.9c1.1,4.6,3.4,9.9,9.5,19s11,15.2,13.7,27c2.7,11.8-7.6,38.4-7.6,38.4
			s13.7-19,18.3-33.1C152.2,96.4,159.5,66.7,150.7,50.8"/>
		<path class="st12" d="M106.3,125.5c0,0-3.3,3.6-7.5,3.6s-7.3-3.5-7.3-3.5s3.2-0.5,7.3-0.5S106.3,125.5,106.3,125.5z"/>
		<path class="st13" d="M100.9,123.9c-1.2,0-2.1,0.7-2.1,1.6c0-0.9-1-1.6-2.1-1.6c-1.2,0-5.4,1.7-5.4,1.7s4.1,0.4,5.3,0.4
			c1.2,0,2.2,0.5,2.2-0.4c0,0.9,0.9,0.5,2,0.5c1.2,0,5.5-0.6,5.5-0.6S102.1,123.9,100.9,123.9z"/>
	</g>
</g>
</svg>
