<?xml version="1.0" encoding="utf-8"?>
<!-- Generator: Adobe Illustrator 22.0.0, SVG Export Plug-In . SVG Version: 6.00 Build 0)  -->
<svg version="1.1" id="Ebene_1" xmlns="http://www.w3.org/2000/svg" xmlns:xlink="http://www.w3.org/1999/xlink" x="0px" y="0px"
	 viewBox="0 0 200 200" style="enable-background:new 0 0 200 200;" xml:space="preserve">
<style type="text/css">
	.st0{fill:#ECEBEC;}
	.st1{fill:#1D1D1B;}
	.st2{fill:#835528;}
	.st3{fill:#9E6532;}
	.st4{fill:#603F20;}
	.st5{fill:#3A2819;}
	.st6{fill:#13120D;}
	.st7{fill:#5DC2EE;}
	.st8{fill:#CB666C;}
	.st9{fill:#D96F71;}
</style>
<g id="Ebene_2_1_">
	<g>
		<path class="st0" d="M133,152.3c0,8.6-6.7,15.5-14.9,15.5H85.3c-8.2,0-14.9-7-14.9-15.5l0,0c0-8.6,6.7-15.5,14.9-15.5h32.8
			C126.3,136.8,133,143.7,133,152.3L133,152.3z"/>
		<path class="st1" d="M147.3,113.7c-6.5,24.8-21,30-46.8,30c-25.9,0-46.8-13.4-46.8-30s21-30,46.8-30S151.5,97.7,147.3,113.7"/>
		<path class="st2" d="M101.5,119.4v80.3H57.9c-0.7-0.3-1.1-0.5-1.1-0.5c0-43,26.7-46.3,26.7-46.3c2.7,0,4.4-3.4,5.5-8.6
			c0.2-0.8,0.3-1.6,0.4-2.5c0.2-1.5,0.5-3,0.6-4.7c0.1-1,0.2-1.9,0.3-3c0.4-4.9,0.5-10.3,0.5-15.4
			C90.9,118.9,96.8,119.4,101.5,119.4"/>
		<path class="st3" d="M146.4,199.2c0,0-0.4,0.2-1,0.5h-43.8v-80.3h0.1c4.7,0,10.6-0.6,10.6-0.6c0,5,0.1,10.3,0.5,15.2
			c0.1,1,0.2,2,0.3,2.9c0.2,1.7,0.4,3.3,0.6,4.8l0,0c0.1,0.7,0.2,1.3,0.3,1.9c1.1,5.5,2.9,9.3,5.7,9.3
			C119.6,153,146.4,156.2,146.4,199.2"/>
		<path class="st4" d="M113.6,141.8L113.6,141.8c-1.1,1.7-4.8,6.6-12.1,6.6h-0.1c-6.9,0-11-5.1-12-6.5c0.2-1.5,0.5-3,0.6-4.7
			c0.1-1,0.2-1.9,0.3-3c3.4,0.9,7.1,1.4,11,1.4h0.1c4-0.1,7.8-0.6,11.2-1.6c0.1,1,0.2,2,0.3,2.9
			C113.2,138.7,113.4,140.3,113.6,141.8"/>
		<path class="st4" d="M100.9,27.4c-46.2,0-46.5,38.7-44.4,64c-3.2-6-12.5-4.2-11.8,5.3c0.7,9.1,14,13.8,13.8,12.7
			c3.8,20.8,25.5,32.9,42.4,32.9c0.1,0,0.2,0,0.4,0V27.4C101.1,27.4,101,27.4,100.9,27.4"/>
		<path class="st5" d="M47.6,92.7c2.3-3.7,5.8-2.1,6.7-1.3c0.9,0.9,1.7,2,1.1,4.2c-0.3,1.2-1.6,1.3-1.3,3.1c0.3,2.1,1.3,2.2,1.9,2.7
			c0.5,0.5,1.2,0.8,1.6,1.7c0.3,0.9,0.4,1.8,0.2,2.6c-0.3,1.5-2.5,0.3-4-0.3c-1-0.5-4-3-4.8-3.9C47,99.3,46.1,95.1,47.6,92.7"/>
		<path class="st4" d="M101.1,27.4c46.2,0,46.5,38.7,44.4,64c3.2-6,12.5-4.2,11.8,5.3c-0.7,9.1-14,13.8-13.8,12.7
			c-3.8,20.8-25.5,32.9-42.4,32.9c-0.1,0-0.2,0-0.3,0V27.4C100.9,27.4,101,27.4,101.1,27.4"/>
		<path class="st5" d="M154.4,92.7c-2.3-3.7-5.8-2.1-6.7-1.3c-0.9,0.9-1.6,2-1.1,4.2c0.3,1.2,1.6,1.3,1.3,3.1
			c-0.3,2.1-1.3,2.2-1.8,2.7c-0.6,0.5-1.2,0.8-1.6,1.7c-0.3,0.9-0.4,1.8-0.2,2.6c0.3,1.5,2.5,0.3,4-0.3c1-0.5,4-3,4.8-3.9
			C155,99.3,155.9,95.1,154.4,92.7"/>
		<path class="st2" d="M101.2,38.3c-15.2,0-26.3,4.4-33.1,13.1c-9.4,12.2-9,30.8-5.6,44.1c1.1,4.1,1.6,15.1,2.3,19.1
			c3.3,18.1,23.2,27.7,36.3,27.7c0.1,0,0.2,0,0.3,0v-104C101.5,38.3,101.4,38.3,101.2,38.3"/>
		<path class="st3" d="M134.2,51.5c-6.7-8.7-17.7-13.1-32.6-13.2v104c15-0.2,32.9-10.7,36-27.6c0.7-4,1.3-15,2.3-19.1
			C143.3,82.2,143.7,63.7,134.2,51.5"/>
		<path class="st6" d="M146.4,199.2c0,0-0.4,0.2-1,0.5H57.8c-0.7-0.3-1.1-0.5-1.1-0.5c0-32.8,15.5-42.5,22.9-45.2
			c4.8,5.3,14.3,12.6,21.7,12.9h0.1l0,0l0,0c0,0,0.1,0,0.2,0c7.4-0.4,16.9-7.7,21.7-13C130.8,156.7,146.4,166.3,146.4,199.2"/>
		<path class="st7" d="M75.6,155.9c5.7,6.3,17,14.9,25.7,15.4h0.2l0,0l0,0c0,0,0.1,0,0.2,0c8.7-0.4,20-9.1,25.8-15.4
			c-1.5-0.9-2.9-1.5-4.1-1.9c-4.8,5.3-14.3,12.6-21.7,13c-0.1,0-0.1,0-0.2,0l0,0l0,0h-0.2c-7.3-0.4-16.9-7.6-21.7-12.9
			C78.4,154.5,77,155.1,75.6,155.9"/>
		<path class="st8" d="M114.7,121.3c0,0-5.8,6.2-13,6.2S89,121.4,89,121.4s5.5-0.9,12.7-0.9C108.9,120.5,114.7,121.3,114.7,121.3"/>
		<path class="st9" d="M105.4,118.4c-2,0-3.6,1.2-3.7,2.8c0-1.6-1.7-2.8-3.7-2.8s-9.3,2.9-9.3,2.9s7.1,0.7,9.2,0.7
			c2,0,3.8,0.8,3.9-0.7c0,1.5,1.5,0.9,3.5,0.9s9.5-1,9.5-1S107.4,118.4,105.4,118.4"/>
		<path class="st0" d="M98.8,199.6h-4.9c0.2-3.2,0.4-8.4,0.4-11.3c0-2.8,0.6-6.1-4.4-10.1c-4.9-3.9-17.9-3.6-19.2-13
			c-0.3-2.2-0.3-4.1-0.1-5.7l0,0c0.2-2.6,0.8-4.2,0.8-4.2s2.4-2.2,3.4-2.8c1.1-0.8,4.9-2.7,4.9-2.7c0,4.3-3.2,13.9,0.8,17.1
			c3.9,3.3,12.5,5.9,14.8,7.2s3.1,3,3.5,5.4c0,0.2,0.1,0.4,0.1,0.7C98.9,183.4,98.8,194.2,98.8,199.6"/>
		<path class="st0" d="M132.8,165.2c-1.3,9.4-14.2,9.1-19.2,13s-4.4,7.3-4.4,10.1c0,2.9,0.2,8.1,0.4,11.3h-4.9
			c0-5.5-0.1-16.2,0.1-19.4c0-0.3,0-0.5,0.1-0.7c0.4-2.4,1.2-4.1,3.5-5.4c2.3-1.3,10.8-4,14.8-7.2s0.7-13,0.7-17.4
			c0,0,3.7,1.2,4.8,1.9c2.1,1.4,3.5,3.4,3.5,3.4s0.5,2,0.7,4.5l0,0C133,161,133.1,163,132.8,165.2"/>
		<polyline class="st0" points="70.5,151.7 70.5,152.3 70.5,163.6 75.2,163.6 		"/>
		<polyline class="st0" points="133,151.7 133,163.6 127.5,160.3 132.9,150.7 		"/>
		<path class="st1" d="M151,56.8c-0.6-2.2-1.5-4.2-2.6-6.1c0.3-0.8,0.4-1.8,0.5-2.9c0.2-6.8,5.2-12.1-1.2-19.4
			c-6.5-7.3-14.2-11.3-14.2-11.3s-7.1-3.4-12.3-4.6c-5.2-1.3-6.9-2.1-11.5,0c-8.1,3.7-9.2,4.8-13,11.7c-1.2,2.3-2.2,0.9-3.1,2.1
			c-8.8,0.4-21.8,5.8-32.8,19.3c-47.5,58.1,5.8,90.9,5.8,90.9L82,147.1c0,0-12.5-20.2-12.7-29.4c-0.7-44.6,43.4-61.9,43.4-61.9
			s-1,13.9,7.9,19.8s14.1,11.6,16.1,18.7s3.2,10.7,1.5,20.9s-12.7,32.4-12.7,32.4l14-12.3c0,0,12.8-10.5,17.7-41.6
			C159.4,79.5,155.1,73,151,56.8z"/>
	</g>
</g>
</svg>
