<?xml version="1.0" encoding="utf-8"?>
<!-- Generator: Adobe Illustrator 22.0.0, SVG Export Plug-In . SVG Version: 6.00 Build 0)  -->
<svg version="1.1" id="Ebene_1" xmlns="http://www.w3.org/2000/svg" xmlns:xlink="http://www.w3.org/1999/xlink" x="0px" y="0px"
	 viewBox="0 0 200 200" style="enable-background:new 0 0 200 200;" xml:space="preserve">
<style type="text/css">
	.st0{fill:#E6C5A1;}
	.st1{fill:#F5D7B3;}
	.st2{clip-path:url(#SVGID_2_);fill:#C89F81;}
	.st3{fill:#D8AD8B;}
	.st4{fill:#C89F81;}
	.st5{fill:#E4BEA0;}
	.st6{fill:#E9E9EA;}
	.st7{fill:#BD1622;}
	.st8{fill:#F5F5F5;}
	.st9{fill:#523A29;}
	.st10{fill:#FFFFFF;}
	.st11{fill:#191714;}
</style>
<g id="Ebene_2_1_">
	<g>
		<path class="st0" d="M99.1,119.4v80.3H55.5c-0.7-0.3-1.1-0.5-1.1-0.5c0-43.1,26.7-46.3,26.7-46.3c2.7,0,4.4-3.4,5.5-8.6
			c0.2-0.8,0.3-1.6,0.5-2.5c0.2-1.5,0.5-3,0.6-4.6c0.1-1,0.2-2,0.3-3c0.4-4.9,0.5-10.3,0.5-15.4C88.5,118.8,94.4,119.4,99.1,119.4"
			/>
		<path class="st1" d="M144,199.2c0,0-0.4,0.1-1,0.5H99.1v-80.3h0.1c4.7,0,10.6-0.6,10.6-0.6c0,5,0.1,10.3,0.5,15.2
			c0.1,1,0.2,2,0.3,2.9c0.2,1.7,0.4,3.3,0.6,4.8l0,0c0.1,0.7,0.2,1.3,0.3,1.9c1.1,5.5,2.9,9.3,5.7,9.3
			C117.3,153,144,156.2,144,199.2"/>
		<g>
			<g>
				<defs>
					<rect id="SVGID_1_" x="87.1" y="134.1" width="24.2" height="14.3"/>
				</defs>
				<clipPath id="SVGID_2_">
					<use xlink:href="#SVGID_1_"  style="overflow:visible;"/>
				</clipPath>
				<path class="st2" d="M111.3,141.8L111.3,141.8c-1.1,1.8-4.8,6.6-12.1,6.6h-0.1c-6.9,0-11-5.1-12-6.6c0.2-1.5,0.5-3,0.6-4.6
					c0.1-1,0.2-2,0.3-3c3.4,0.9,7.1,1.4,11,1.4h0.1c4-0.1,7.8-0.6,11.3-1.6c0.1,1,0.2,2,0.3,2.9C110.8,138.7,111,140.3,111.3,141.8"
					/>
			</g>
		</g>
		<path class="st3" d="M99.2,27.4c-46.2,0-46.5,38.7-44.4,64c-3.2-6-12.5-4.1-11.8,5.3c0.7,9.1,14,13.8,13.8,12.7
			c3.8,20.8,25.5,32.9,42.4,32.9c0.1,0,0.3,0,0.4,0V27.4C99.5,27.4,99.4,27.4,99.2,27.4"/>
		<path class="st4" d="M46,92.7c2.3-3.6,5.8-2.1,6.7-1.3c0.9,0.9,1.6,2,1.1,4.2c-0.3,1.2-1.6,1.3-1.3,3.1c0.3,2.1,1.3,2.2,1.8,2.7
			s1.2,0.8,1.6,1.7c0.3,0.9,0.4,1.8,0.2,2.6c-0.3,1.5-2.5,0.3-4-0.3c-1-0.4-4-3-4.8-3.9C45.4,99.3,44.5,95.1,46,92.7"/>
		<path class="st5" d="M99.5,27.4c46.2,0,46.5,38.7,44.4,64c3.2-6,12.5-4.1,11.8,5.3c-0.7,9.1-14,13.8-13.8,12.7
			c-3.8,20.8-25.5,32.9-42.4,32.9c-0.1,0-0.2,0-0.4,0V27.4C99.2,27.4,99.4,27.4,99.5,27.4"/>
		<path class="st4" d="M152.7,92.7c-2.3-3.6-5.8-2.1-6.7-1.3c-0.9,0.9-1.6,2-1.1,4.2c0.3,1.2,1.6,1.3,1.3,3.1
			c-0.3,2.1-1.3,2.2-1.8,2.7s-1.2,0.8-1.6,1.7c-0.3,0.9-0.4,1.8-0.2,2.6c0.3,1.5,2.5,0.3,4-0.3c1-0.4,4-3,4.8-3.9
			C153.3,99.3,154.2,95.1,152.7,92.7"/>
		<path class="st0" d="M99.1,38.3c-15.2,0-26.3,4.4-33.1,13.1c-9.4,12.2-9.1,30.8-5.6,44.1c1.1,4.1,1.6,15.1,2.4,19.1
			c3.3,18.1,23.2,27.7,36.3,27.7c0.1,0,0.2,0,0.4,0v-104C99.4,38.3,99.3,38.3,99.1,38.3"/>
		<path class="st1" d="M132.1,51.4c-6.7-8.7-17.7-13.1-32.6-13.1v104c15-0.2,32.9-10.7,35.9-27.7c0.7-4,1.3-15,2.3-19.1
			C141.2,82.2,141.6,63.7,132.1,51.4"/>
		<path class="st6" d="M119.9,178.4c0.2,2.5-7.7,14-13.5,21.3H92c-5.8-7.3-13.7-18.8-13.5-21.4c0.2-2.2,0-23,1.4-24.8c1-1.2,0,0,0,0
			l19.3,20.9l18.1-21.6c0,0,1.3,1.1,2.2,1.9c0.3,0.3-2.2,17.3-1.9,17.6C119,174.2,119.7,176.1,119.9,178.4"/>
		<path class="st7" d="M91.8,199.7H55.5c-0.7-0.3-1-0.4-1-0.4c0-2.4,0.1-4.6,0.2-6.7c0.2-2.9,0.5-5.5,1-8c0.5-2.9,1.2-5.6,2-8
			c0.2-0.5,0.4-1,0.6-1.5c0.9-2.4,1.9-4.6,3-6.5c1.6-2.8,3.3-5,5-6.9c0.4-0.4,0.7-0.8,1.1-1.2c5.2-5,10.5-6.6,12.7-7.2
			c0,0.2-0.1,0.3-0.1,0.4c-0.8,3.8-0.7,8.6,0,13.6c0,0.2,0,0.4,0.1,0.6c0.1,0.4,0.1,0.8,0.2,1.2c0,0.1,0,0.2,0,0.2
			c0.1,0.4,0.2,0.8,0.2,1.2c0.6,3.4,1.5,6.7,2.7,9.8c0.9,2.6,2.5,6.2,4.4,10.2c0.3,0.7,0.6,1.4,0.9,2.1c0.2,0.4,0.3,0.7,0.5,1.1
			c0.5,1,1,1.9,1.4,2.9c0.2,0.3,0.3,0.6,0.4,0.9c0,0.1,0.1,0.2,0.1,0.2C91.2,198.3,91.5,199,91.8,199.7
			C91.8,199.6,91.8,199.6,91.8,199.7"/>
		<path class="st8" d="M58.2,192.5v7.2h-2.7c-0.7-0.3-1-0.4-1-0.4c0-2.4,0.1-4.6,0.2-6.7h3.5V192.5z"/>
		<rect x="66.2" y="176.4" class="st8" width="8" height="8"/>
		<rect x="66.2" y="192.5" class="st8" width="8" height="7.2"/>
		<rect x="82.3" y="192.5" class="st8" width="8" height="7.2"/>
		<rect x="74.3" y="184.5" class="st8" width="8" height="8"/>
		<rect x="58.2" y="184.5" class="st8" width="8" height="8"/>
		<path class="st8" d="M58.2,176.4v8h-2.5c0.5-2.9,1.2-5.6,2-8H58.2z"/>
		<path class="st8" d="M66.2,168.4v8h-8v-1.5c0.9-2.4,1.9-4.6,3-6.5H66.2z"/>
		<path class="st8" d="M74.3,160.4v8h-8v-6.9c0.4-0.4,0.7-0.8,1.1-1.2L74.3,160.4L74.3,160.4z"/>
		<path class="st9" d="M97.5,199.7h-8.6c-0.4-0.4-0.7-0.8-1.1-1.1c-17.6-18.5-20.3-32.1-20.3-32.1l7.2-3.2l-4.5-2.9
			c0,0,1.7-1.9,4.9-4.8c0.9-0.8,2.2-1.7,3.6-2.6c2.5-1.5,5.1-2.3,5.7-2.4c-0.2,0.2-2,2-1.6,13.2c0.1,0.8,0.1,1.5,0.2,2.2
			c0,0.2,0,0.3,0.1,0.5c0.1,0.4,0.1,0.7,0.2,1.1c0,0.1,0,0.2,0,0.3c0.1,0.4,0.1,0.7,0.2,1.1c1.3,5.6,4.1,12.2,7.2,18.5
			c0.5,1,1,2,1.5,2.9c0.6,1.2,1.3,2.4,1.9,3.6c0.4,0.7,0.7,1.3,1.1,2s0.8,1.4,1.2,2.2C96.9,198.6,97.2,199.1,97.5,199.7"/>
		<path class="st8" d="M106.6,199.7H143c0.7-0.3,1-0.4,1-0.4c0-2.4-0.1-4.6-0.2-6.7c-0.2-2.9-0.5-5.5-1-8c-0.5-2.9-1.2-5.6-2-8
			c-0.2-0.5-0.4-1-0.6-1.5c-0.9-2.4-1.9-4.6-3-6.5c-1.6-2.8-3.3-5-5-6.9c-0.4-0.4-0.7-0.8-1.1-1.2c-5.2-5-10.5-6.6-12.7-7.2
			c0,0.2,0.1,0.3,0.1,0.4c0.8,3.8,0.8,8.6,0,13.6c0,0.2,0,0.4-0.1,0.6c-0.1,0.4-0.1,0.8-0.2,1.2c0,0.1,0,0.2,0,0.2
			c-0.1,0.4-0.2,0.8-0.2,1.2c-0.6,3.4-1.5,6.7-2.7,9.8c-1,2.6-2.5,6.2-4.4,10.2c-0.3,0.7-0.6,1.4-1,2.1c-0.2,0.4-0.3,0.7-0.5,1.1
			c-0.5,1-0.9,1.9-1.4,2.9c-0.1,0.3-0.3,0.6-0.4,0.9c-0.1,0.1-0.1,0.2-0.1,0.2C107.2,198.3,106.9,199,106.6,199.7
			C106.6,199.6,106.6,199.6,106.6,199.7"/>
		<path class="st7" d="M140.2,192.5v7.2h2.7c0.7-0.3,1-0.4,1-0.4c0-2.4-0.1-4.6-0.2-6.7h-3.5V192.5z"/>
		<rect x="124.1" y="176.4" class="st7" width="8" height="8"/>
		<rect x="124.1" y="192.5" class="st7" width="8" height="7.2"/>
		<rect x="108.1" y="192.5" class="st7" width="8" height="7.2"/>
		<rect x="116.1" y="184.5" class="st7" width="8" height="8"/>
		<rect x="132.2" y="184.5" class="st7" width="8" height="8"/>
		<path class="st7" d="M140.2,176.4v8h2.5c-0.5-2.9-1.2-5.6-2-8H140.2z"/>
		<path class="st7" d="M132.2,168.4v8h8v-1.5c-0.9-2.4-1.9-4.6-3-6.5H132.2z"/>
		<path class="st7" d="M124.1,160.4v8h8v-6.9c-0.4-0.4-0.7-0.8-1.1-1.2L124.1,160.4L124.1,160.4z"/>
		<path class="st9" d="M101.2,199.7h8.5c0.4-0.4,0.7-0.8,1-1.1c17.4-18.5,20.1-32.1,20.1-32.1l-7.2-3.2l4.4-2.9c0,0-1.7-1.9-4.8-4.8
			c-0.9-0.8-2.2-1.7-3.5-2.6c-2.5-1.5-5-1.9-5.6-2c0.2,0.2,1.9,1.6,1.5,12.8c-0.1,0.8-0.1,1.5-0.2,2.2c0,0.2-0.1,0.3-0.1,0.5
			c-0.1,0.4-0.1,0.7-0.2,1.1c0,0.1,0,0.2,0,0.3c-0.1,0.4-0.2,0.7-0.2,1.1c-1.3,5.6-4.1,12.2-7.2,18.5c-0.5,1-1,2-1.5,2.9
			c-0.6,1.2-1.3,2.4-1.8,3.6c-0.4,0.7-0.7,1.3-1.1,2s-0.8,1.4-1.2,2.2C101.8,198.6,101.5,199.1,101.2,199.7"/>
		<path class="st10" d="M144.5,78.2h-3.6c-0.3-0.6-0.6-1.1-1-1.5c-0.2-0.3-20.3-0.3-40.3-0.3l0,0c-20-0.1-40.1-0.1-40.3,0.3
			c-0.3,0.2-0.5,0.6-0.7,0.9h-4.4l0.4,13.7l2,0.8c0.7,4.2,4.4,7.4,8.8,7.4h22.4c4.9,0,8.2-4,8.2-9c0,0,0.4-3.2,0.7-4.2
			c0.4-0.9,2.1-2.4,3-2.4c0,0,0,0,0.1,0l0,0c0,0,0,0,0.1,0c0.9,0,2.6,1.5,3,2.4c0.3,1,0.7,4.2,0.7,4.2c0,5,3.3,9,8.2,9h22.4
			c4.3,0,7.8-3,8.7-7l1.6-0.6L144.5,78.2z M92.4,90c0,4-3.2,7.2-7.1,7.2H67.5c-3.9,0-7.1-3.2-7.1-7.2v-4.2c0-1.4,0.5-2.8,1.2-4
			c1.3-1.9,3.4-3.1,5.9-3.1h17.8c3.9,0,7.1,3.2,7.1,7.1V90z M138.6,90c0,4-3.2,7.2-7.1,7.2h-17.8c-3.9,0-7.1-3.2-7.1-7.2v-4.2
			c0-3.9,3.1-7.1,7.1-7.1h17.8c2.5,0,4.6,1.2,5.9,3.1c0.8,1.2,1.2,2.6,1.2,4L138.6,90L138.6,90z"/>
		<path class="st11" d="M118.3,125L118.3,125L118.3,125c-0.2-1.1-0.5-2-0.9-2.8c-0.2-0.5-0.5-1-0.8-1.5c-2.8-6-6.5-9-9-10.5
			c-0.6-0.4-1.2-0.6-1.8-0.9c-0.5-0.2-0.9-0.3-1-0.3h-0.1l0,0c-1.5-0.4-3.2-0.5-5.5-0.5s-4,0.1-5.5,0.5l0,0c0,0,0,0-0.1,0
			s-0.5,0.1-1,0.3c-0.6,0.2-1.2,0.5-1.8,0.9c-2.5,1.4-6.2,4.4-9,10.5c-0.3,0.5-0.6,1-0.8,1.5c-0.4,0.8-0.6,1.8-0.9,2.7
			c0,0,0,0.1-0.1,0.2l0,0c-0.3,1.4-0.5,2.9-0.5,4.4c0,2.8,0.6,5.5,1.5,7.5c0.9,5.3,8.6,17.1,18,17.3c9.4-0.2,17.1-12,18-17.3
			c0.9-2.1,1.5-4.7,1.5-7.5C118.8,127.8,118.6,126.3,118.3,125z M113.1,136c-2.4,1.4-5.8,2.4-9.6,2.8c0.2-0.8,0.3-1.7,0.3-2.7v-3.3
			c0-1.2-0.2-2.4-0.6-3.5c-1.3-0.2-2.6-0.3-4-0.3c-1.3,0-2.7,0.1-4,0.3c-0.3,1-0.6,2.2-0.6,3.5v3.3c0,1,0.1,1.9,0.3,2.7
			c-3.8-0.4-7.2-1.4-9.6-2.8c-0.7-1.9-1.1-4.1-1.1-6.6c0-1,0.1-2,0.2-2.9c0.1-0.1,1.9-1.5,5-2.8c4.2-1.6,10.8-2.8,19.1,0.1
			c1.7,0.6,3.4,1.3,5.3,2.3c0.2,1,0.3,2.1,0.3,3.3C114.2,131.8,113.8,134.1,113.1,136z"/>
	</g>
</g>
</svg>
