<?xml version="1.0" encoding="utf-8"?>
<!-- Generator: Adobe Illustrator 22.0.0, SVG Export Plug-In . SVG Version: 6.00 Build 0)  -->
<svg version="1.1" id="Ebene_1" xmlns="http://www.w3.org/2000/svg" xmlns:xlink="http://www.w3.org/1999/xlink" x="0px" y="0px"
	 viewBox="0 0 200 200" style="enable-background:new 0 0 200 200;" xml:space="preserve">
<style type="text/css">
	.st0{fill:#E6C5A1;}
	.st1{fill:#F5D7B3;}
	.st2{clip-path:url(#SVGID_2_);fill:#C89F81;}
	.st3{fill:#D8AD8B;}
	.st4{fill:#C89F81;}
	.st5{fill:#E4BEA0;}
	.st6{fill:#22201C;}
	.st7{fill:#9D5256;}
	.st8{fill:#FCFCFC;}
	.st9{fill:#FFFFFF;}
	.st10{fill:#3D3937;}
	.st11{opacity:0.7;fill:#7692B3;enable-background:new    ;}
	.st12{opacity:0.3;fill:#D5DAE0;enable-background:new    ;}
</style>
<g id="Ebene_2_1_">
	<g>
		<path class="st0" d="M100.1,119.4v80.2H56.4c-0.7-0.3-1.1-0.5-1.1-0.5c0-33.1,15.8-42.7,23.1-45.3c2.2-0.8,3.6-1,3.6-1
			c2.7,0,4.3-3.4,5.5-8.6c0.2-0.8,0.3-1.6,0.5-2.5c0.2-1.5,0.4-3,0.6-4.6c0.1-1,0.2-2,0.3-3c0.4-4.9,0.5-10.3,0.5-15.4
			C89.4,118.9,95.3,119.4,100.1,119.4"/>
		<path class="st1" d="M144.9,199.2c0,0-0.4,0.1-1,0.5h-43.8v-80.2h0.1c4.7,0,10.7-0.6,10.7-0.6c0,5.1,0.1,10.3,0.5,15.2
			c0.1,1,0.2,1.9,0.3,2.9c0.2,1.7,0.3,3.3,0.6,4.8l0,0c0.1,0.7,0.2,1.3,0.4,1.9c1.1,5.5,2.9,9.2,5.7,9.2c0,0,2.3,0.3,5.5,1.7
			C131.5,158.2,144.9,168.8,144.9,199.2"/>
		<g>
			<g>
				<defs>
					<rect id="SVGID_1_" x="88" y="134.1" width="24.2" height="14.3"/>
				</defs>
				<clipPath id="SVGID_2_">
					<use xlink:href="#SVGID_1_"  style="overflow:visible;"/>
				</clipPath>
				<path class="st2" d="M112.2,141.8L112.2,141.8c-1.1,1.7-4.8,6.6-12.1,6.6H100c-6.9,0-11-5.1-12-6.5c0.2-1.5,0.5-3,0.6-4.7
					c0.1-1,0.2-2,0.3-3c3.4,0.8,7.1,1.4,11,1.4h0.1c4-0.1,7.8-0.6,11.3-1.6c0.1,1,0.2,1.9,0.3,2.9
					C111.8,138.7,111.9,140.3,112.2,141.8"/>
			</g>
		</g>
		<path class="st3" d="M99.2,27.4c-46.2,0-46.5,38.7-44.4,64c-3.2-6-12.5-4.1-11.8,5.3c0.8,9.1,14,13.8,13.8,12.8
			c3.8,20.8,25.5,32.9,42.4,32.9c0.1,0,0.2,0,0.4,0v-115C99.5,27.4,99.4,27.4,99.2,27.4"/>
		<path class="st4" d="M46,92.7c2.3-3.6,5.8-2.1,6.7-1.3c0.9,0.9,1.6,2,1.1,4.2c-0.3,1.2-1.6,1.3-1.3,3.2c0.3,2.1,1.3,2.2,1.8,2.7
			s1.2,0.8,1.6,1.7c0.3,0.9,0.4,1.8,0.2,2.6c-0.4,1.5-2.5,0.3-4-0.4c-1-0.4-4-3-4.8-3.9C45.4,99.3,44.5,95.1,46,92.7"/>
		<path class="st5" d="M99.5,27.4c46.2,0,46.5,38.7,44.4,64c3.2-6,12.6-4.1,11.8,5.3c-0.7,9.1-14,13.8-13.8,12.8
			c-3.8,20.8-25.5,32.9-42.4,32.9c-0.1,0-0.2,0-0.3,0v-115C99.2,27.4,99.4,27.4,99.5,27.4"/>
		<path class="st4" d="M152.7,92.7c-2.3-3.6-5.8-2.1-6.7-1.3c-0.9,0.9-1.6,2-1.1,4.2c0.3,1.2,1.6,1.3,1.3,3.2
			c-0.3,2.1-1.3,2.2-1.9,2.7c-0.5,0.5-1.2,0.8-1.6,1.7c-0.3,0.9-0.4,1.8-0.2,2.6c0.3,1.5,2.5,0.3,4-0.4c1-0.4,4-3,4.8-3.9
			C153.3,99.3,154.2,95.1,152.7,92.7"/>
		<path class="st0" d="M99.8,38.3c-15.2,0-26.3,4.4-33.1,13.1c-9.4,12.2-9.1,30.8-5.6,44.1c1.1,4.1,1.6,15.1,2.3,19.1
			c3.3,18.1,23.2,27.7,36.3,27.7c0.1,0,0.2,0,0.3,0v-104C100,38.3,99.9,38.3,99.8,38.3"/>
		<path class="st1" d="M132.8,51.4c-6.7-8.7-17.7-13.1-32.7-13.1v104c15-0.2,32.9-10.7,36-27.7c0.7-4,1.3-15,2.3-19.1
			C141.9,82.2,142.2,63.7,132.8,51.4"/>
		<path class="st6" d="M144.9,199.2c0,0-0.4,0.1-1,0.5H56.4c-0.7-0.3-1.1-0.5-1.1-0.5c0-33.1,15.8-42.6,23.1-45.3
			c4.2,2.1,11,5.5,13.5,6.6c1.9,0.8,4.6,2.8,8.2,2.8c3.3-0.1,7.3-2.1,12.1-3.6c4.4-1.4,8.4-3.4,11.5-5.1
			C131.5,158.2,144.9,168.8,144.9,199.2"/>
		<polygon class="st7" points="90.3,171.4 107.5,171.4 103.9,177.6 98.9,186.4 93.9,177.6 		"/>
		<path class="st8" d="M135.8,101.9c-0.7,3.5-9.3,26-15.4,30.9c-0.1-0.3-0.3-0.7-0.4-1c-1.5-7.8-10.1-13.7-20.5-13.7
			c-9.9,0-18.1,5.3-20.2,12.5c-0.5,0.7-0.9,1.4-1.2,2.2c-6.1-4.9-10.3-18.5-11-22c0,0-15.8-7.4-15.5-3.4c0.1,1.2,13.5,27.5,17,31.4
			c-2.3,11.5,7.2,10.4,13.9,27h16h1.1H116c6.9-16.8,18.4-21.5,15.8-33.1c3.3-3.6,17.9-25.2,18-26.3
			C150,102.3,135.8,101.9,135.8,101.9z M103.2,128.7c5.1,0.7,9.6,2.9,12.7,6c0,0.2,0.1,0.4,0.1,0.6c-1,0.3-2,0.6-3.1,0.6
			c-3.9,0.3-8.7-1.2-13.6-1.2l0,0c0,0-9.8,1.5-13.6,1.2c-1.1-0.1,0.1-0.3-0.9-0.6c3.1-3.4,5.7-5.8,11.1-6.6c1.2-0.2,2.4-0.3,3.7-0.3
			C100.8,128.4,102,128.5,103.2,128.7z"/>
		<path class="st9" d="M145.1,93.5c-1,0.9-2,2.1-2.8,4.1c-1.5,3.9-2.1,3.3-2.1,3.3s2.4-15.4,2.4-19.7s-13.4-25.9-20.9-28.5
			c-7.5-2.5-14.3,6-22.3,6h-0.6c-7.9-0.2-14.9-8.5-22.3-6C69,55.2,55.6,76.9,55.6,81.2s2.4,19.7,2.4,19.7s-0.6,0.7-2.1-3.3
			c-0.9-2.3-2.2-3.6-3.3-4.5c-2-26.7-0.9-65.9,46.2-65.9H99C146.3,27.2,147.2,66.9,145.1,93.5"/>
		<path class="st10" d="M148.9,81.1c-4-4.5-14-11.1-45.4-11.6c-0.9,0-4.5,0-5.4,0C66.3,70,56.6,76.7,52.6,81.1
			c-4.4,4.9-3.5,15.7-1.9,24.1S84,116.4,86.4,114c3.2-3.1,8-13.7,14.3-13.6c6.3-0.1,11.1,10.5,14.3,13.6c2.5,2.4,34.2-0.4,35.7-8.8
			C152.3,96.9,153.3,86,148.9,81.1z M145.6,104.6c-0.1,0.3-1.7,2.1-8.3,3.8c-5.8,1.5-12.6,2.2-16.7,2.2l0,0c-1,0-1.8,0-2.2-0.1
			c-0.6-0.7-1.3-1.7-1.9-2.7c-3.6-5.2-8.1-11.7-15.6-11.7h-0.2c-7.5,0-12,6.5-15.6,11.7c-0.7,1-1.4,2-1.9,2.7
			c-0.5,0.1-1.2,0.1-2.2,0.1c-4.1,0-10.9-0.7-16.7-2.2c-6.5-1.7-8.2-3.5-8.3-3.8c-2.8-15.3,0-19.9,1-21c5.6-6.2,19.5-9.6,41.3-9.9
			c0.4,0,1.6,0,2.6,0c1.1,0,2.2,0,2.6,0c15,0.2,34.3,2.1,41.3,9.9C145.6,84.7,148.5,89.3,145.6,104.6z"/>
		<path class="st11" d="M120.6,110.6c-1,0-1.8,0-2.2-0.1c-0.6-0.7-1.3-1.7-1.9-2.7c-3.6-5.2-8.1-11.7-15.6-11.7h-0.2
			c-7.5,0-12,6.5-15.6,11.7c-0.7,1-1.4,2-1.9,2.7c-0.5,0.1-1.2,0.1-2.2,0.1c-4.1,0-10.9-0.7-16.7-2.2c-6.5-1.7-8.2-3.5-8.3-3.8
			c-2.8-15.3,0-19.9,1-21c5.6-6.2,19.5-9.6,41.3-9.9c0.4,0,1.6,0,2.6,0c1.1,0,2.2,0,2.6,0c15,0.2,34.3,2.1,41.3,9.9
			c0.9,1.1,3.8,5.7,1,21c-0.1,0.3-1.7,2.1-8.3,3.8C131.5,110,124.8,110.6,120.6,110.6L120.6,110.6z"/>
		<path class="st12" d="M144.4,86.3c-7-7.8-26.3-9.6-41.3-9.9c-0.4,0-1.5,0-2.6,0s-2.2,0-2.6,0C76,76.7,62.1,80,56.5,86.3
			c-0.2,0.2-0.5,0.7-0.8,1.4c0.1,0.8,0.3,1.7,0.4,2.6c0.1,0.4,1.7,2.1,8.3,3.8c5.8,1.5,12.6,2.2,16.7,2.2c1,0,1.8,0,2.3-0.1
			c0.6-0.7,1.2-1.7,1.9-2.7c3.6-5.2,8.1-11.7,15.6-11.7h0.2c7.5,0,12,6.5,15.6,11.7c0.7,1,1.4,2,1.9,2.7c0.5,0,1.2,0.1,2.2,0.1l0,0
			c4.1,0,10.9-0.7,16.7-2.2c6.5-1.7,8.2-3.5,8.3-3.8c0-0.2,0.1-0.3,0.1-0.5C145.5,87.7,144.8,86.7,144.4,86.3z"/>
	</g>
</g>
</svg>
