<?xml version="1.0" encoding="utf-8"?>
<!-- Generator: Adobe Illustrator 22.0.0, SVG Export Plug-In . SVG Version: 6.00 Build 0)  -->
<svg version="1.1" id="Ebene_1" xmlns="http://www.w3.org/2000/svg" xmlns:xlink="http://www.w3.org/1999/xlink" x="0px" y="0px"
	 viewBox="0 0 200 200" style="enable-background:new 0 0 200 200;" xml:space="preserve">
<style type="text/css">
	.st0{fill:#161410;}
	.st1{fill:#E6C5A1;}
	.st2{fill:#F5D7B3;}
	.st3{clip-path:url(#SVGID_2_);fill:#C89F81;}
	.st4{fill:#D8AD8B;}
	.st5{fill:#E4BEA0;}
	.st6{fill:#C89F81;}
	.st7{fill:#6D6968;}
	.st8{fill:#FFFFFF;}
	.st9{fill:#EEC600;}
	.st10{fill:#BD1622;}
	.st11{fill:#4A2B16;}
	.st12{fill:#2C2415;}
	.st13{fill:#2D2624;}
</style>
<g id="Ebene_2_1_">
	<g>
		<path class="st0" d="M132.1,94.3c-3.6,0-28.9,29.5-31.3,34.4c-2.4-5-23-29.4-26.6-29.4c-7.3,0-18,19.5-18,34.9s28,42.3,35.3,42.3
			c3.6,0,6.9-3.1,9.3-8c2.4,5,5.7,8,9.3,8c7.3,0,30.1-29.8,29.1-48.2C138.4,113,139.4,94.3,132.1,94.3"/>
		<path class="st1" d="M99.3,119v80.7H55.5c-0.7-0.3-1.1-0.5-1.1-0.5c0-16.2,3.8-26.8,8.4-33.7c7.9-11.6,18.4-12.9,18.4-12.9
			c0.8,0,1.6-0.3,2.2-0.9l0,0c0.2-0.2,0.4-0.4,0.6-0.7c1.1-1.5,2-3.9,2.6-7c0.2-0.8,0.3-1.6,0.4-2.5c0.2-1.5,0.5-3,0.6-4.7
			c0.1-1,0.2-2,0.3-3c0.4-5,0.5-10.3,0.5-15.4C88.7,118.4,94.6,119,99.3,119"/>
		<path class="st2" d="M144.4,199.2c0,0-0.4,0.1-1,0.5h-44V119h0.1c4.8,0,10.7-0.6,10.7-0.6c0,5.1,0.1,10.4,0.5,15.3
			c0.1,1,0.2,2,0.3,2.9c0.2,1.7,0.4,3.3,0.6,4.8l0,0c0.1,0.7,0.2,1.3,0.3,1.9c0.8,4,1.9,7,3.5,8.4c0.7,0.6,1.4,0.9,2.2,0.9
			C117.6,152.7,144.4,156,144.4,199.2"/>
		<g>
			<g>
				<defs>
					<rect id="SVGID_1_" x="87.2" y="133.7" width="24.3" height="14.4"/>
				</defs>
				<clipPath id="SVGID_2_">
					<use xlink:href="#SVGID_1_"  style="overflow:visible;"/>
				</clipPath>
				<path class="st3" d="M111.5,141.5L111.5,141.5c-1.1,1.8-4.8,6.6-12.2,6.6h-0.1c-7,0-11-5.1-12.1-6.6c0.2-1.5,0.5-3.1,0.6-4.7
					c0.1-1,0.2-2,0.3-3c3.4,0.9,7.1,1.4,11.1,1.5h0.1c4.1-0.1,7.8-0.6,11.3-1.6c0.1,1,0.2,2,0.3,2.9
					C111.1,138.4,111.3,140,111.5,141.5"/>
			</g>
		</g>
		<path class="st4" d="M99.4,26.5c-46.4,0-46.7,38.9-44.6,64.3c-3.2-6-12.6-4.2-11.8,5.3c0.7,9.2,14,13.9,13.8,12.9
			c3.8,20.9,25.7,33.1,42.6,33.1c0.1,0,0.2,0,0.4,0V26.5C99.7,26.5,99.6,26.5,99.4,26.5"/>
		<path class="st5" d="M99.7,26.5c46.5,0,46.7,38.9,44.7,64.3c3.2-6,12.6-4.2,11.8,5.3c-0.7,9.2-14.1,13.9-13.9,12.8
			c-3.8,20.9-25.7,33.1-42.6,33.1c-0.1,0-0.2,0-0.4,0V26.5C99.4,26.5,99.6,26.5,99.7,26.5"/>
		<path class="st6" d="M153.2,92.1c-2.3-3.7-5.8-2.1-6.7-1.3c-0.9,0.9-1.7,2-1.1,4.2c0.3,1.2,1.6,1.3,1.3,3.2
			c-0.3,2.1-1.3,2.2-1.9,2.7c-0.5,0.5-1.2,0.8-1.6,1.7c-0.3,0.9-0.4,1.8-0.2,2.6c0.4,1.5,2.5,0.3,4-0.3c1-0.4,4-3,4.8-3.9
			C153.8,98.8,154.8,94.6,153.2,92.1"/>
		<path class="st1" d="M99.1,37.4c-15.3,0-26.5,4.4-33.3,13.2c-9.4,12.2-9.1,30.9-5.6,44.4c1.1,4.1,1.6,15.2,2.3,19.2
			C65.8,132.3,85.8,142,99,142c0.1,0,0.2,0,0.3,0V37.4C99.3,37.4,99.2,37.4,99.1,37.4"/>
		<path class="st2" d="M132.2,50.7c-6.7-8.7-17.8-13.1-32.8-13.2V142c15.1-0.2,33.1-10.7,36.2-27.8c0.7-4.1,1.3-15.1,2.4-19.2
			C141.4,81.6,141.7,62.9,132.2,50.7"/>
		<path class="st7" d="M66.5,100.6c-2.4,0-9.2-9.9-9.3-10l1.3-0.7c2.6,3.6,6.9,8.9,7.9,9.2c0,0-0.2,0-0.3,0.1
			c-0.1,0-0.1,0.1-0.1,0.2l1.6-0.1c0,1-0.7,1.2-0.9,1.3C66.6,100.6,66.6,100.6,66.5,100.6"/>
		<path class="st7" d="M132.3,100.6c-0.1,0-0.1,0-0.2,0c-0.2-0.1-0.9-0.3-0.9-1.3h1.5c0,0-0.1-0.1-0.2-0.2c-0.1-0.1-0.3-0.1-0.3-0.1
			c1-0.3,5.3-5.6,7.9-9.2l1.3,0.7C141.6,90.7,134.7,100.6,132.3,100.6"/>
		<path class="st8" d="M144.4,199.2c0,0-0.4,0.1-1,0.5H55.5c-0.7-0.3-1.1-0.5-1.1-0.5c0-7.2,0.7-13.2,1.9-18.3v-0.1
			c0.2-0.7,0.4-1.4,0.6-2.1c0.2-0.7,0.4-1.3,0.5-1.9c0.4-1.3,0.8-2.5,1.3-3.6c0.3-0.8,0.6-1.6,1-2.3c0.7-1.7,1.6-3.1,2.4-4.5
			c0.2-0.3,0.4-0.7,0.6-1c1.6-2.4,3.3-4.4,5.1-5.9c1.1-1.1,2.2-2,3.3-2.7c0.2-0.2,0.4-0.3,0.6-0.5c0.8-0.5,1.6-1,2.3-1.3l0,0
			c0.3-0.2,0.6-0.4,0.9-0.5c0.1-0.1,0.3-0.1,0.4-0.2c1.6-0.8,3-1.3,4-1.5l0,0c0.7-0.2,1.2-0.3,1.5-0.3H81c0.2-0.1,0.3-0.1,0.3-0.1
			c0.8,0,1.6-0.3,2.2-0.9l0,0c0.3-0.1,0.7-0.1,1,0c2.9,0.8,5.8,6.9,8.8,11.5c0.4,0.6,0.8,1.2,1.2,1.8c1.6,2.1,3.1,3.6,4.7,3.6h0.1
			c5.6,0,11-18,16-16.9c0.7,0.6,1.4,0.9,2.2,0.9C117.6,152.3,144.4,155.6,144.4,199.2"/>
		<polygon class="st0" points="97.4,138.6 99.4,135.2 101.4,138.6 103.4,142 99.4,142 95.5,142 		"/>
		<path class="st0" d="M95.2,99.9c0,8.1-6.6,14.7-14.7,14.7S65.8,108,65.8,99.9s6.6-14.7,14.7-14.7C88.6,85.2,95.2,91.8,95.2,99.9"
			/>
		<path class="st0" d="M132.7,99.9c0,8.1-6.6,14.7-14.7,14.7s-14.7-6.6-14.7-14.7s6.6-14.7,14.7-14.7
			C126.1,85.2,132.7,91.8,132.7,99.9"/>
		<path class="st9" d="M83.2,188.2l-1.8-1.8l-1.5-1.7l-1.5-2l-1.7-0.7l-1.5-1.8l-1.4-2.6l-1.8-0.4l-0.6-1.1l-0.9-1.6l-1.9-0.4
			l-1.6-1.6l-1.7-1.6l-0.6-1.1l0,0l-0.9-1.5l-1.7-1.7l0,0c0.2-0.3,0.4-0.7,0.6-1c1.6-2.4,3.3-4.3,5.1-5.9c1.1-1,2.2-1.9,3.3-2.6
			l0.6-0.4c0.8-0.5,1.6-1,2.3-1.3l0,0l0.9-0.5c0.1-0.1,0.3-0.1,0.4-0.2l0.1,0.3l0.2,0.5l0.1,2l1.7,2.6l-0.5,1.9l0.9,1.4l0.7,1.1
			l-0.2,2l1,2.4l0.4,2.1v2l0.8,2.3l0.4,2.1l0.7,2.2l-0.5,1.8l0.1,2l1.1,2.4L83.2,188.2z"/>
		<path class="st10" d="M90.9,199.7H64.2c0.2-3.6,0.4-10.3,0.3-19.3c0-4-0.8-9.4-1.7-15.3c7.9-11.8,18.4-13.1,18.4-13.1
			c0.8,0,1.6-0.3,2.2-0.9l0,0c0.2-0.2,0.4-0.5,0.6-0.8c0.1,0.1,0.2,0.3,0.4,0.8c1.2,3.3,4.2,16.4,4.9,21.6
			C90.9,183.5,91,194.5,90.9,199.7"/>
		<path class="st9" d="M115.6,188.2l1.8-1.8l1.5-1.7l1.4-2l1.7-0.7l1.5-1.8l1.4-2.6l1.8-0.4l0.6-1.1l0.9-1.6l1.9-0.4l1.6-1.6
			l1.7-1.6l0.7-1.1l0,0l0.9-1.5l1.7-1.7l0,0c-0.2-0.3-0.4-0.7-0.7-1c-1.6-2.4-3.3-4.3-5-5.9c-1.1-1-2.2-1.9-3.3-2.6l-0.6-0.4
			c-0.8-0.5-1.6-1-2.3-1.3l0,0l-0.9-0.5c-0.1-0.1-0.3-0.1-0.4-0.2l-0.1,0.3l-0.2,0.5l-0.1,2l-1.7,2.6l0.5,1.9l-0.9,1.4l-0.7,1.1
			l0.2,2l-1.1,2.4L119,171v2l-0.8,2.3l-0.4,2.1l-0.7,2.2l0.5,1.8l-0.1,2l-1.1,2.4L115.6,188.2z"/>
		<path class="st11" d="M107.8,199.7h26.8c-0.2-3.6-0.5-10.1-0.3-19c0-3.9,0.7-9.3,1.7-15.1c-7.9-11.6-18.4-12.9-18.4-12.9
			c-0.8,0-1.6-0.3-2.2-0.9l0,0c-0.2-0.2-0.4-0.4-0.6-0.7c-0.1,0-0.2,0.3-0.4,0.8c-1.2,3.3-4.2,16.2-4.9,21.3
			C107.9,183.8,107.8,194.6,107.8,199.7"/>
		<path class="st10" d="M107.8,199.7h26.8c-0.2-3.6-0.5-10.3-0.3-19.3c0-4,0.7-9.4,1.7-15.3c-7.9-11.8-18.4-13.1-18.4-13.1
			c-0.8,0-1.6-0.3-2.2-0.9l0,0c-0.2-0.2-0.4-0.5-0.7-0.8c-0.1,0.1-0.2,0.3-0.4,0.8c-1.2,3.3-4.2,16.4-4.9,21.6
			C107.9,183.5,107.8,194.5,107.8,199.7"/>
		<path class="st7" d="M103.5,101.2c-2.1-1.4-5.6-1.5-8.4-0.3l-0.6-1.4c3.3-1.4,7.3-1.3,9.9,0.4L103.5,101.2z"/>
		<path class="st12" d="M114.5,149.8l-0.9-0.6c0.8,3.9-1.6,6.9-4.2,9.6c-1.3,1.4-2.7,2.8-3.7,4.4c-1.9,3.3-4,5.7-6.3,8.4
			c-0.4-1.1-1.2-2-1.9-2.8c-2.3-2.4-3.6-4.3-5.5-7l-0.3-0.5c-0.8-1.1-1.8-2.1-2.8-3.1c-2.2-2.2-4.3-5.1-4.1-8.1l-0.9,0.3
			c-0.2,3.4,2.2,6,4.5,8.3c1,1,2,2,2.7,3l0.3,0.5c1.9,2.7,3.2,4.6,5.5,7.1c0.8,0.8,1.6,1.9,1.8,3l-0.4,0.4l0.5-0.1
			c-0.4,0.1,0,0,0,0.1h0.1h0.5h0.5c0-0.1-0.1-0.4-0.1-0.5c0,0,4.5-5.1,6.6-8.6c0.9-1.5,2.2-2.9,3.6-4.2
			C112.6,156.6,115.5,154.1,114.5,149.8"/>
		<g>
			<path class="st13" d="M91.4,91.4l-15,21.6l0,0c-2.7-0.9-5-2.5-6.7-4.7l15-21.5l0,0C87.3,87.6,89.6,89.2,91.4,91.4"/>
		</g>
		<path class="st0" d="M155.8,124.9c-2.4-7.2-2.8-20.3-2.6-25.9c0.2-5.6-3.9-10.7-3.8-15.3c0-1.5-0.2-2.9-0.2-4.3
			c-0.1-3.6,0-7.1-0.6-10.3c-0.8-4.2,0.4-8.2-0.1-11.8c-0.2-1.4,1.4-2.6,0.9-3.9c-6.4-13.7-15.3-22-17.6-22.4
			c-0.5-0.1-1.1-0.2-1.6-0.2c-0.4-1.7-1.2-3.4-2.8-4.5c-3.9-2.5-3.2-2.2-8.8-2.2c-5.6,0-5.1-7.6-19.4-7.6
			c-14.1,1.3-13.8,7.6-19.4,7.6s-4.9-0.3-8.8,2.2c-1.6,1-2.4,2.8-2.8,4.5c-0.5,0-1.1,0.1-1.6,0.2c-2.3,0.4-11.2,7.8-17.5,21.1
			c-0.7,1.6,0.5,4,0.3,5.9c-0.4,3.3,0.6,6-0.1,9.7c-0.7,3.7,1.7,7.5,1.6,11.7c0,1.4-2,2.9-1.9,4.3c0.2,4.6-4,9.7-3.8,15.3
			c0.2,5.6-0.2,18.7-2.6,25.9c-2.4,7.2-3.4,13.3-2.7,17.1s-0.3,5.8,4.6,11.7c3.1,3.7,8,5.5,8,5.5s-3.1-2.4-3.8-7
			c-0.2-1.3,0.3-9,0.3-9s-6.6-0.4,6.5,16.5c3.1,4-2.9,10.4-2.9,10.4s3.2-1.5,6.8-6.5s1-14.1,1-14.1s-0.3,7.8-0.2,10.6
			c0.8,14,10.3,10.2,10.3,15.5s-1.7,7.6-1.7,7.6s6.8-5,6.5-9.7c-0.2-4.7-4.4-7.5-4.4-7.5s1.9,0.8,4.4,7.5
			c3.9,10.6-5.6,15.3-5.6,15.3s4.6,0,8.3-3.4c3.6-3.4,10.4-9.2,3.8-22.8c-1.4-2.9-4.3-5.9-8.5-10.3c-4.2-4.4-9.8-18.5-10.5-25
			c-0.3-2.8-0.8-20.2-1.3-28.7C61,90.2,60.7,83,63.4,74.2c2.7-8.7,7.3-11.9,13.8-15.2c6.6-3.4,4.6,0.2,10.4,0
			c4.3-0.2,4.1-1.5,3.7-2.1c0.7,0.8,2.6,2.6,5.7,2.1c0.9-0.1,1.5-0.3,1.9-0.6c0.4,0.2,1,0.4,1.9,0.6c3.2,0.4,5.1-1.3,5.8-2.1
			c-0.4,0.7-0.6,2,3.7,2.1c5.8,0.2,3.9-3.4,10.4,0c6.6,3.4,11.2,6.5,13.8,15.2c2.7,8.8,2.4,15.9,1.9,24.4c-0.5,8.4-0.6,26.2-0.9,29
			c-0.7,6.5-6.2,20-10.4,24.4c-4.2,4.4-7.6,8.2-9.3,11c-3.9,6.3-3,9.6-2.9,11.3c0.9,11.8,7.3,13.4,7.3,13.4s-7.4-5.5,2.4-14.2
			c6.5-5.7,4.4-7.5,4.4-7.5s-1.1,2.1-0.1,4.5c0.8,1.9,3.3,4.5,3.3,6.5c0,4.2-1.1,6.1-1.1,6.1s6.2-6.4,7.7-11.5
			c1.6-5.3,1.4-9.2,1.4-12s-0.6-10.2-0.6-10.2s-2.7,9.1,1,14.1c3.6,5,7.1,4,7.1,4s-5.1-1.2-4.5-6.2s6.6-14.3,6.6-14.3
			s1.8,3.1,0.9,6.6c-1.2,4.5-4.7,5.8-4.7,5.8s4.8-0.2,8.9-6.8c4.1-6.6,4.7-11.5,5.4-15.3C159.4,133.7,158.2,132.1,155.8,124.9"/>
		<g>
			<g>
				<path class="st13" d="M128.8,91.4L113.9,113l0,0c-2.7-0.9-5.1-2.5-6.8-4.7l15-21.5l0,0C124.8,87.6,127.1,89.2,128.8,91.4"/>
			</g>
		</g>
		<path class="st9" d="M102.3,75.3c0,0.4-0.3,0.7-0.7,0.7c-0.4,0-0.7-0.3-0.7-0.7c0-0.4,0.3-0.7,0.7-0.7
			C102,74.6,102.3,75,102.3,75.3"/>
		<path class="st0" d="M103,175c0,2.1-1.7,3.7-3.7,3.7c-2.1,0-3.7-1.7-3.7-3.7c0-2.1,1.7-3.7,3.7-3.7S103,173,103,175z"/>
	</g>
</g>
</svg>
