<?xml version="1.0" encoding="utf-8"?>
<!-- Generator: Adobe Illustrator 22.0.0, SVG Export Plug-In . SVG Version: 6.00 Build 0)  -->
<svg version="1.1" id="Ebene_1" xmlns="http://www.w3.org/2000/svg" xmlns:xlink="http://www.w3.org/1999/xlink" x="0px" y="0px"
	 viewBox="0 0 200 200" style="enable-background:new 0 0 200 200;" xml:space="preserve">
<style type="text/css">
	.st0{fill:#422D1A;}
	.st1{fill:#E6C5A1;}
	.st2{fill:#F5D7B3;}
	.st3{clip-path:url(#SVGID_2_);fill:#C89F81;}
	.st4{fill:#D8AD8B;}
	.st5{fill:#C89F81;}
	.st6{fill:#E4BEA0;}
	.st7{fill:#5F3F22;}
	.st8{fill:#161410;}
	.st9{fill:#CCA069;}
	.st10{fill:#856350;}
</style>
<g id="Ebene_2_1_">
	<g>
		<path class="st0" d="M139.9,121.6c-1.3-7.8-0.5-4.9,1.2-12c0,0-0.2,0.1-0.6,0.4c2.5-7.1,3.9-15,3.9-23.3c0-31.6-20.2-57.2-45-57.2
			c-24.9,0-45,25.6-45,57.2c0,8.2,1.4,16,3.8,23.1c-0.1-0.1-0.2-0.1-0.2-0.1c1.7,7.1,2.5,4.2,1.2,12c-1.2,6.7-4.6,8.4-4.6,8.4
			s5.3-2.6,6.6-4.3c0.6-0.8,2.3-3.2,2.8-3.9c0,0,0,0,0,0.1c-0.3,0.8-1,3.2,0,8c1.3,6.3,6.6,10.5,6.6,10.5s-3.2-5-2.3-10.5
			c0,0-0.2,2.2,5,8.3c5.1,6.1,14.7,11.4,14.7,11.4s-0.2-3.8-0.3-7.9c3.8,1.3,7.7,2,11.7,2c4.2,0,8.2-0.8,12-2.1
			c-0.1,4.2-0.3,8-0.3,8s9.6-5.3,14.7-11.4c5.1-6.1,5-8.3,5-8.3c0.9,5.5-2.3,10.5-2.3,10.5s5.3-4.2,6.5-10.5
			c1.2-5.9-0.1-8.3-0.1-8.3s2.2,3.1,2.9,4.1c1.3,1.7,6.6,4.3,6.6,4.3S141.1,128.3,139.9,121.6"/>
		<path class="st1" d="M99.7,119v80.7H55.9c-0.7-0.3-1.1-0.4-1.1-0.4c0-40,23-45.8,26.4-46.4c0.3,0,0.4-0.1,0.4-0.1
			c2.7,0,4.4-3.5,5.5-8.7c0.2-0.8,0.3-1.6,0.5-2.5c0.2-1.5,0.5-3.1,0.6-4.7c0.1-1,0.2-2,0.3-3c0.4-4.9,0.5-10.3,0.5-15.4
			C89.1,118.4,95,119,99.7,119"/>
		<path class="st2" d="M144.8,199.2c0,0-0.4,0.1-1,0.4H99.7V119h0.1c4.8,0,10.7-0.6,10.7-0.6c0,5.1,0.1,10.4,0.5,15.3
			c0.1,1,0.2,2,0.3,2.9c0.2,1.7,0.4,3.3,0.6,4.8l0,0c0.1,0.7,0.2,1.3,0.3,1.9c1.1,5.6,2.9,9.3,5.7,9.3c0,0,0.4,0.1,1.1,0.2l0,0
			C124.4,154.2,144.8,161.4,144.8,199.2"/>
		<g>
			<g>
				<defs>
					<rect id="SVGID_1_" x="87.7" y="133.8" width="24.3" height="21.8"/>
				</defs>
				<clipPath id="SVGID_2_">
					<use xlink:href="#SVGID_1_"  style="overflow:visible;"/>
				</clipPath>
				<path class="st3" d="M112,141.5L112,141.5c-1.1,1.8-4.8,14.1-12.1,14.1h-0.1c-7,0-11-12.5-12.1-14c0.2-1.5,0.5-3,0.6-4.7
					c0.1-1,0.2-2,0.3-3c3.4,0.9,7.1,1.4,11.1,1.5h0.1c4.1-0.1,7.8-0.6,11.3-1.6c0.1,1,0.2,2,0.3,2.9
					C111.5,138.4,111.7,140,112,141.5"/>
			</g>
		</g>
		<path class="st4" d="M99.5,26.5c-46.5,0-46.7,38.9-44.7,64.4c-3.2-6-12.6-4.2-11.8,5.3c0.7,9.2,14.1,13.9,13.9,12.8
			c3.8,21,25.7,33.1,42.6,33.1c0.1,0,0.2,0,0.4,0V26.5C99.7,26.5,99.6,26.5,99.5,26.5"/>
		<path class="st5" d="M45.9,92.1c2.3-3.7,5.8-2.1,6.7-1.3c0.9,0.9,1.7,2,1.1,4.2c-0.3,1.2-1.6,1.3-1.3,3.2c0.3,2.1,1.3,2.2,1.9,2.7
			c0.6,0.5,1.2,0.9,1.6,1.7c0.3,0.9,0.4,1.8,0.2,2.6c-0.4,1.5-2.6,0.3-4-0.4c-1-0.4-4-3-4.8-3.9C45.3,98.8,44.4,94.6,45.9,92.1"/>
		<path class="st6" d="M99.7,26.5c46.5,0,46.7,38.9,44.7,64.4c3.2-6,12.6-4.2,11.8,5.3c-0.7,9.2-14.1,13.9-13.9,12.8
			c-3.8,21-25.7,33.1-42.6,33.1c-0.1,0-0.2,0-0.3,0V26.5C99.5,26.5,99.6,26.5,99.7,26.5"/>
		<path class="st5" d="M153.2,92.1c-2.3-3.7-5.8-2.1-6.7-1.3c-0.9,0.9-1.7,2-1.1,4.2c0.3,1.2,1.6,1.3,1.3,3.2
			c-0.3,2.1-1.3,2.2-1.9,2.7c-0.5,0.5-1.2,0.9-1.6,1.7c-0.3,0.9-0.4,1.8-0.2,2.6c0.3,1.5,2.5,0.3,4-0.4c1-0.4,4-3,4.8-3.9
			C153.9,98.8,154.8,94.6,153.2,92.1"/>
		<path class="st1" d="M99.5,37.5C84.2,37.5,73,42,66.2,50.7c-9.5,12.2-9.1,30.9-5.6,44.4c1.1,4.1,1.6,15.2,2.4,19.2
			c3.3,18.1,23.3,27.8,36.5,27.8c0.1,0,0.2,0,0.4,0V37.5C99.7,37.5,99.6,37.5,99.5,37.5"/>
		<path class="st2" d="M132.6,50.8c-6.7-8.7-17.8-13.1-32.8-13.2v104.6c15.1-0.2,33.1-10.8,36.1-27.8c0.7-4.1,1.3-15.1,2.4-19.2
			C141.8,81.7,142.1,63,132.6,50.8"/>
		<path class="st0" d="M84.3,32.1c-2.5-1.4-13.4-5.5-13.4-5.5s3.7,2.2,4.2,4.1S50.5,41.7,47,66.5s5.4,34.7,5.4,34.7
			s-1.6-17.4-1.6-17.3c0,0-0.7,7.8,0,13.9s2.8,13.1,0,20.2c-2.8,7-3.9,7.6-3.9,7.6s8.3-7.5,9.9-12.3c2.8-8.3,1.7-11.7,2.6-16.4
			c0.9-4.6,1.6-17.1,1.6-17.1s-4.1,10,0.7,19.9c1.5,3,3.4,5.1,3.4,5.1S62,98.7,62.6,92c0.4-4.2,3-4.8,8.8-20
			c2.7-7.2,0.4-21.1-0.1-17.7c-0.5,3.4-0.8,11.8,2.1,16c4.4,6.4,10.7,8.5,10.7,8.5s-6.9-5.1-7-14.1c0-4.9,1.9-8.7,1.9-8.7
			s-1.8,10.1,14.3,16.2c4.6,1.8,8.2,0.6,8.2,0.6s-6.7-3.7-6.7-10.2c0,0,10.1,12.4,28.5,16.5c7.1,1.6,11.9,1.1,11.9,1.1
			s0.7-1.5,0.5,5.4s-1.5,9.8-3.2,12.1c-0.7,1-2.8,2.7-2.8,2.7s5.3-1.9,8.7-8.3c2.3-4.4,1.6-10.4,1.6-10.4s0.7,7.3,0,17.3
			c-1,14.5-6.3,20.7-6.3,20.7s5.2-4.2,8.5-12.7c2.5-6.5,1.9-10.5,1.9-10.5s-0.4,10.1,11.8,16.9c0,0-3.5-2.3-5.1-13.5
			c-2.1-14.3,1.5-25.5-1.3-36.7s-3.5-12.3-8.2-18.4c-4.6-6.1-9.1-11-21.6-15s-15.2-2.7-20-2.6c-7.6,0.1-12.5,3.5-12.5,3.5
			s-0.7-2.5,0.4-5.9c1.2-3.4,2.1-5,2.1-5s-3,4.5-3.7,5.6C83.5,30.2,84.3,32.1,84.3,32.1"/>
		<path class="st7" d="M86.9,33.6c1.6,4.6,2.3,9.1,4.4,12l-1.2-8.3c0,0,1.9,5.4,10.7,10.2c8.8,4.9,10.9,4.9,10.9,4.9s-2.1-0.9-7-6.8
			s-6.3-7.3-6.3-7.3s6.9,4.9,11.8,7.3c4.9,2.4,7,3.4,11.4,3.6l4.4,0.3c0,0-3.7-0.2-10-3.9s-16.2-12-16.2-12"/>
		<path class="st0" d="M86.5,32.5c1,2.8,2.4,5.4,3.6,7.1l-0.7-5c0,0,1.1,3.2,6.4,6.1c5.3,2.9,6.5,2.9,6.5,2.9s-1.2-0.5-4.2-4.1
			c-2.9-3.5-3.7-4.4-3.7-4.4s4.2,2.9,7.1,4.4c2.9,1.4,5.5,1.3,5.5,1.3s-1.2-0.7-4.5-4.2c-0.7-0.7-2.6-3.3-2.6-3.3"/>
		<path class="st8" d="M144.8,199.2c0,0-0.4,0.1-1,0.5H55.9c-0.7-0.3-1.1-0.5-1.1-0.5c0-40.7,23-46.6,26.4-47.2
			c5.6,6.4,17.9,17.7,17.9,17.7s12.6-10.7,17.9-15.6c0.3-0.2,0.6-0.5,0.8-0.7c0.6-0.5,1-1,1.3-1.3l0,0c0.8,0.2,2,0.5,3.4,1.1
			c0.2,0.1,0.5,0.2,0.8,0.3c1.6,0.7,3.4,1.8,5.3,3.2c0.3,0.2,0.5,0.4,0.8,0.6C136.7,163.1,144.8,175,144.8,199.2"/>
		<path class="st9" d="M164.8,52.8c0,15.8-29,41.9-64.7,41.9S33.9,70.3,33.9,54.5S64.2,34.9,100,34.9S164.8,37,164.8,52.8z"/>
		<path class="st10" d="M62.1,20.3v5.8V29v28.6c0,0,34,19.8,75.9,0V29.9V26v-5.8C95,33.1,62.1,20.3,62.1,20.3z"/>
		<path class="st9" d="M138,20.3c0,5.8-17,10.5-37.9,10.5c-21,0-38-4.7-38-10.5s17-10.5,38-10.5C121,9.8,138,14.5,138,20.3z"/>
	</g>
</g>
</svg>
