<?xml version="1.0" encoding="utf-8"?>
<!-- Generator: Adobe Illustrator 22.0.0, SVG Export Plug-In . SVG Version: 6.00 Build 0)  -->
<svg version="1.1" id="Ebene_1" xmlns="http://www.w3.org/2000/svg" xmlns:xlink="http://www.w3.org/1999/xlink" x="0px" y="0px"
	 viewBox="0 0 200 200" style="enable-background:new 0 0 200 200;" xml:space="preserve">
<style type="text/css">
	.st0{fill:#FFFFFF;}
	.st1{fill:#02B3E4;}
</style>
<g>
	<g>
		<path class="st0" d="M101.1,36.7c-43.6,0-43.9,36.6-41.9,60.6c-3-5.7-11.8-3.9-11.1,5c0.7,8.6,13.2,13.1,13,12.1
			c3.6,19.7,24.1,31.1,40,31.1c0.1,0,0.2,0,0.3,0V36.7C101.3,36.7,101.2,36.7,101.1,36.7z"/>
	</g>
	<g>
		<path class="st0" d="M101.3,36.7c43.6,0,43.9,36.6,42,60.6c3-5.7,11.8-3.9,11.1,5c-0.7,8.6-13.2,13.1-13,12.1
			c-3.6,19.7-24.1,31.1-40,31.1c-0.1,0-0.2,0-0.3,0V36.7C101.1,36.7,101.2,36.7,101.3,36.7z"/>
	</g>
	<path class="st0" d="M129.8,155.9c-4.4,5.8-9.2,11.5-14.5,16.5c-7.6,7.3-11.7,16.9-13.8,25.8c0-0.1-0.1-0.2-0.1-0.3
		c-0.3-1.3-0.7-2.6-1.1-4l0,0c-2.3-7.6-6.2-15.3-12.6-21.5c-5.5-5.3-10.6-11.3-15.2-17.4c2-2.4,4.1-4.5,5.9-5.9s3.1-2.6,4.2-3.5l0,0
		c2.1,0.6,4.3,1.2,6.4,1.6c4.5,0.9,8.9,1.4,12.9,1.3c3.5-0.1,7-0.5,10.4-1.2c2.2-0.4,4.4-0.9,6.5-1.6l0,0c1,0.9,2.3,2,4.1,3.4
		C125.1,150.7,127.5,153.2,129.8,155.9z"/>
	<path class="st0" d="M143.3,199.1c-0.2,0.1-0.3,0.3-0.6,0.4l0,0c-0.1,0.1-0.3,0.1-0.4,0.2H59.8c-0.7-0.3-1-0.4-1-0.4
		c0-18.1,5-28.8,10.5-35c6.9-7.8,14.7-8.8,14.7-8.8s0,0,0.1,0c1.7,4.5,0.4,3.6,1.7,7.5c0.5,1.5,1.6,3,3.1,4.3
		c1.9,4.5,4.7,9.5,8,13.5c2.2,2.7,3.4,6.1,4,9.4c0.6-3.2,1.8-6.7,4-9.4c3.3-4,6-8.9,7.9-13.3c1.7-1.1,3.2-2.3,4.2-3.1
		c0.6-0.5,1.3,4.6,2,3.9c2.3-2.5,5.1-6.1,7.5-9.5c2.1,1.3,4.3,3.1,6.5,5.5c1.9,2.2,3.7,4.9,5.4,8.3
		C141.2,178.9,143.3,187.4,143.3,199.1z"/>
</g>
<g>
	<g>
		<g>
			<path class="st1" d="M100.4,111.1c-3.4,0-5.9,2.5-5.9,6.2c0,3.4,2.4,6.1,5.8,6.1c3.6,0,5.9-2.6,5.9-6.1
				C106.1,113.6,103.8,111.1,100.4,111.1z"/>
			<path class="st1" d="M101.8,55.1c-5.2,0-10.8,1.6-14,3.9l2.4,6.2c2.4-1.9,6.4-3,9.9-3c6.2,0.1,9.3,3.4,9.3,8.4
				c0,4.4-2.4,8.2-6.9,13.4c-4.9,5.9-6.7,11.7-6.1,16.9l0.2,2.5h7.6l-0.1-2.5c-0.3-5,1.3-9.3,5.6-14.4c4.7-5.6,8.4-10.4,8.4-17
				C118.2,62.1,113.1,55.1,101.8,55.1z"/>
		</g>
	</g>
</g>
</svg>
